<svg width="64" height="64" viewBox="0 0 64 64" fill="none" xmlns="http://www.w3.org/2000/svg">
<rect width="64" height="64" rx="12" fill="#FF3797"/>
<g clip-path="url(#clip0_138_3710)">
<path d="M36 38C36.5304 38 37.0391 38.2107 37.4142 38.5858C37.7893 38.9609 38 39.4696 38 40C38 39.4696 38.2107 38.9609 38.5858 38.5858C38.9609 38.2107 39.4696 38 40 38C39.4696 38 38.9609 37.7893 38.5858 37.4142C38.2107 37.0391 38 36.5304 38 36C38 36.5304 37.7893 37.0391 37.4142 37.4142C37.0391 37.7893 36.5304 38 36 38ZM36 26C36.5304 26 37.0391 26.2107 37.4142 26.5858C37.7893 26.9609 38 27.4696 38 28C38 27.4696 38.2107 26.9609 38.5858 26.5858C38.9609 26.2107 39.4696 26 40 26C39.4696 26 38.9609 25.7893 38.5858 25.4142C38.2107 25.0391 38 24.5304 38 24C38 24.5304 37.7893 25.0391 37.4142 25.4142C37.0391 25.7893 36.5304 26 36 26ZM29 38C29 36.4087 29.6321 34.8826 30.7574 33.7574C31.8826 32.6321 33.4087 32 35 32C33.4087 32 31.8826 31.3679 30.7574 30.2426C29.6321 29.1174 29 27.5913 29 26C29 27.5913 28.3679 29.1174 27.2426 30.2426C26.1174 31.3679 24.5913 32 23 32C24.5913 32 26.1174 32.6321 27.2426 33.7574C28.3679 34.8826 29 36.4087 29 38Z" stroke="white" stroke-width="2" stroke-linecap="round" stroke-linejoin="round"/>
</g>
<defs>
<clipPath id="clip0_138_3710">
<rect width="24" height="24" fill="white" transform="translate(20 20)"/>
</clipPath>
</defs>
</svg>
