<svg width="288" height="44" viewBox="0 0 288 44" fill="none" xmlns="http://www.w3.org/2000/svg">
<path d="M159.246 36.78C158.259 36.78 157.499 36.5133 156.966 35.98C156.459 35.4467 156.206 34.6867 156.206 33.7V19.5C156.206 18.5133 156.459 17.7667 156.966 17.26C157.499 16.7267 158.233 16.46 159.166 16.46C160.126 16.46 160.859 16.7267 161.366 17.26C161.873 17.7667 162.126 18.5133 162.126 19.5V22.06L161.686 20.46C162.219 19.2333 163.046 18.2467 164.166 17.5C165.286 16.7533 166.606 16.38 168.126 16.38C169.646 16.38 170.913 16.74 171.926 17.46C172.939 18.18 173.659 19.2867 174.086 20.78H173.526C174.113 19.42 175.006 18.3533 176.206 17.58C177.433 16.78 178.833 16.38 180.406 16.38C181.926 16.38 183.166 16.6867 184.126 17.3C185.113 17.8867 185.846 18.7933 186.326 20.02C186.806 21.22 187.046 22.7533 187.046 24.62V33.7C187.046 34.6867 186.779 35.4467 186.246 35.98C185.739 36.5133 185.006 36.78 184.046 36.78C183.059 36.78 182.299 36.5133 181.766 35.98C181.259 35.4467 181.006 34.6867 181.006 33.7V24.82C181.006 23.5133 180.793 22.5667 180.366 21.98C179.966 21.3667 179.273 21.06 178.286 21.06C177.139 21.06 176.246 21.46 175.606 22.26C174.966 23.06 174.646 24.1933 174.646 25.66V33.7C174.646 34.6867 174.379 35.4467 173.846 35.98C173.339 36.5133 172.606 36.78 171.646 36.78C170.686 36.78 169.939 36.5133 169.406 35.98C168.873 35.4467 168.606 34.6867 168.606 33.7V24.82C168.606 23.5133 168.393 22.5667 167.966 21.98C167.566 21.3667 166.873 21.06 165.886 21.06C164.739 21.06 163.846 21.46 163.206 22.26C162.566 23.06 162.246 24.1933 162.246 25.66V33.7C162.246 35.7533 161.246 36.78 159.246 36.78Z" fill="#3B37FF"/>
<path d="M139.772 36.86C138.119 36.86 136.746 36.5533 135.652 35.94C134.559 35.3267 133.746 34.4067 133.212 33.18C132.706 31.9267 132.452 30.38 132.452 28.54V19.5C132.452 18.4867 132.706 17.7267 133.212 17.22C133.746 16.7133 134.492 16.46 135.452 16.46C136.412 16.46 137.159 16.7133 137.692 17.22C138.226 17.7267 138.492 18.4867 138.492 19.5V28.7C138.492 29.8733 138.732 30.7533 139.212 31.34C139.692 31.9 140.452 32.18 141.492 32.18C142.639 32.18 143.572 31.78 144.292 30.98C145.039 30.1533 145.412 29.0733 145.412 27.74V19.5C145.412 18.4867 145.666 17.7267 146.172 17.22C146.706 16.7133 147.452 16.46 148.412 16.46C149.399 16.46 150.146 16.7133 150.652 17.22C151.186 17.7267 151.452 18.4867 151.452 19.5V33.7C151.452 35.7533 150.479 36.78 148.532 36.78C147.572 36.78 146.839 36.5133 146.332 35.98C145.826 35.4467 145.572 34.6867 145.572 33.7V31.02L146.172 32.58C145.586 33.94 144.746 34.9933 143.652 35.74C142.559 36.4867 141.266 36.86 139.772 36.86Z" fill="#3B37FF"/>
<path d="M124.869 36.74C123.882 36.74 123.122 36.46 122.589 35.9C122.082 35.3133 121.829 34.5 121.829 33.46V19.78C121.829 18.7133 122.082 17.9 122.589 17.34C123.122 16.7533 123.882 16.46 124.869 16.46C125.829 16.46 126.562 16.7533 127.069 17.34C127.602 17.9 127.869 18.7133 127.869 19.78V33.46C127.869 34.5 127.616 35.3133 127.109 35.9C126.602 36.46 125.856 36.74 124.869 36.74ZM124.869 13.18C123.749 13.18 122.882 12.9267 122.269 12.42C121.682 11.8867 121.389 11.14 121.389 10.18C121.389 9.19333 121.682 8.44667 122.269 7.94C122.882 7.40667 123.749 7.14 124.869 7.14C125.989 7.14 126.842 7.40667 127.429 7.94C128.016 8.44667 128.309 9.19333 128.309 10.18C128.309 11.14 128.016 11.8867 127.429 12.42C126.842 12.9267 125.989 13.18 124.869 13.18Z" fill="#3B37FF"/>
<path d="M115.589 36.86C113.216 36.86 111.442 36.2067 110.269 34.9C109.096 33.5667 108.509 31.5933 108.509 28.98V10.94C108.509 9.92667 108.762 9.16667 109.269 8.66C109.802 8.12667 110.562 7.86 111.549 7.86C112.509 7.86 113.242 8.12667 113.749 8.66C114.282 9.16667 114.549 9.92667 114.549 10.94V28.74C114.549 29.8333 114.776 30.6467 115.229 31.18C115.709 31.6867 116.336 31.94 117.109 31.94C117.322 31.94 117.522 31.9267 117.709 31.9C117.896 31.8733 118.096 31.86 118.309 31.86C118.736 31.8067 119.029 31.94 119.189 32.26C119.376 32.5533 119.469 33.1533 119.469 34.06C119.469 34.86 119.309 35.4733 118.989 35.9C118.669 36.3 118.176 36.5667 117.509 36.7C117.242 36.7267 116.936 36.7533 116.589 36.78C116.242 36.8333 115.909 36.86 115.589 36.86Z" fill="#3B37FF"/>
<path d="M79.7117 36.78C78.9651 36.78 78.3518 36.6067 77.8718 36.26C77.4184 35.9133 77.1251 35.4467 76.9917 34.86C76.8851 34.2733 77.0051 33.62 77.3517 32.9L87.5918 10.46C88.0184 9.55333 88.5251 8.9 89.1118 8.5C89.6984 8.07333 90.3784 7.86 91.1518 7.86C91.9251 7.86 92.6051 8.07333 93.1918 8.5C93.7784 8.9 94.2717 9.55333 94.6717 10.46L104.992 32.9C105.338 33.62 105.458 34.2867 105.352 34.9C105.272 35.4867 105.005 35.9533 104.552 36.3C104.098 36.62 103.512 36.78 102.792 36.78C101.885 36.78 101.178 36.5667 100.672 36.14C100.192 35.7133 99.7651 35.0467 99.3918 34.14L96.9917 28.58L99.4718 30.3H82.7918L85.2717 28.58L82.9117 34.14C82.5117 35.0733 82.0851 35.7533 81.6317 36.18C81.2051 36.58 80.5651 36.78 79.7117 36.78ZM91.0718 14.82L85.9517 27.02L84.8718 25.46H97.3918L96.3118 27.02L91.1518 14.82H91.0718Z" fill="#3B37FF"/>
</svg>
