<svg width="21" height="20" viewBox="0 0 21 20" fill="none" xmlns="http://www.w3.org/2000/svg">
<g clip-path="url(#clip0_988_54472)">
<path d="M7.99992 3.33337H4.66659C4.20635 3.33337 3.83325 3.70647 3.83325 4.16671V7.50004C3.83325 7.96028 4.20635 8.33337 4.66659 8.33337H7.99992C8.46016 8.33337 8.83325 7.96028 8.83325 7.50004V4.16671C8.83325 3.70647 8.46016 3.33337 7.99992 3.33337Z" stroke="#111111" stroke-width="1.5" stroke-linecap="round" stroke-linejoin="round"/>
<path d="M7.99992 11.6666H4.66659C4.20635 11.6666 3.83325 12.0397 3.83325 12.5V15.8333C3.83325 16.2935 4.20635 16.6666 4.66659 16.6666H7.99992C8.46016 16.6666 8.83325 16.2935 8.83325 15.8333V12.5C8.83325 12.0397 8.46016 11.6666 7.99992 11.6666Z" stroke="#111111" stroke-width="1.5" stroke-linecap="round" stroke-linejoin="round"/>
<path d="M16.3334 11.6666H13.0001C12.5398 11.6666 12.1667 12.0397 12.1667 12.5V15.8333C12.1667 16.2935 12.5398 16.6666 13.0001 16.6666H16.3334C16.7937 16.6666 17.1667 16.2935 17.1667 15.8333V12.5C17.1667 12.0397 16.7937 11.6666 16.3334 11.6666Z" stroke="#111111" stroke-width="1.5" stroke-linecap="round" stroke-linejoin="round"/>
<path d="M12.1667 5.83337H17.1667" stroke="#111111" stroke-width="1.5" stroke-linecap="round" stroke-linejoin="round"/>
<path d="M14.6667 3.33337V8.33337" stroke="#111111" stroke-width="1.5" stroke-linecap="round" stroke-linejoin="round"/>
</g>
<defs>
<clipPath id="clip0_988_54472">
<rect width="20" height="20" fill="white" transform="translate(0.5)"/>
</clipPath>
</defs>
</svg>
