<svg width="20" height="20" viewBox="0 0 20 20" fill="none" xmlns="http://www.w3.org/2000/svg">
<g clip-path="url(#clip0_1036_39268)">
<path d="M9.82917 17.4993H4.16667C3.72464 17.4993 3.30072 17.3238 2.98816 17.0112C2.67559 16.6986 2.5 16.2747 2.5 15.8327V5.83268C2.5 5.39065 2.67559 4.96673 2.98816 4.65417C3.30072 4.34161 3.72464 4.16602 4.16667 4.16602H14.1667C14.6087 4.16602 15.0326 4.34161 15.3452 4.65417C15.6577 4.96673 15.8333 5.39065 15.8333 5.83268V9.16602" stroke="#111111" stroke-width="1.5" stroke-linecap="round" stroke-linejoin="round"/>
<path d="M15 18.3327C16.8409 18.3327 18.3333 16.8403 18.3333 14.9993C18.3333 13.1584 16.8409 11.666 15 11.666C13.159 11.666 11.6666 13.1584 11.6666 14.9993C11.6666 16.8403 13.159 18.3327 15 18.3327Z" stroke="#111111" stroke-width="1.5" stroke-linecap="round" stroke-linejoin="round"/>
<path d="M12.5 2.5V5.83333" stroke="#111111" stroke-width="1.5" stroke-linecap="round" stroke-linejoin="round"/>
<path d="M5.83337 2.5V5.83333" stroke="#111111" stroke-width="1.5" stroke-linecap="round" stroke-linejoin="round"/>
<path d="M2.5 9.16602H15.8333" stroke="#111111" stroke-width="1.5" stroke-linecap="round" stroke-linejoin="round"/>
<path d="M15 13.7461V14.9994L15.8333 15.8328" stroke="#111111" stroke-width="1.5" stroke-linecap="round" stroke-linejoin="round"/>
</g>
<defs>
<clipPath id="clip0_1036_39268">
<rect width="20" height="20" fill="white"/>
</clipPath>
</defs>
</svg>
