<svg width="36" height="36" viewBox="0 0 36 36" fill="none" xmlns="http://www.w3.org/2000/svg">
<rect width="36" height="36" rx="18" fill="#3B37FF"/>
<g clip-path="url(#clip0_1019_47494)">
<path d="M12.1667 13.833H13C13.442 13.833 13.866 13.6574 14.1785 13.3449C14.4911 13.0323 14.6667 12.6084 14.6667 12.1663C14.6667 11.9453 14.7545 11.7334 14.9107 11.5771C15.067 11.4208 15.279 11.333 15.5 11.333H20.5C20.721 11.333 20.933 11.4208 21.0893 11.5771C21.2455 11.7334 21.3333 11.9453 21.3333 12.1663C21.3333 12.6084 21.5089 13.0323 21.8215 13.3449C22.134 13.6574 22.558 13.833 23 13.833H23.8333C24.2754 13.833 24.6993 14.0086 25.0118 14.3212C25.3244 14.6337 25.5 15.0576 25.5 15.4997V22.9997C25.5 23.4417 25.3244 23.8656 25.0118 24.1782C24.6993 24.4907 24.2754 24.6663 23.8333 24.6663H12.1667C11.7246 24.6663 11.3007 24.4907 10.9882 24.1782C10.6756 23.8656 10.5 23.4417 10.5 22.9997V15.4997C10.5 15.0576 10.6756 14.6337 10.9882 14.3212C11.3007 14.0086 11.7246 13.833 12.1667 13.833Z" stroke="white" stroke-width="1.25" stroke-linecap="round" stroke-linejoin="round"/>
<path d="M15.5 18.833C15.5 19.496 15.7634 20.1319 16.2322 20.6008C16.7011 21.0696 17.337 21.333 18 21.333C18.663 21.333 19.2989 21.0696 19.7678 20.6008C20.2366 20.1319 20.5 19.496 20.5 18.833C20.5 18.17 20.2366 17.5341 19.7678 17.0652C19.2989 16.5964 18.663 16.333 18 16.333C17.337 16.333 16.7011 16.5964 16.2322 17.0652C15.7634 17.5341 15.5 18.17 15.5 18.833Z" stroke="white" stroke-width="1.25" stroke-linecap="round" stroke-linejoin="round"/>
</g>
<defs>
<clipPath id="clip0_1019_47494">
<rect width="20" height="20" fill="white" transform="translate(8 8)"/>
</clipPath>
</defs>
</svg>
