<svg width="21" height="20" viewBox="0 0 21 20" fill="none" xmlns="http://www.w3.org/2000/svg">
<g clip-path="url(#clip0_2260_53707)">
<path d="M15.3001 6.66669H8.63346C7.71299 6.66669 6.9668 7.41288 6.9668 8.33335V15C6.9668 15.9205 7.71299 16.6667 8.63346 16.6667H15.3001C16.2206 16.6667 16.9668 15.9205 16.9668 15V8.33335C16.9668 7.41288 16.2206 6.66669 15.3001 6.66669Z" stroke="#111111" stroke-width="1.5" stroke-linecap="round" stroke-linejoin="round"/>
<path d="M13.6333 6.66665V4.99998C13.6333 4.55795 13.4577 4.13403 13.1451 3.82147C12.8326 3.50891 12.4087 3.33331 11.9666 3.33331H5.29997C4.85794 3.33331 4.43402 3.50891 4.12146 3.82147C3.8089 4.13403 3.6333 4.55795 3.6333 4.99998V11.6666C3.6333 12.1087 3.8089 12.5326 4.12146 12.8452C4.43402 13.1577 4.85794 13.3333 5.29997 13.3333H6.96663" stroke="#111111" stroke-width="1.5" stroke-linecap="round" stroke-linejoin="round"/>
</g>
<defs>
<clipPath id="clip0_2260_53707">
<rect width="20" height="20" fill="white" transform="translate(0.300049)"/>
</clipPath>
</defs>
</svg>
