<svg width="320" height="320" viewBox="0 0 320 320" fill="none" xmlns="http://www.w3.org/2000/svg">
<g opacity="0.4">
<path d="M237.388 153.419L159.645 183.357C159.352 183.47 159.023 183.47 158.728 183.357L158.188 183.148V121.358L158.728 121.149C159.023 121.036 159.352 121.036 159.645 121.149L237.388 151.084C238.466 151.499 238.466 153.007 237.388 153.422V153.419Z" fill="#3B37FF"/>
<path opacity="0.75" d="M158.188 121.357V183.148L80.985 153.419C79.9074 153.004 79.9074 151.497 80.985 151.081L158.188 121.357Z" fill="#3B37FF"/>
<path d="M159.186 184.161C158.944 184.161 158.699 184.116 158.469 184.027L80.7257 154.092C79.9553 153.794 79.4561 153.072 79.4561 152.251C79.4561 151.43 79.9553 150.708 80.7257 150.41L158.469 120.475C158.932 120.297 159.441 120.297 159.904 120.475L237.647 150.41C238.418 150.708 238.917 151.43 238.917 152.251C238.917 153.072 238.418 153.794 237.647 154.092L159.904 184.027C159.674 184.116 159.429 184.161 159.186 184.161ZM158.987 121.821L81.2441 151.757C80.9321 151.877 80.8985 152.143 80.8985 152.253C80.8985 152.364 80.9321 152.63 81.2441 152.75L158.987 182.685C159.117 182.736 159.258 182.736 159.388 182.685L237.131 152.75C237.443 152.63 237.477 152.364 237.477 152.253C237.477 152.143 237.443 151.877 237.131 151.757L159.388 121.821C159.258 121.771 159.117 121.771 158.987 121.821Z" fill="#3B37FF"/>
<path opacity="0.75" d="M239.598 190.695V242.033C239.598 242.552 239.279 243.015 238.797 243.205L160.895 273.509C160.074 273.831 159.189 273.224 159.189 272.343V186.541C159.189 185.425 160.533 184.865 161.325 185.648L185.985 210.03C186.345 210.382 186.878 210.485 187.346 210.296L237.87 189.538C238.694 189.2 239.601 189.805 239.601 190.7L239.598 190.695Z" fill="#3B37FF"/>
<path opacity="0.5" d="M264.374 176.762C265.012 177.394 264.798 178.471 263.968 178.814L239.598 188.825L187.343 210.293C186.878 210.485 186.342 210.379 185.985 210.024L160.564 184.894C159.918 184.255 160.144 183.163 160.991 182.834L238.84 152.549C239.301 152.369 239.824 152.477 240.177 152.825L264.374 176.762Z" fill="#3B37FF"/>
<path opacity="0.5" d="M159.189 186.537V272.34C159.189 273.22 158.306 273.828 157.482 273.506L79.5809 243.201C79.0985 243.012 78.7793 242.548 78.7793 242.03V190.692C78.7793 189.799 79.6865 189.194 80.5097 189.53L131.037 210.288C131.5 210.477 132.038 210.374 132.393 210.021L157.053 185.64C157.847 184.857 159.189 185.419 159.189 186.532V186.537Z" fill="#3B37FF"/>
<path opacity="0.25" d="M54.0065 176.762C53.3681 177.394 53.5817 178.471 54.4121 178.814L78.7817 188.825L131.037 210.293C131.502 210.485 132.038 210.379 132.395 210.024L157.816 184.894C158.462 184.255 158.236 183.163 157.389 182.834L79.5401 152.549C79.0793 152.369 78.5561 152.477 78.2033 152.825L54.0065 176.762Z" fill="#3B37FF"/>
<path d="M160.442 274.311C160.05 274.311 159.662 274.194 159.328 273.966C158.79 273.598 158.469 272.989 158.469 272.336V186.534C158.469 185.722 158.934 185.024 159.681 184.712C160.43 184.4 161.253 184.558 161.829 185.13L186.491 209.509C186.645 209.66 186.87 209.703 187.07 209.624L237.594 188.866C238.204 188.617 238.895 188.686 239.445 189.054C239.992 189.421 240.318 190.033 240.318 190.693V242.031C240.318 242.852 239.824 243.574 239.061 243.872L161.159 274.177C160.926 274.268 160.684 274.311 160.444 274.311H160.442ZM160.454 185.998C160.36 185.998 160.283 186.025 160.238 186.042C160.139 186.082 159.909 186.212 159.909 186.534V272.336C159.909 272.59 160.072 272.73 160.142 272.778C160.211 272.826 160.398 272.926 160.636 272.835L238.538 242.53C238.744 242.451 238.878 242.254 238.878 242.034V190.695C238.878 190.438 238.713 190.299 238.641 190.251C238.571 190.203 238.379 190.102 238.142 190.201L187.617 210.958C186.882 211.261 186.042 211.093 185.478 210.536L160.816 186.157C160.694 186.034 160.562 185.998 160.451 185.998H160.454Z" fill="#3B37FF"/>
<path d="M186.866 211.105C186.357 211.105 185.855 210.908 185.478 210.534L160.055 185.403C159.578 184.93 159.374 184.256 159.51 183.598C159.647 182.941 160.101 182.403 160.727 182.158L238.576 151.873C239.301 151.59 240.126 151.762 240.681 152.31L264.878 176.247C265.35 176.715 265.555 177.382 265.425 178.033C265.295 178.683 264.854 179.223 264.239 179.475L187.614 210.954C187.372 211.054 187.115 211.102 186.863 211.102L186.866 211.105ZM239.294 153.181C239.229 153.181 239.164 153.193 239.102 153.217L161.253 183.502C161.008 183.598 160.941 183.807 160.924 183.891C160.907 183.978 160.886 184.196 161.07 184.378L186.494 209.509C186.647 209.66 186.873 209.703 187.072 209.624L263.694 178.146C263.934 178.047 263.999 177.841 264.016 177.754C264.033 177.67 264.052 177.454 263.867 177.272L239.671 153.334C239.57 153.234 239.433 153.181 239.294 153.181Z" fill="#3B37FF"/>
<path d="M157.936 274.313C157.694 274.313 157.451 274.269 157.221 274.178L79.3191 243.873C78.5559 243.576 78.0615 242.853 78.0615 242.033V190.694C78.0615 190.034 78.3879 189.422 78.9351 189.055C79.4823 188.688 80.1735 188.618 80.7855 188.868L131.31 209.625C131.51 209.707 131.735 209.661 131.889 209.51L156.551 185.131C157.127 184.562 157.95 184.401 158.699 184.713C159.448 185.025 159.911 185.724 159.911 186.535V272.337C159.911 272.99 159.59 273.6 159.052 273.967C158.718 274.195 158.33 274.313 157.938 274.313H157.936ZM80.0343 190.159C79.8927 190.159 79.7871 190.217 79.7367 190.25C79.6647 190.298 79.4991 190.437 79.4991 190.694V242.033C79.4991 242.253 79.6335 242.45 79.8399 242.529L157.742 272.834C157.979 272.925 158.166 272.825 158.236 272.777C158.306 272.729 158.469 272.589 158.469 272.335V186.533C158.469 186.211 158.238 186.081 158.14 186.041C158.042 186 157.787 185.928 157.559 186.153L132.897 210.533C132.333 211.089 131.493 211.255 130.758 210.955L80.2335 190.197C80.1615 190.169 80.0919 190.157 80.0295 190.157L80.0343 190.159Z" fill="#3B37FF"/>
<path d="M131.512 211.105C131.26 211.105 131.005 211.057 130.761 210.956L54.1382 179.478C53.5238 179.226 53.0798 178.686 52.9526 178.036C52.823 177.385 53.0294 176.716 53.4998 176.25L77.6966 152.312C78.251 151.765 79.0766 151.595 79.8014 151.876L157.65 182.161C158.277 182.404 158.73 182.944 158.867 183.601C159.004 184.259 158.8 184.933 158.322 185.406L132.901 210.536C132.525 210.908 132.023 211.108 131.514 211.108L131.512 211.105ZM54.5126 177.272C54.3278 177.455 54.347 177.671 54.3638 177.755C54.3806 177.839 54.4454 178.048 54.6854 178.146L131.308 209.624C131.507 209.706 131.733 209.66 131.886 209.509L157.307 184.379C157.494 184.194 157.473 183.976 157.453 183.892C157.437 183.805 157.369 183.596 157.125 183.503L79.2758 153.217C79.079 153.14 78.8558 153.188 78.707 153.335L54.5102 177.272H54.5126Z" fill="#3B37FF"/>
<path d="M144.374 256.065C144.285 256.065 144.196 256.049 144.107 256.015L82.0386 231.384C81.669 231.237 81.489 230.82 81.6354 230.45C81.7818 230.081 82.1994 229.901 82.569 230.047L144.638 254.678C145.007 254.825 145.187 255.242 145.041 255.612C144.928 255.895 144.657 256.065 144.371 256.065H144.374Z" fill="#3B37FF"/>
<path d="M166.05 240.301C165.755 240.301 165.477 240.119 165.374 239.824C165.239 239.449 165.434 239.036 165.808 238.904L235.557 213.947C235.931 213.812 236.344 214.007 236.476 214.381C236.61 214.756 236.416 215.168 236.042 215.3L166.293 240.258C166.214 240.287 166.132 240.301 166.05 240.301Z" fill="#3B37FF"/>
<path d="M176.723 243.75C176.438 243.75 176.166 243.577 176.054 243.294C175.907 242.924 176.087 242.506 176.457 242.36L193.041 235.791C193.41 235.645 193.828 235.825 193.974 236.194C194.121 236.564 193.941 236.982 193.571 237.128L176.987 243.697C176.901 243.73 176.81 243.747 176.723 243.747V243.75Z" fill="#3B37FF"/>
<path opacity="0.75" d="M159.189 186.537V227.102L78.7793 194.248V190.694C78.7793 189.801 79.6865 189.196 80.5097 189.532L131.037 210.29C131.5 210.479 132.038 210.376 132.393 210.023L157.053 185.642C157.847 184.859 159.189 185.421 159.189 186.534V186.537Z" fill="#3B37FF"/>
<path d="M239.598 190.696V194.25L159.189 227.104V186.539C159.189 185.423 160.533 184.864 161.325 185.646L185.985 210.028C186.345 210.38 186.878 210.484 187.346 210.294L237.87 189.536C238.694 189.198 239.601 189.803 239.601 190.698L239.598 190.696Z" fill="#3B37FF"/>
<path opacity="0.75" d="M105.441 80.7336C105.964 81.7272 106.228 83.2248 106.228 85.2336V92.1432C106.214 94.152 105.947 95.6256 105.419 96.564C104.896 97.5048 104.085 97.9753 102.983 97.9753C101.882 97.9753 101.013 97.4928 100.49 96.5256C99.9666 95.5584 99.7026 94.0344 99.7026 91.9488V84.8112C99.7434 82.944 100.012 81.5496 100.519 80.628C101.025 79.7088 101.834 79.248 102.945 79.248C104.056 79.248 104.915 79.7424 105.439 80.7336H105.441Z" fill="#3B37FF"/>
<path opacity="0.75" d="M139.884 64.2559H66.0284C61.7324 64.2559 58.2524 67.7383 58.2524 72.0319V105.805C58.2524 110.101 61.7348 113.578 66.0284 113.578H115.999L128.546 122.593C130.113 123.716 132.295 122.597 132.295 120.673V113.578H139.886C144.182 113.578 147.66 110.101 147.66 105.805V72.0319C147.66 67.7359 144.182 64.2559 139.886 64.2559H139.884ZM112.692 91.1647C112.692 94.9399 111.844 97.8487 110.15 99.8959C108.456 101.943 106.065 102.968 102.984 102.968C99.902 102.968 97.4708 101.938 95.7692 99.8791C94.0676 97.8175 93.2156 94.9159 93.2156 91.1647V86.0623C93.2156 82.2871 94.0652 79.3783 95.7596 77.3311C97.454 75.2839 99.8492 74.2615 102.945 74.2615C106.041 74.2615 108.441 75.2887 110.143 77.3503C111.844 79.4095 112.694 82.3183 112.694 86.0815V91.1647H112.692Z" fill="#3B37FF"/>
<path d="M129.923 123.764C129.29 123.764 128.661 123.567 128.126 123.183L115.768 114.303H66.0258C61.341 114.303 57.5322 110.492 57.5322 105.81V72.0346C57.5322 67.3498 61.3434 63.541 66.0258 63.541H139.883C144.568 63.541 148.377 67.3522 148.377 72.0346V105.81C148.377 110.495 144.566 114.303 139.883 114.303H133.01V120.675C133.01 121.839 132.367 122.891 131.332 123.421C130.886 123.649 130.403 123.764 129.921 123.764H129.923ZM66.0258 64.9786C62.1354 64.9786 58.9722 68.1442 58.9722 72.0322V105.807C58.9722 109.698 62.1378 112.861 66.0258 112.861H116.231L128.966 122.01C129.477 122.377 130.115 122.425 130.677 122.137C131.236 121.849 131.572 121.302 131.572 120.673V112.861H139.886C143.776 112.861 146.939 109.695 146.939 105.807V72.0322C146.939 68.1418 143.774 64.9786 139.886 64.9786H66.0258Z" fill="#3B37FF"/>
<path d="M135.971 155.552C135.971 155.552 135.952 155.552 135.942 155.552C135.544 155.538 135.234 155.202 135.251 154.806C135.287 153.844 135.357 152.862 135.458 151.888C135.498 151.492 135.856 151.204 136.247 151.244C136.643 151.285 136.931 151.638 136.89 152.034C136.792 152.977 136.725 153.928 136.689 154.859C136.674 155.248 136.355 155.552 135.969 155.552H135.971ZM136.562 149.828C136.523 149.828 136.482 149.826 136.442 149.819C136.05 149.754 135.784 149.382 135.851 148.991C136.01 148.038 136.202 147.073 136.42 146.123C136.509 145.734 136.895 145.494 137.282 145.583C137.67 145.672 137.91 146.058 137.822 146.444C137.61 147.366 137.426 148.302 137.27 149.226C137.21 149.579 136.905 149.828 136.559 149.828H136.562ZM137.846 144.217C137.778 144.217 137.711 144.208 137.644 144.188C137.262 144.078 137.042 143.677 137.154 143.296C137.423 142.369 137.726 141.433 138.05 140.516C138.182 140.142 138.594 139.945 138.969 140.077C139.343 140.209 139.54 140.622 139.408 140.996C139.094 141.889 138.801 142.796 138.537 143.699C138.446 144.013 138.158 144.217 137.846 144.217ZM139.761 138.788C139.67 138.788 139.574 138.772 139.485 138.733C139.118 138.58 138.945 138.16 139.096 137.792C139.468 136.902 139.869 136.004 140.291 135.128C140.464 134.771 140.894 134.62 141.251 134.792C141.609 134.965 141.76 135.395 141.587 135.752C141.177 136.604 140.786 137.476 140.423 138.344C140.308 138.62 140.039 138.788 139.758 138.788H139.761ZM142.262 133.602C142.144 133.602 142.024 133.573 141.916 133.513C141.568 133.321 141.441 132.884 141.633 132.534C142.101 131.684 142.598 130.837 143.111 130.016C143.322 129.68 143.766 129.577 144.102 129.786C144.441 129.997 144.542 130.441 144.333 130.777C143.834 131.576 143.349 132.402 142.895 133.228C142.763 133.465 142.518 133.6 142.264 133.6L142.262 133.602ZM145.312 128.718C145.168 128.718 145.024 128.675 144.899 128.586C144.573 128.358 144.496 127.907 144.724 127.583C144.825 127.441 144.926 127.3 145.026 127.158C145.497 126.503 145.986 125.86 146.481 125.245C146.73 124.936 147.184 124.888 147.494 125.135C147.803 125.384 147.854 125.838 147.604 126.148C147.126 126.74 146.654 127.364 146.195 127.998C146.097 128.135 145.998 128.274 145.9 128.411C145.761 128.61 145.538 128.716 145.31 128.716L145.312 128.718ZM148.924 124.24C148.749 124.24 148.574 124.175 148.434 124.048C148.144 123.776 148.127 123.32 148.398 123.03C149.068 122.31 149.766 121.614 150.477 120.959C150.77 120.69 151.226 120.707 151.494 121C151.763 121.292 151.746 121.748 151.454 122.017C150.772 122.646 150.098 123.318 149.454 124.012C149.313 124.165 149.121 124.242 148.926 124.242L148.924 124.24ZM153.155 120.34C152.942 120.34 152.73 120.246 152.589 120.064C152.344 119.752 152.399 119.298 152.711 119.053C153.482 118.448 154.283 117.872 155.097 117.337C155.43 117.119 155.877 117.21 156.095 117.544C156.314 117.875 156.222 118.321 155.889 118.54C155.109 119.053 154.338 119.608 153.599 120.186C153.467 120.289 153.311 120.34 153.155 120.34ZM157.96 117.179C157.706 117.179 157.458 117.042 157.326 116.802C157.137 116.452 157.266 116.015 157.614 115.825C158.466 115.362 159.352 114.925 160.25 114.529C160.612 114.368 161.039 114.534 161.2 114.896C161.361 115.261 161.198 115.686 160.833 115.847C159.974 116.228 159.122 116.646 158.303 117.09C158.193 117.15 158.075 117.179 157.96 117.179ZM198.935 114.872C198.549 114.872 198.23 114.568 198.215 114.179C198.201 113.78 198.513 113.447 198.909 113.435C199.799 113.404 200.735 113.312 201.69 113.168C202.084 113.106 202.451 113.377 202.511 113.771C202.571 114.164 202.302 114.532 201.909 114.592C200.898 114.745 199.907 114.841 198.959 114.875C198.95 114.875 198.942 114.875 198.933 114.875L198.935 114.872ZM163.218 114.851C162.921 114.851 162.642 114.666 162.539 114.368C162.407 113.994 162.604 113.581 162.981 113.452C163.89 113.132 164.834 112.842 165.782 112.585C166.166 112.482 166.562 112.71 166.665 113.094C166.768 113.478 166.54 113.874 166.156 113.977C165.242 114.224 164.332 114.505 163.456 114.812C163.377 114.841 163.298 114.853 163.218 114.853V114.851ZM196.06 114.769C196.034 114.769 196.005 114.769 195.978 114.764C194.946 114.647 193.955 114.44 193.029 114.152C192.65 114.035 192.438 113.629 192.556 113.25C192.674 112.871 193.077 112.66 193.458 112.777C194.296 113.039 195.198 113.226 196.142 113.334C196.538 113.38 196.821 113.735 196.775 114.131C196.734 114.498 196.422 114.769 196.06 114.769ZM204.623 114.035C204.297 114.035 204.002 113.812 203.922 113.48C203.831 113.094 204.069 112.705 204.455 112.614C205.367 112.398 206.286 112.148 207.191 111.872C207.57 111.755 207.974 111.971 208.091 112.35C208.206 112.729 207.993 113.132 207.614 113.25C206.682 113.536 205.732 113.792 204.791 114.016C204.736 114.03 204.678 114.035 204.623 114.035ZM168.772 113.351C168.434 113.351 168.134 113.113 168.066 112.77C167.99 112.379 168.244 112.002 168.633 111.925C169.307 111.793 170.001 111.673 170.694 111.57C170.966 111.529 171.237 111.491 171.513 111.452C171.906 111.397 172.271 111.671 172.326 112.067C172.382 112.463 172.108 112.825 171.714 112.88C171.446 112.919 171.177 112.957 170.91 112.996C170.238 113.096 169.566 113.212 168.914 113.341C168.866 113.351 168.82 113.356 168.774 113.356L168.772 113.351ZM190.614 113.029C190.49 113.029 190.365 112.998 190.25 112.931C189.726 112.624 189.222 112.278 188.752 111.901C188.435 111.647 188.123 111.371 187.826 111.083C187.54 110.804 187.535 110.348 187.811 110.065C188.09 109.78 188.546 109.775 188.829 110.051C189.09 110.308 189.369 110.55 189.65 110.776C190.067 111.109 190.514 111.416 190.977 111.688C191.32 111.889 191.435 112.331 191.234 112.674C191.099 112.902 190.859 113.029 190.612 113.029H190.614ZM174.47 112.508C174.112 112.508 173.802 112.242 173.757 111.88C173.706 111.486 173.987 111.124 174.381 111.076C175.259 110.965 176.258 110.838 177.227 110.701C177.621 110.646 177.986 110.92 178.041 111.316C178.096 111.709 177.822 112.074 177.429 112.129C176.45 112.266 175.446 112.393 174.563 112.506C174.532 112.511 174.503 112.511 174.472 112.511L174.47 112.508ZM210.131 112.352C209.841 112.352 209.565 112.175 209.457 111.884C209.318 111.512 209.507 111.097 209.879 110.958C210.76 110.629 211.641 110.267 212.502 109.883C212.865 109.72 213.292 109.883 213.453 110.248C213.614 110.612 213.453 111.037 213.088 111.198C212.2 111.594 211.29 111.968 210.383 112.307C210.299 112.338 210.215 112.352 210.131 112.352ZM180.172 111.685C179.831 111.685 179.526 111.44 179.464 111.092C179.394 110.701 179.654 110.327 180.045 110.257C181.053 110.077 181.96 109.885 182.819 109.674C183.206 109.578 183.594 109.816 183.69 110.202C183.786 110.588 183.549 110.977 183.162 111.073C182.274 111.292 181.336 111.488 180.299 111.676C180.256 111.683 180.213 111.688 180.172 111.688V111.685ZM185.754 110.281C185.457 110.281 185.178 110.094 185.075 109.799C184.946 109.424 185.142 109.014 185.519 108.882C185.651 108.836 185.781 108.791 185.91 108.743C185.373 107.927 184.9 107.034 184.499 106.086C184.346 105.719 184.516 105.296 184.883 105.143C185.248 104.989 185.673 105.16 185.826 105.527C186.191 106.393 186.626 107.209 187.113 107.951C187.168 108.035 187.204 108.126 187.221 108.217C187.521 108.085 187.811 107.951 188.094 107.809C188.45 107.632 188.882 107.778 189.059 108.133C189.237 108.488 189.09 108.92 188.735 109.098C187.888 109.518 186.966 109.902 185.997 110.243C185.918 110.269 185.838 110.284 185.759 110.284L185.754 110.281ZM215.39 110.01C215.13 110.01 214.878 109.868 214.751 109.621C214.569 109.268 214.706 108.834 215.058 108.649C215.894 108.215 216.726 107.749 217.535 107.267C217.876 107.063 218.318 107.173 218.522 107.514C218.726 107.855 218.615 108.296 218.274 108.5C217.442 109 216.582 109.477 215.723 109.926C215.618 109.981 215.502 110.008 215.392 110.008L215.39 110.01ZM190.881 107.704C190.655 107.704 190.434 107.598 190.293 107.401C190.062 107.077 190.139 106.628 190.463 106.398C190.691 106.235 190.917 106.067 191.133 105.894C191.627 105.503 192.093 105.071 192.515 104.61C192.784 104.317 193.24 104.298 193.533 104.567C193.826 104.836 193.845 105.292 193.576 105.584C193.101 106.1 192.58 106.585 192.026 107.024C191.79 107.212 191.543 107.396 191.296 107.572C191.169 107.66 191.025 107.704 190.881 107.704ZM220.331 107.056C220.101 107.056 219.875 106.945 219.736 106.741C219.513 106.412 219.597 105.964 219.926 105.74C220.706 105.21 221.478 104.648 222.222 104.075C222.537 103.832 222.99 103.89 223.233 104.204C223.475 104.519 223.418 104.972 223.103 105.215C222.335 105.805 221.541 106.384 220.737 106.931C220.612 107.015 220.47 107.056 220.331 107.056ZM184.259 103.792C183.935 103.792 183.642 103.573 183.561 103.244C183.333 102.33 183.141 101.329 182.999 100.345C182.944 99.9516 183.218 99.5868 183.611 99.5316C184.002 99.4764 184.37 99.7476 184.425 100.144C184.559 101.08 184.744 102.032 184.958 102.899C185.054 103.285 184.818 103.676 184.432 103.77C184.374 103.784 184.314 103.792 184.257 103.792H184.259ZM224.889 103.54C224.687 103.54 224.488 103.456 224.344 103.292C224.082 102.992 224.116 102.536 224.416 102.277C225.126 101.66 225.827 101.012 226.502 100.352C226.785 100.074 227.241 100.079 227.519 100.364C227.798 100.648 227.793 101.104 227.51 101.382C226.816 102.061 226.094 102.726 225.362 103.364C225.225 103.482 225.057 103.542 224.889 103.542V103.54ZM194.735 103.489C194.615 103.489 194.495 103.46 194.382 103.396C194.037 103.201 193.914 102.762 194.109 102.414C194.553 101.624 194.906 100.784 195.155 99.918C195.266 99.5364 195.664 99.3156 196.046 99.426C196.427 99.5364 196.648 99.9348 196.538 100.316C196.257 101.291 195.861 102.234 195.362 103.12C195.23 103.355 194.985 103.487 194.733 103.487L194.735 103.489ZM229.002 99.5124C228.83 99.5124 228.657 99.45 228.52 99.3252C228.225 99.0588 228.203 98.6028 228.47 98.3076C229.103 97.6092 229.722 96.882 230.31 96.15C230.56 95.8404 231.011 95.79 231.323 96.0396C231.633 96.2892 231.683 96.7404 231.434 97.0524C230.829 97.8084 230.19 98.5548 229.538 99.2748C229.396 99.4308 229.199 99.5124 229.005 99.5124H229.002ZM183.453 98.0964C183.066 98.0964 182.747 97.7916 182.733 97.4004C182.723 97.1316 182.718 96.8604 182.718 96.5892C182.718 95.8284 182.757 95.0988 182.836 94.4172C182.882 94.0212 183.239 93.738 183.633 93.7836C184.029 93.8292 184.312 94.1844 184.266 94.5804C184.194 95.2092 184.158 95.8836 184.158 96.5892C184.158 96.8436 184.163 97.0956 184.173 97.35C184.187 97.7484 183.875 98.082 183.479 98.094C183.47 98.094 183.462 98.094 183.453 98.094V98.0964ZM196.312 98.0028C196.312 98.0028 196.29 98.0028 196.278 98.0028C195.88 97.986 195.573 97.6476 195.592 97.2516C195.599 97.0812 195.604 96.9084 195.604 96.7356C195.604 96.1212 195.554 95.4996 195.455 94.89C195.438 94.7844 195.419 94.6764 195.395 94.5684C195.311 94.1796 195.561 93.798 195.95 93.714C196.338 93.63 196.72 93.8796 196.804 94.2684C196.833 94.4004 196.857 94.53 196.878 94.6596C196.989 95.346 197.046 96.0444 197.046 96.7356C197.046 96.93 197.042 97.1244 197.034 97.3164C197.018 97.7028 196.698 98.0052 196.314 98.0052L196.312 98.0028ZM232.602 95.0196C232.458 95.0196 232.314 94.9764 232.187 94.8876C231.863 94.6572 231.784 94.2084 232.014 93.8844C232.559 93.1116 233.085 92.3172 233.577 91.5204C233.786 91.182 234.23 91.0764 234.568 91.2852C234.906 91.494 235.012 91.938 234.803 92.2764C234.297 93.0996 233.754 93.9204 233.193 94.7172C233.054 94.9164 232.83 95.022 232.605 95.022L232.602 95.0196ZM195.066 92.4588C194.814 92.4588 194.57 92.3268 194.438 92.0892C193.991 91.2876 193.434 90.5556 192.83 89.9676C192.544 89.6916 192.539 89.2356 192.815 88.95C193.094 88.6644 193.55 88.6596 193.833 88.9356C194.536 89.6196 195.179 90.4668 195.695 91.3884C195.89 91.7364 195.765 92.1732 195.417 92.3676C195.306 92.43 195.184 92.4588 195.066 92.4588ZM184.18 92.4156C184.098 92.4156 184.014 92.4012 183.933 92.37C183.558 92.2332 183.369 91.8204 183.506 91.446C183.902 90.366 184.451 89.4588 185.138 88.746C185.414 88.4604 185.87 88.4508 186.155 88.7268C186.441 89.0028 186.45 89.4588 186.174 89.7444C185.627 90.3108 185.183 91.05 184.857 91.9404C184.749 92.2308 184.475 92.4132 184.18 92.4132V92.4156ZM235.619 90.1212C235.506 90.1212 235.389 90.0948 235.281 90.0372C234.93 89.85 234.796 89.4156 234.983 89.0628C235.041 88.9548 235.098 88.8468 235.154 88.7388C235.338 88.386 235.773 88.2492 236.126 88.434C236.478 88.6188 236.615 89.0532 236.43 89.406C236.373 89.5188 236.313 89.6292 236.255 89.742C236.126 89.9844 235.876 90.1236 235.619 90.1236V90.1212ZM190.929 88.6212C190.85 88.6212 190.768 88.6068 190.689 88.5804C189.892 88.2996 189.083 88.2684 188.289 88.4868C187.905 88.5924 187.509 88.3668 187.403 87.9852C187.298 87.6012 187.523 87.2052 187.905 87.0996C188.98 86.802 190.094 86.8452 191.166 87.2244C191.541 87.3564 191.738 87.7692 191.606 88.1436C191.502 88.4388 191.224 88.6236 190.926 88.6236L190.929 88.6212Z" fill="#3B37FF"/>
<path d="M253.242 76.7092C255.68 74.629 254.114 68.7901 249.743 63.6677C245.373 58.5452 239.854 56.079 237.415 58.1592C234.977 60.2394 236.544 66.0783 240.914 71.2008C245.284 76.3232 250.804 78.7895 253.242 76.7092Z" fill="#3B37FF"/>
<path opacity="0.5" d="M251.67 84.5163C257.181 80.6475 259.646 74.6591 257.176 71.1409C254.706 67.6228 248.237 67.9071 242.726 71.776C237.215 75.6449 234.749 81.6333 237.219 85.1514C239.689 88.6696 246.159 88.3852 251.67 84.5163Z" fill="#3B37FF"/>
<path d="M242.833 88.3179C240.184 88.3179 237.923 87.4083 236.632 85.5699C233.937 81.7323 236.488 75.2811 242.315 71.1915C248.142 67.1019 255.076 66.8955 257.769 70.7331C260.464 74.5707 257.913 81.0219 252.085 85.1115C249.049 87.2427 245.713 88.3203 242.833 88.3203V88.3179ZM243.141 72.3699C237.964 76.0035 235.571 81.5547 237.81 84.7419C240.049 87.9291 246.081 87.5667 251.257 83.9307C256.434 80.2971 258.827 74.7459 256.588 71.5587C254.351 68.3715 248.317 68.7339 243.141 72.3699Z" fill="#3B37FF"/>
<path d="M247.305 80.0829C245.38 80.0829 243.234 79.7901 241.012 79.1733C237.772 78.2757 234.885 76.8237 232.878 75.0837C230.73 73.2189 229.818 71.2149 230.31 69.4389C230.802 67.6629 232.617 66.4125 235.418 65.9205C238.034 65.4621 241.257 65.7021 244.497 66.5997C251.474 68.5341 256.175 72.8109 255.198 76.3341C254.534 78.7365 251.426 80.0805 247.305 80.0805V80.0829ZM238.202 67.1325C237.306 67.1325 236.454 67.2021 235.667 67.3389C233.476 67.7229 232.031 68.6301 231.7 69.8229C231.369 71.0157 232.144 72.5373 233.824 73.9941C235.672 75.5973 238.36 76.9437 241.398 77.7837C248.01 79.6173 253.156 78.3141 253.811 75.9501C254.466 73.5837 250.727 69.8205 244.113 67.9869C242.07 67.4205 240.042 67.1301 238.202 67.1301V67.1325Z" fill="#3B37FF"/>
<path d="M91.5018 135.212C91.3842 135.212 91.2666 135.184 91.1562 135.124L71.9994 124.614C71.6514 124.422 71.5242 123.985 71.7138 123.637C71.9034 123.289 72.3426 123.162 72.6906 123.352L91.8474 133.861C92.1954 134.053 92.3226 134.49 92.133 134.838C92.0034 135.076 91.7562 135.212 91.5018 135.212Z" fill="#3B37FF"/>
<path d="M96.8659 131.819C96.6307 131.819 96.4027 131.704 96.2635 131.495L91.4467 124.161C91.2283 123.827 91.3219 123.381 91.6531 123.165C91.9843 122.947 92.4331 123.04 92.6491 123.371L97.4659 130.706C97.6843 131.039 97.5907 131.486 97.2595 131.702C97.1371 131.781 97.0003 131.819 96.8659 131.819Z" fill="#3B37FF"/>
<path d="M218.841 131.819C218.692 131.819 218.541 131.774 218.411 131.678C218.092 131.44 218.025 130.989 218.263 130.67L242.179 98.5146C242.416 98.1954 242.867 98.1306 243.187 98.3658C243.506 98.6034 243.573 99.0546 243.335 99.3738L219.419 131.529C219.278 131.719 219.062 131.819 218.841 131.819Z" fill="#3B37FF"/>
<path d="M222.535 133.652C222.302 133.652 222.074 133.54 221.935 133.331C221.714 133 221.805 132.553 222.134 132.332L230.397 126.832C230.728 126.611 231.175 126.702 231.395 127.031C231.616 127.362 231.525 127.808 231.196 128.029L222.933 133.53C222.811 133.612 222.671 133.65 222.535 133.65V133.652Z" fill="#3B37FF"/>
<path d="M227.707 138.825C227.359 138.825 227.054 138.573 226.996 138.22C226.934 137.826 227.2 137.457 227.592 137.394L250.005 133.783C250.399 133.72 250.768 133.986 250.831 134.378C250.893 134.771 250.627 135.141 250.236 135.203L227.822 138.815C227.784 138.823 227.745 138.825 227.707 138.825Z" fill="#3B37FF"/>
<path opacity="0.5" d="M64.3144 230.715C67.6625 230.715 70.3768 228 70.3768 224.652C70.3768 221.304 67.6625 218.59 64.3144 218.59C60.9662 218.59 58.252 221.304 58.252 224.652C58.252 228 60.9662 230.715 64.3144 230.715Z" fill="#3B37FF"/>
<path d="M91.1317 259.777C93.1041 259.777 94.7029 258.178 94.7029 256.206C94.7029 254.234 93.1041 252.635 91.1317 252.635C89.1594 252.635 87.5605 254.234 87.5605 256.206C87.5605 258.178 89.1594 259.777 91.1317 259.777Z" fill="#3B37FF"/>
<path d="M256.782 211.996C262.075 211.996 266.366 207.706 266.366 202.413C266.366 197.121 262.075 192.83 256.782 192.83C251.49 192.83 247.199 197.121 247.199 202.413C247.199 207.706 251.49 211.996 256.782 211.996Z" fill="#3B37FF"/>
<path d="M203.702 246.884C206.081 246.884 208.01 244.955 208.01 242.576C208.01 240.196 206.081 238.268 203.702 238.268C201.322 238.268 199.394 240.196 199.394 242.576C199.394 244.955 201.322 246.884 203.702 246.884Z" fill="#3B37FF"/>
<path opacity="0.5" d="M199.149 273.595C201.83 273.595 204.004 271.421 204.004 268.74C204.004 266.059 201.83 263.885 199.149 263.885C196.467 263.885 194.293 266.059 194.293 268.74C194.293 271.421 196.467 273.595 199.149 273.595Z" fill="#3B37FF"/>
<g opacity="0.25">
<path d="M91.132 252.635C92.9296 252.635 94.4152 253.967 94.6624 255.695H109.293L79.2616 244.012C78.4384 243.69 77.908 242.915 77.908 242.032V213.834H60.928C49.3696 213.834 39.9976 223.206 39.9976 234.764C39.9976 240.544 42.34 245.776 46.1272 249.563C49.9168 253.352 55.1464 255.692 60.9256 255.692H87.5968C87.844 253.962 89.3296 252.632 91.1272 252.632L91.132 252.635ZM64.3144 230.713C60.9664 230.713 58.252 227.999 58.252 224.651C58.252 221.303 60.9664 218.588 64.3144 218.588C67.6624 218.588 70.3768 221.303 70.3768 224.651C70.3768 227.999 67.6624 230.713 64.3144 230.713Z" fill="#3B37FF"/>
<path d="M259.069 213.838H240.467V242.035C240.467 242.919 239.937 243.694 239.113 244.015L209.082 255.699H259.067C270.625 255.699 279.997 246.327 279.997 234.768C279.997 228.989 277.655 223.757 273.868 219.97C270.081 216.183 264.849 213.84 259.069 213.84V213.838Z" fill="#3B37FF"/>
<path d="M159.345 184.305C159.292 184.309 159.239 184.312 159.186 184.312C159.133 184.312 159.083 184.309 159.033 184.305C159.016 184.429 158.985 184.554 158.946 184.674C159.03 184.72 159.112 184.773 159.189 184.828C159.265 184.773 159.347 184.72 159.431 184.674C159.39 184.554 159.361 184.432 159.345 184.305Z" fill="#3B37FF"/>
<path d="M102.983 102.968C106.067 102.968 108.455 101.943 110.15 99.8961C111.844 97.8489 112.691 94.9401 112.691 91.1649V86.0817C112.691 82.3185 111.842 79.4097 110.14 77.3505C108.438 75.2889 106.038 74.2617 102.942 74.2617C99.8465 74.2617 97.4537 75.2841 95.7569 77.3313C94.0625 79.3785 93.2129 82.2873 93.2129 86.0625V91.1649C93.2129 94.9161 94.0649 97.8177 95.7665 99.8793C97.4681 101.939 99.8705 102.968 102.981 102.968H102.983ZM99.7001 84.8145C99.7409 82.9473 100.01 81.5529 100.516 80.6313C101.022 79.7121 101.831 79.2513 102.942 79.2513C104.054 79.2513 104.913 79.7457 105.436 80.7369C105.959 81.7305 106.223 83.2281 106.223 85.2369V92.1465C106.209 94.1553 105.942 95.6289 105.414 96.5673C104.891 97.5081 104.08 97.9785 102.978 97.9785C101.877 97.9785 101.008 97.4961 100.485 96.5289C99.9617 95.5617 99.6977 94.0377 99.6977 91.9521V84.8145H99.7001Z" fill="#3B37FF"/>
<path d="M259.07 130.123H228.326L223.017 133.658C222.868 133.756 222.7 133.804 222.534 133.804C222.254 133.804 221.978 133.667 221.81 133.415C221.543 133.015 221.651 132.475 222.052 132.208L225.184 130.123H220.65L219.539 131.618C219.369 131.848 219.105 131.968 218.841 131.968C218.661 131.968 218.478 131.913 218.322 131.795C217.936 131.507 217.857 130.963 218.142 130.576L218.481 130.12H190.523C184.744 130.12 179.512 127.778 175.725 123.991C172.857 121.123 170.822 117.427 169.998 113.294C169.029 113.459 168.069 113.651 167.142 113.877C167.073 113.894 167.003 113.901 166.936 113.901C166.542 113.901 166.187 113.635 166.091 113.236C165.978 112.768 166.264 112.298 166.732 112.185C167.706 111.947 168.712 111.743 169.732 111.568C169.643 110.788 169.593 109.996 169.593 109.192C169.593 99.1674 176.646 90.7914 186.059 88.7442C185.836 88.3314 185.978 87.8154 186.386 87.5778C186.698 87.3954 187.031 87.2394 187.377 87.1098C188.342 86.7498 189.345 86.6586 190.326 86.8386C190.799 86.925 191.114 87.3786 191.027 87.8514C190.998 88.0098 190.926 88.149 190.828 88.2618H235.482C235.682 88.185 235.905 88.1802 236.114 88.2618H240.638C238.866 87.8706 237.443 86.985 236.51 85.6554C235.139 83.7018 235.019 81.0786 236.178 78.2682C236.27 78.0474 236.37 77.8266 236.476 77.6058C232.024 75.3786 229.401 72.1674 230.169 69.3978C230.802 67.1082 233.582 65.7522 237.33 65.5674C235.936 62.3394 235.857 59.4786 237.414 58.1514C239.853 56.0706 245.373 58.5378 249.743 63.6594C250.926 65.0466 251.903 66.4866 252.652 67.8906C254.879 68.1114 256.756 69.0234 257.894 70.6458C259.264 72.5994 259.384 75.2226 258.225 78.033C257.123 80.7114 254.973 83.2674 252.174 85.233C249.964 86.7858 247.542 87.8274 245.198 88.2618H259.072C270.63 88.2618 280.002 78.8922 280.002 67.3362C280.002 61.557 277.66 56.325 273.873 52.5378C270.083 48.7482 264.854 46.4082 259.074 46.4082H60.9303C49.3719 46.4058 39.9999 55.7778 39.9999 67.3362C39.9999 73.1154 42.3423 78.3474 46.1295 82.1322C49.1247 85.1274 53.0223 87.213 57.3783 87.957V72.033C57.3783 67.2666 61.2567 63.3882 66.0231 63.3882H139.881C144.647 63.3882 148.526 67.2666 148.526 72.033V105.808C148.526 110.575 144.647 114.453 139.881 114.453H133.158V120.676C133.158 121.895 132.484 122.999 131.399 123.556C130.931 123.796 130.425 123.916 129.921 123.916C129.256 123.916 128.598 123.71 128.034 123.307L115.715 114.455H84.6855C83.5143 118.982 80.8623 122.908 77.2815 125.702L91.9167 133.73C92.3391 133.96 92.4927 134.491 92.2599 134.913C92.1015 135.201 91.8039 135.364 91.4967 135.364C91.3551 135.364 91.2111 135.331 91.0791 135.256L75.6999 126.82C72.4431 128.908 68.5767 130.123 64.4223 130.123H60.9255C49.3671 130.123 39.9951 139.492 39.9951 151.048C39.9951 156.827 42.3375 162.062 46.1247 165.847C49.2231 168.945 53.2887 171.074 57.8271 171.748L77.5839 152.205C78.0663 151.727 78.7431 151.521 79.3959 151.622C79.5831 151.012 80.0415 150.513 80.6655 150.271L148.674 124.084C148.614 124.051 148.554 124.01 148.502 123.962C148.151 123.633 148.134 123.081 148.466 122.731C149.286 121.862 150.146 121.027 151.026 120.254C151.386 119.937 151.938 119.971 152.255 120.333C152.572 120.693 152.538 121.245 152.176 121.562C151.473 122.181 150.782 122.843 150.112 123.532L158.406 120.338C158.906 120.146 159.453 120.146 159.952 120.338L237.695 150.273C238.319 150.513 238.778 151.015 238.965 151.624C239.62 151.523 240.297 151.73 240.782 152.207L260.699 171.911C271.492 171.076 279.993 162.062 279.993 151.051C279.993 145.271 277.65 140.039 273.863 136.255C270.074 132.465 264.844 130.125 259.065 130.125L259.07 130.123ZM97.3431 131.827C97.1967 131.923 97.0311 131.971 96.8655 131.971C96.5823 131.971 96.3039 131.831 96.1359 131.577L91.3191 124.243C91.0551 123.842 91.1679 123.302 91.5687 123.038C91.9695 122.774 92.5095 122.887 92.7735 123.287L97.5903 130.622C97.8543 131.023 97.7415 131.563 97.3407 131.827H97.3431ZM157.689 117.609C156.714 118.171 155.754 118.787 154.838 119.445C154.684 119.555 154.506 119.608 154.331 119.608C154.06 119.608 153.794 119.483 153.623 119.246C153.342 118.855 153.431 118.312 153.822 118.031C154.787 117.338 155.795 116.687 156.822 116.099C157.24 115.859 157.77 116.003 158.01 116.421C158.25 116.839 158.106 117.369 157.689 117.609ZM163.874 114.825C162.794 115.192 161.728 115.61 160.71 116.066C160.595 116.119 160.473 116.143 160.355 116.143C160.022 116.143 159.705 115.951 159.561 115.629C159.364 115.19 159.561 114.676 159.998 114.477C161.066 113.997 162.182 113.56 163.314 113.174C163.77 113.02 164.265 113.263 164.418 113.719C164.572 114.175 164.33 114.669 163.874 114.823V114.825ZM250.259 135.352L227.846 138.964C227.798 138.971 227.752 138.976 227.706 138.976C227.286 138.976 226.917 138.671 226.847 138.244C226.77 137.769 227.094 137.323 227.567 137.246L249.981 133.634C250.456 133.557 250.902 133.879 250.979 134.354C251.056 134.829 250.732 135.275 250.259 135.352Z" fill="#3B37FF"/>
</g>
</g>
</svg>
