<svg width="320" height="320" viewBox="0 0 320 320" fill="none" xmlns="http://www.w3.org/2000/svg">
<g opacity="0.4">
<path d="M237.388 153.419L159.645 183.357C159.352 183.469 159.023 183.469 158.728 183.357L158.188 183.148V121.357L158.728 121.149C159.023 121.036 159.352 121.036 159.645 121.149L237.388 151.084C238.466 151.499 238.466 153.006 237.388 153.421V153.419Z" fill="#3B37FF"/>
<path opacity="0.75" d="M158.188 121.357V183.148L80.9847 153.419C79.9071 153.004 79.9071 151.497 80.9847 151.081L158.188 121.357Z" fill="#3B37FF"/>
<path d="M159.186 184.161C158.944 184.161 158.699 184.115 158.469 184.027L80.7257 154.091C79.9553 153.794 79.4561 153.071 79.4561 152.251C79.4561 151.43 79.9553 150.707 80.7257 150.41L158.469 120.475C158.932 120.297 159.441 120.297 159.904 120.475L237.647 150.41C238.418 150.707 238.917 151.43 238.917 152.251C238.917 153.071 238.418 153.794 237.647 154.091L159.904 184.027C159.674 184.115 159.429 184.161 159.186 184.161ZM158.987 121.821L81.2441 151.756C80.9321 151.876 80.8985 152.143 80.8985 152.253C80.8985 152.363 80.9321 152.63 81.2441 152.75L158.987 182.685C159.117 182.735 159.258 182.735 159.388 182.685L237.131 152.75C237.443 152.63 237.477 152.363 237.477 152.253C237.477 152.143 237.443 151.876 237.131 151.756L159.388 121.821C159.258 121.771 159.117 121.771 158.987 121.821Z" fill="#3B37FF"/>
<path opacity="0.75" d="M239.598 190.696V242.034C239.598 242.553 239.279 243.016 238.797 243.206L160.895 273.51C160.074 273.832 159.189 273.225 159.189 272.344V186.542C159.189 185.426 160.533 184.866 161.325 185.649L185.985 210.03C186.345 210.383 186.878 210.486 187.346 210.297L237.87 189.539C238.694 189.201 239.601 189.806 239.601 190.701L239.598 190.696Z" fill="#3B37FF"/>
<path opacity="0.5" d="M264.374 176.761C265.012 177.393 264.798 178.47 263.968 178.813L239.598 188.824L187.343 210.292C186.878 210.484 186.342 210.378 185.985 210.023L160.564 184.893C159.918 184.254 160.144 183.162 160.991 182.833L238.84 152.548C239.301 152.368 239.824 152.476 240.177 152.824L264.374 176.761Z" fill="#3B37FF"/>
<path opacity="0.5" d="M159.189 186.537V272.339C159.189 273.22 158.306 273.827 157.482 273.505L79.5809 243.201C79.0985 243.011 78.7793 242.548 78.7793 242.029V190.691C78.7793 189.798 79.6865 189.193 80.5097 189.529L131.037 210.287C131.5 210.477 132.038 210.373 132.393 210.021L157.053 185.639C157.847 184.857 159.189 185.418 159.189 186.532V186.537Z" fill="#3B37FF"/>
<path opacity="0.25" d="M54.0065 176.761C53.3681 177.393 53.5817 178.47 54.4121 178.813L78.7817 188.824L131.037 210.292C131.502 210.484 132.038 210.378 132.395 210.023L157.816 184.893C158.462 184.254 158.236 183.162 157.389 182.833L79.5401 152.548C79.0793 152.368 78.5561 152.476 78.2033 152.824L54.0065 176.761Z" fill="#3B37FF"/>
<path d="M160.442 274.312C160.05 274.312 159.662 274.195 159.328 273.967C158.79 273.599 158.469 272.99 158.469 272.337V186.535C158.469 185.723 158.934 185.025 159.681 184.713C160.43 184.401 161.253 184.559 161.829 185.131L186.491 209.51C186.645 209.661 186.87 209.704 187.07 209.625L237.594 188.867C238.204 188.618 238.895 188.687 239.445 189.055C239.992 189.422 240.318 190.034 240.318 190.694V242.032C240.318 242.853 239.824 243.575 239.061 243.873L161.159 274.178C160.926 274.269 160.684 274.312 160.444 274.312H160.442ZM160.454 185.999C160.36 185.999 160.283 186.026 160.238 186.043C160.139 186.083 159.909 186.213 159.909 186.535V272.337C159.909 272.591 160.072 272.731 160.142 272.779C160.211 272.827 160.398 272.927 160.636 272.836L238.538 242.531C238.744 242.452 238.878 242.255 238.878 242.035V190.696C238.878 190.439 238.713 190.3 238.641 190.252C238.571 190.204 238.379 190.103 238.142 190.202L187.617 210.959C186.882 211.262 186.042 211.094 185.478 210.537L160.816 186.158C160.694 186.035 160.562 185.999 160.451 185.999H160.454Z" fill="#3B37FF"/>
<path d="M186.866 211.106C186.357 211.106 185.855 210.909 185.478 210.535L160.055 185.404C159.578 184.931 159.374 184.257 159.51 183.599C159.647 182.942 160.101 182.404 160.727 182.159L238.576 151.874C239.301 151.591 240.126 151.763 240.681 152.311L264.878 176.248C265.35 176.716 265.555 177.383 265.425 178.034C265.295 178.684 264.854 179.224 264.239 179.476L187.614 210.955C187.372 211.055 187.115 211.103 186.863 211.103L186.866 211.106ZM239.294 153.182C239.229 153.182 239.164 153.194 239.102 153.218L161.253 183.503C161.008 183.599 160.941 183.808 160.924 183.892C160.907 183.979 160.886 184.197 161.07 184.379L186.494 209.51C186.647 209.661 186.873 209.704 187.072 209.625L263.694 178.147C263.934 178.048 263.999 177.842 264.016 177.755C264.033 177.671 264.052 177.455 263.867 177.273L239.671 153.335C239.57 153.235 239.433 153.182 239.294 153.182Z" fill="#3B37FF"/>
<path d="M157.936 274.312C157.694 274.312 157.451 274.269 157.221 274.178L79.3191 243.873C78.5559 243.575 78.0615 242.853 78.0615 242.032V190.694C78.0615 190.034 78.3879 189.422 78.9351 189.055C79.4823 188.687 80.1735 188.618 80.7855 188.867L131.31 209.625C131.51 209.707 131.735 209.661 131.889 209.51L156.551 185.131C157.127 184.562 157.95 184.401 158.699 184.713C159.448 185.025 159.911 185.723 159.911 186.535V272.337C159.911 272.99 159.59 273.599 159.052 273.967C158.718 274.195 158.33 274.312 157.938 274.312H157.936ZM80.0343 190.159C79.8927 190.159 79.7871 190.216 79.7367 190.25C79.6647 190.298 79.4991 190.437 79.4991 190.694V242.032C79.4991 242.253 79.6335 242.45 79.8399 242.529L157.742 272.834C157.979 272.925 158.166 272.824 158.236 272.776C158.306 272.728 158.469 272.589 158.469 272.335V186.532C158.469 186.211 158.238 186.081 158.14 186.04C158.042 185.999 157.787 185.927 157.559 186.153L132.897 210.532C132.333 211.089 131.493 211.255 130.758 210.955L80.2335 190.197C80.1615 190.168 80.0919 190.156 80.0295 190.156L80.0343 190.159Z" fill="#3B37FF"/>
<path d="M131.512 211.106C131.26 211.106 131.006 211.058 130.761 210.957L54.1384 179.478C53.524 179.226 53.08 178.686 52.9528 178.036C52.8232 177.386 53.0296 176.716 53.5 176.25L77.6968 152.313C78.2512 151.766 79.0768 151.595 79.8016 151.876L157.65 182.162C158.277 182.404 158.73 182.944 158.867 183.602C159.004 184.259 158.8 184.934 158.322 185.406L132.902 210.537C132.525 210.909 132.023 211.108 131.514 211.108L131.512 211.106ZM54.5128 177.273C54.328 177.455 54.3472 177.671 54.364 177.755C54.3808 177.839 54.4456 178.048 54.6856 178.146L131.308 209.625C131.507 209.706 131.733 209.661 131.886 209.51L157.307 184.379C157.494 184.194 157.473 183.976 157.454 183.892C157.437 183.806 157.37 183.597 157.125 183.503L79.276 153.218C79.0792 153.141 78.856 153.189 78.7072 153.335L54.5104 177.273H54.5128Z" fill="#3B37FF"/>
<path d="M144.374 256.065C144.285 256.065 144.196 256.048 144.107 256.015L82.0383 231.383C81.6687 231.237 81.4887 230.819 81.6351 230.45C81.7815 230.08 82.1991 229.9 82.5687 230.047L144.638 254.678C145.007 254.824 145.187 255.242 145.041 255.611C144.928 255.895 144.657 256.065 144.371 256.065H144.374Z" fill="#3B37FF"/>
<path d="M166.05 240.302C165.755 240.302 165.477 240.119 165.374 239.824C165.239 239.45 165.434 239.037 165.808 238.905L235.557 213.947C235.931 213.813 236.344 214.007 236.476 214.382C236.61 214.756 236.416 215.169 236.042 215.301L166.293 240.259C166.214 240.287 166.132 240.302 166.05 240.302Z" fill="#3B37FF"/>
<path d="M176.723 243.751C176.438 243.751 176.166 243.578 176.054 243.295C175.907 242.925 176.087 242.507 176.457 242.361L193.041 235.792C193.41 235.646 193.828 235.826 193.974 236.195C194.121 236.565 193.941 236.983 193.571 237.129L176.987 243.698C176.901 243.731 176.81 243.748 176.723 243.748V243.751Z" fill="#3B37FF"/>
<path opacity="0.75" d="M159.189 186.537V227.102L78.7793 194.248V190.694C78.7793 189.801 79.6865 189.196 80.5097 189.532L131.037 210.29C131.5 210.479 132.038 210.376 132.393 210.023L157.053 185.642C157.847 184.859 159.189 185.421 159.189 186.534V186.537Z" fill="#3B37FF"/>
<path d="M239.598 190.696V194.25L159.189 227.104V186.539C159.189 185.423 160.533 184.864 161.325 185.646L185.985 210.028C186.345 210.381 186.878 210.484 187.346 210.294L237.87 189.537C238.694 189.198 239.601 189.803 239.601 190.698L239.598 190.696Z" fill="#3B37FF"/>
<path opacity="0.75" d="M105.441 80.7351C105.964 81.7287 106.228 83.2263 106.228 85.2351V92.1447C106.214 94.1535 105.947 95.6271 105.419 96.5655C104.896 97.5063 104.085 97.9767 102.983 97.9767C101.882 97.9767 101.013 97.4943 100.49 96.5271C99.9664 95.5599 99.7024 94.0359 99.7024 91.9503V84.8127C99.7432 82.9455 100.012 81.5511 100.518 80.6295C101.025 79.7103 101.834 79.2495 102.945 79.2495C104.056 79.2495 104.915 79.7439 105.438 80.7351H105.441Z" fill="#3B37FF"/>
<path opacity="0.75" d="M139.883 64.2568H66.028C61.732 64.2568 58.252 67.7392 58.252 72.0328V105.806C58.252 110.102 61.7344 113.579 66.028 113.579H115.998L128.546 122.594C130.113 123.717 132.294 122.598 132.294 120.674V113.579H139.886C144.182 113.579 147.659 110.102 147.659 105.806V72.0328C147.659 67.7368 144.182 64.2568 139.886 64.2568H139.883ZM112.691 91.1656C112.691 94.9408 111.844 97.8496 110.15 99.8968C108.455 101.944 106.065 102.969 102.983 102.969C99.9016 102.969 97.4704 101.939 95.7687 99.88C94.0672 97.8184 93.2151 94.9168 93.2151 91.1656V86.0632C93.2151 82.288 94.0648 79.3792 95.7592 77.332C97.4536 75.2848 99.8487 74.2624 102.945 74.2624C106.041 74.2624 108.441 75.2896 110.142 77.3512C111.844 79.4104 112.694 82.3192 112.694 86.0824V91.1656H112.691Z" fill="#3B37FF"/>
<path d="M129.923 123.765C129.29 123.765 128.661 123.568 128.126 123.184L115.768 114.304H66.0256C61.3408 114.304 57.532 110.493 57.532 105.81V72.0351C57.532 67.3503 61.3432 63.5415 66.0256 63.5415H139.883C144.568 63.5415 148.377 67.3527 148.377 72.0351V105.81C148.377 110.495 144.566 114.304 139.883 114.304H133.01V120.676C133.01 121.84 132.366 122.891 131.332 123.421C130.886 123.649 130.403 123.765 129.921 123.765H129.923ZM66.0256 64.9791C62.1352 64.9791 58.972 68.1447 58.972 72.0327V105.808C58.972 109.698 62.1376 112.861 66.0256 112.861H116.231L128.966 122.01C129.477 122.377 130.115 122.425 130.677 122.137C131.236 121.849 131.572 121.302 131.572 120.674V112.861H139.886C143.776 112.861 146.939 109.696 146.939 105.808V72.0327C146.939 68.1423 143.774 64.9791 139.886 64.9791H66.0256Z" fill="#3B37FF"/>
<path d="M135.971 155.553C135.971 155.553 135.952 155.553 135.942 155.553C135.544 155.538 135.234 155.202 135.251 154.806C135.287 153.844 135.357 152.862 135.458 151.888C135.498 151.492 135.856 151.204 136.247 151.245C136.643 151.286 136.931 151.638 136.89 152.034C136.792 152.978 136.725 153.928 136.689 154.859C136.674 155.248 136.355 155.553 135.969 155.553H135.971ZM136.562 149.829C136.523 149.829 136.482 149.826 136.442 149.819C136.05 149.754 135.784 149.382 135.851 148.991C136.01 148.038 136.202 147.074 136.42 146.123C136.509 145.734 136.895 145.494 137.282 145.583C137.67 145.672 137.91 146.058 137.822 146.445C137.61 147.366 137.426 148.302 137.27 149.226C137.21 149.579 136.905 149.829 136.559 149.829H136.562ZM137.846 144.218C137.778 144.218 137.711 144.208 137.644 144.189C137.262 144.078 137.042 143.678 137.154 143.296C137.423 142.37 137.726 141.434 138.05 140.517C138.182 140.142 138.594 139.946 138.969 140.078C139.343 140.21 139.54 140.622 139.408 140.997C139.094 141.89 138.801 142.797 138.537 143.699C138.446 144.014 138.158 144.218 137.846 144.218ZM139.761 138.789C139.67 138.789 139.574 138.772 139.485 138.734C139.118 138.58 138.945 138.16 139.096 137.793C139.468 136.902 139.869 136.005 140.291 135.129C140.464 134.771 140.894 134.62 141.251 134.793C141.609 134.966 141.76 135.395 141.587 135.753C141.177 136.605 140.786 137.476 140.423 138.345C140.308 138.621 140.039 138.789 139.758 138.789H139.761ZM142.262 133.602C142.144 133.602 142.024 133.574 141.916 133.514C141.568 133.322 141.441 132.885 141.633 132.534C142.101 131.685 142.598 130.838 143.111 130.017C143.322 129.681 143.766 129.578 144.102 129.786C144.441 129.998 144.542 130.442 144.333 130.778C143.834 131.577 143.349 132.402 142.895 133.228C142.763 133.466 142.518 133.6 142.264 133.6L142.262 133.602ZM145.312 128.718C145.168 128.718 145.024 128.675 144.899 128.586C144.573 128.358 144.496 127.907 144.724 127.583C144.825 127.442 144.926 127.3 145.026 127.158C145.497 126.503 145.986 125.86 146.481 125.246C146.73 124.936 147.184 124.888 147.494 125.135C147.803 125.385 147.854 125.838 147.604 126.148C147.126 126.741 146.654 127.365 146.195 127.998C146.097 128.135 145.998 128.274 145.9 128.411C145.761 128.61 145.538 128.716 145.31 128.716L145.312 128.718ZM148.924 124.24C148.749 124.24 148.574 124.175 148.434 124.048C148.144 123.777 148.127 123.321 148.398 123.03C149.068 122.31 149.766 121.614 150.477 120.959C150.77 120.69 151.226 120.707 151.494 121C151.763 121.293 151.746 121.749 151.454 122.018C150.772 122.646 150.098 123.318 149.454 124.012C149.313 124.166 149.121 124.242 148.926 124.242L148.924 124.24ZM153.155 120.34C152.942 120.34 152.73 120.246 152.589 120.064C152.344 119.752 152.399 119.298 152.711 119.054C153.482 118.449 154.283 117.873 155.097 117.338C155.43 117.119 155.877 117.21 156.095 117.544C156.314 117.875 156.222 118.322 155.889 118.54C155.109 119.054 154.338 119.608 153.599 120.186C153.467 120.29 153.311 120.34 153.155 120.34ZM157.96 117.179C157.706 117.179 157.458 117.042 157.326 116.802C157.137 116.452 157.266 116.015 157.614 115.826C158.466 115.362 159.352 114.926 160.25 114.53C160.612 114.369 161.039 114.534 161.2 114.897C161.361 115.262 161.198 115.686 160.833 115.847C159.974 116.229 159.122 116.646 158.303 117.09C158.193 117.15 158.075 117.179 157.96 117.179ZM198.935 114.873C198.549 114.873 198.23 114.568 198.215 114.179C198.201 113.781 198.513 113.447 198.909 113.435C199.799 113.404 200.735 113.313 201.69 113.169C202.084 113.106 202.451 113.378 202.511 113.771C202.571 114.165 202.302 114.532 201.909 114.592C200.898 114.746 199.907 114.842 198.959 114.875C198.95 114.875 198.942 114.875 198.933 114.875L198.935 114.873ZM163.218 114.851C162.921 114.851 162.642 114.666 162.539 114.369C162.407 113.994 162.604 113.582 162.981 113.452C163.89 113.133 164.834 112.842 165.782 112.586C166.166 112.482 166.562 112.71 166.665 113.094C166.768 113.478 166.54 113.874 166.156 113.978C165.242 114.225 164.332 114.506 163.456 114.813C163.377 114.842 163.298 114.854 163.218 114.854V114.851ZM196.06 114.77C196.034 114.77 196.005 114.77 195.978 114.765C194.946 114.647 193.955 114.441 193.029 114.153C192.65 114.035 192.438 113.63 192.556 113.25C192.674 112.871 193.077 112.66 193.458 112.778C194.296 113.039 195.198 113.226 196.142 113.334C196.538 113.38 196.821 113.735 196.775 114.131C196.734 114.498 196.422 114.77 196.06 114.77ZM204.623 114.035C204.297 114.035 204.002 113.812 203.922 113.481C203.831 113.094 204.069 112.706 204.455 112.614C205.367 112.398 206.286 112.149 207.191 111.873C207.57 111.755 207.974 111.971 208.091 112.35C208.206 112.73 207.993 113.133 207.614 113.25C206.682 113.536 205.732 113.793 204.791 114.016C204.736 114.03 204.678 114.035 204.623 114.035ZM168.772 113.351C168.434 113.351 168.134 113.114 168.066 112.77C167.99 112.379 168.244 112.002 168.633 111.926C169.307 111.794 170.001 111.674 170.694 111.57C170.966 111.53 171.237 111.491 171.513 111.453C171.906 111.398 172.271 111.671 172.326 112.067C172.382 112.463 172.108 112.826 171.714 112.881C171.446 112.919 171.177 112.958 170.91 112.996C170.238 113.097 169.566 113.212 168.914 113.342C168.866 113.351 168.82 113.356 168.774 113.356L168.772 113.351ZM190.614 113.03C190.49 113.03 190.365 112.998 190.25 112.931C189.726 112.624 189.222 112.278 188.752 111.902C188.435 111.647 188.123 111.371 187.826 111.083C187.54 110.805 187.535 110.349 187.811 110.066C188.09 109.78 188.546 109.775 188.829 110.051C189.09 110.308 189.369 110.55 189.65 110.776C190.067 111.11 190.514 111.417 190.977 111.688C191.32 111.89 191.435 112.331 191.234 112.674C191.099 112.902 190.859 113.03 190.612 113.03H190.614ZM174.47 112.509C174.112 112.509 173.802 112.242 173.757 111.88C173.706 111.486 173.987 111.124 174.381 111.076C175.259 110.966 176.258 110.838 177.227 110.702C177.621 110.646 177.986 110.92 178.041 111.316C178.096 111.71 177.822 112.074 177.429 112.13C176.45 112.266 175.446 112.394 174.563 112.506C174.532 112.511 174.503 112.511 174.472 112.511L174.47 112.509ZM210.131 112.353C209.841 112.353 209.565 112.175 209.457 111.885C209.318 111.513 209.507 111.098 209.879 110.958C210.76 110.63 211.641 110.267 212.502 109.883C212.865 109.72 213.292 109.883 213.453 110.248C213.614 110.613 213.453 111.038 213.088 111.198C212.2 111.594 211.29 111.969 210.383 112.307C210.299 112.338 210.215 112.353 210.131 112.353ZM180.172 111.686C179.831 111.686 179.526 111.441 179.464 111.093C179.394 110.702 179.654 110.327 180.045 110.258C181.053 110.078 181.96 109.886 182.819 109.674C183.206 109.578 183.594 109.816 183.69 110.202C183.786 110.589 183.549 110.978 183.162 111.074C182.274 111.292 181.336 111.489 180.299 111.676C180.256 111.683 180.213 111.688 180.172 111.688V111.686ZM185.754 110.282C185.457 110.282 185.178 110.094 185.075 109.799C184.946 109.425 185.142 109.014 185.519 108.882C185.651 108.837 185.781 108.791 185.91 108.743C185.373 107.927 184.9 107.034 184.499 106.086C184.346 105.719 184.516 105.297 184.883 105.143C185.248 104.99 185.673 105.16 185.826 105.527C186.191 106.394 186.626 107.21 187.113 107.951C187.168 108.035 187.204 108.126 187.221 108.218C187.521 108.086 187.811 107.951 188.094 107.81C188.45 107.632 188.882 107.778 189.059 108.134C189.237 108.489 189.09 108.921 188.735 109.098C187.888 109.518 186.966 109.902 185.997 110.243C185.918 110.27 185.838 110.284 185.759 110.284L185.754 110.282ZM215.39 110.01C215.13 110.01 214.878 109.869 214.751 109.622C214.569 109.269 214.706 108.834 215.058 108.65C215.894 108.215 216.726 107.75 217.535 107.267C217.876 107.063 218.318 107.174 218.522 107.514C218.726 107.855 218.615 108.297 218.274 108.501C217.442 109 216.582 109.478 215.723 109.926C215.618 109.982 215.502 110.008 215.392 110.008L215.39 110.01ZM190.881 107.704C190.655 107.704 190.434 107.598 190.293 107.402C190.062 107.078 190.139 106.629 190.463 106.398C190.691 106.235 190.917 106.067 191.133 105.894C191.627 105.503 192.093 105.071 192.515 104.61C192.784 104.318 193.24 104.298 193.533 104.567C193.826 104.836 193.845 105.292 193.576 105.585C193.101 106.101 192.58 106.586 192.026 107.025C191.79 107.212 191.543 107.397 191.296 107.572C191.169 107.661 191.025 107.704 190.881 107.704ZM220.331 107.056C220.101 107.056 219.875 106.946 219.736 106.742C219.513 106.413 219.597 105.964 219.926 105.741C220.706 105.21 221.478 104.649 222.222 104.075C222.537 103.833 222.99 103.89 223.233 104.205C223.475 104.519 223.418 104.973 223.103 105.215C222.335 105.806 221.541 106.384 220.737 106.931C220.612 107.015 220.47 107.056 220.331 107.056ZM184.259 103.792C183.935 103.792 183.642 103.574 183.561 103.245C183.333 102.33 183.141 101.33 182.999 100.346C182.944 99.9521 183.218 99.5873 183.611 99.5321C184.002 99.4769 184.37 99.7481 184.425 100.144C184.559 101.08 184.744 102.033 184.958 102.899C185.054 103.286 184.818 103.677 184.432 103.77C184.374 103.785 184.314 103.792 184.257 103.792H184.259ZM224.889 103.54C224.687 103.54 224.488 103.456 224.344 103.293C224.082 102.993 224.116 102.537 224.416 102.278C225.126 101.661 225.827 101.013 226.502 100.353C226.785 100.074 227.241 100.079 227.519 100.365C227.798 100.648 227.793 101.104 227.51 101.382C226.816 102.062 226.094 102.726 225.362 103.365C225.225 103.482 225.057 103.542 224.889 103.542V103.54ZM194.735 103.49C194.615 103.49 194.495 103.461 194.382 103.396C194.037 103.202 193.914 102.762 194.109 102.414C194.553 101.625 194.906 100.785 195.155 99.9185C195.266 99.5369 195.664 99.3161 196.046 99.4265C196.427 99.5369 196.648 99.9353 196.538 100.317C196.257 101.291 195.861 102.234 195.362 103.12C195.23 103.355 194.985 103.487 194.733 103.487L194.735 103.49ZM229.002 99.5129C228.83 99.5129 228.657 99.4505 228.52 99.3257C228.225 99.0593 228.203 98.6033 228.47 98.3081C229.103 97.6097 229.722 96.8825 230.31 96.1505C230.56 95.8409 231.011 95.7905 231.323 96.0401C231.633 96.2897 231.683 96.7409 231.434 97.0529C230.829 97.8089 230.19 98.5553 229.538 99.2753C229.396 99.4313 229.199 99.5129 229.005 99.5129H229.002ZM183.453 98.0969C183.066 98.0969 182.747 97.7921 182.733 97.4009C182.723 97.1321 182.718 96.8609 182.718 96.5897C182.718 95.8289 182.757 95.0993 182.836 94.4177C182.882 94.0217 183.239 93.7385 183.633 93.7841C184.029 93.8297 184.312 94.1849 184.266 94.5809C184.194 95.2097 184.158 95.8841 184.158 96.5897C184.158 96.8441 184.163 97.0961 184.173 97.3505C184.187 97.7489 183.875 98.0825 183.479 98.0945C183.47 98.0945 183.462 98.0945 183.453 98.0945V98.0969ZM196.312 98.0033C196.312 98.0033 196.29 98.0033 196.278 98.0033C195.88 97.9865 195.573 97.6481 195.592 97.2521C195.599 97.0817 195.604 96.9089 195.604 96.7361C195.604 96.1217 195.554 95.5001 195.455 94.8905C195.438 94.7849 195.419 94.6769 195.395 94.5689C195.311 94.1801 195.561 93.7985 195.95 93.7145C196.338 93.6305 196.72 93.8801 196.804 94.2689C196.833 94.4009 196.857 94.5305 196.878 94.6601C196.989 95.3465 197.046 96.0449 197.046 96.7361C197.046 96.9305 197.042 97.1249 197.034 97.3169C197.018 97.7033 196.698 98.0057 196.314 98.0057L196.312 98.0033ZM232.602 95.0201C232.458 95.0201 232.314 94.9769 232.187 94.8881C231.863 94.6577 231.784 94.2089 232.014 93.8849C232.559 93.1121 233.085 92.3177 233.577 91.5209C233.786 91.1825 234.23 91.0769 234.568 91.2857C234.906 91.4945 235.012 91.9385 234.803 92.2769C234.297 93.1001 233.754 93.9209 233.193 94.7177C233.054 94.9169 232.83 95.0225 232.605 95.0225L232.602 95.0201ZM195.066 92.4593C194.814 92.4593 194.57 92.3273 194.438 92.0897C193.991 91.2881 193.434 90.5561 192.83 89.9681C192.544 89.6921 192.539 89.2361 192.815 88.9505C193.094 88.6649 193.55 88.6601 193.833 88.9361C194.536 89.6201 195.179 90.4673 195.695 91.3889C195.89 91.7369 195.765 92.1737 195.417 92.3681C195.306 92.4305 195.184 92.4593 195.066 92.4593ZM184.18 92.4161C184.098 92.4161 184.014 92.4017 183.933 92.3705C183.558 92.2337 183.369 91.8209 183.506 91.4465C183.902 90.3665 184.451 89.4593 185.138 88.7465C185.414 88.4609 185.87 88.4513 186.155 88.7273C186.441 89.0033 186.45 89.4593 186.174 89.7449C185.627 90.3113 185.183 91.0505 184.857 91.9409C184.749 92.2313 184.475 92.4137 184.18 92.4137V92.4161ZM235.619 90.1217C235.506 90.1217 235.389 90.0953 235.281 90.0377C234.93 89.8505 234.796 89.4161 234.983 89.0633C235.041 88.9553 235.098 88.8473 235.154 88.7393C235.338 88.3865 235.773 88.2497 236.126 88.4345C236.478 88.6193 236.615 89.0537 236.43 89.4065C236.373 89.5193 236.313 89.6297 236.255 89.7425C236.126 89.9849 235.876 90.1241 235.619 90.1241V90.1217ZM190.929 88.6217C190.85 88.6217 190.768 88.6073 190.689 88.5809C189.892 88.3001 189.083 88.2689 188.289 88.4873C187.905 88.5929 187.509 88.3673 187.403 87.9857C187.298 87.6017 187.523 87.2057 187.905 87.1001C188.98 86.8025 190.094 86.8457 191.166 87.2249C191.541 87.3569 191.738 87.7697 191.606 88.1441C191.502 88.4393 191.224 88.6241 190.926 88.6241L190.929 88.6217Z" fill="#3B37FF"/>
<path d="M253.242 76.7102C255.68 74.63 254.114 68.7911 249.743 63.6686C245.373 58.5462 239.854 56.08 237.415 58.1602C234.977 60.2404 236.544 66.0793 240.914 71.2018C245.284 76.3242 250.804 78.7904 253.242 76.7102Z" fill="#3B37FF"/>
<path opacity="0.5" d="M251.67 84.5183C257.181 80.6494 259.646 74.661 257.176 71.1429C254.706 67.6247 248.237 67.9091 242.726 71.778C237.215 75.6469 234.749 81.6352 237.219 85.1534C239.689 88.6715 246.159 88.3872 251.67 84.5183Z" fill="#3B37FF"/>
<path d="M242.833 88.3194C240.184 88.3194 237.923 87.4098 236.632 85.5714C233.937 81.7338 236.488 75.2826 242.315 71.193C248.142 67.1034 255.076 66.897 257.769 70.7346C260.464 74.5722 257.913 81.0234 252.085 85.113C249.049 87.2442 245.713 88.3218 242.833 88.3218V88.3194ZM243.141 72.3714C237.964 76.005 235.571 81.5562 237.81 84.7434C240.049 87.9306 246.081 87.5682 251.257 83.9322C256.434 80.2986 258.827 74.7474 256.588 71.5602C254.351 68.373 248.317 68.7354 243.141 72.3714Z" fill="#3B37FF"/>
<path d="M247.305 80.0848C245.38 80.0848 243.234 79.792 241.012 79.1752C237.772 78.2776 234.885 76.8256 232.878 75.0856C230.73 73.2208 229.818 71.2168 230.31 69.4408C230.802 67.6648 232.617 66.4144 235.418 65.9224C238.034 65.464 241.257 65.704 244.497 66.6016C251.474 68.536 256.175 72.8128 255.198 76.336C254.534 78.7384 251.426 80.0824 247.305 80.0824V80.0848ZM238.202 67.1344C237.306 67.1344 236.454 67.204 235.667 67.3408C233.476 67.7248 232.031 68.632 231.7 69.8248C231.369 71.0176 232.144 72.5392 233.824 73.996C235.672 75.5992 238.36 76.9456 241.398 77.7856C248.01 79.6192 253.156 78.316 253.811 75.952C254.466 73.5856 250.727 69.8224 244.113 67.9888C242.07 67.4224 240.042 67.132 238.202 67.132V67.1344Z" fill="#3B37FF"/>
<path d="M91.5016 135.213C91.384 135.213 91.2664 135.184 91.156 135.124L71.9992 124.614C71.6512 124.422 71.524 123.986 71.7136 123.638C71.9032 123.29 72.3424 123.162 72.6904 123.352L91.8472 133.862C92.1952 134.054 92.3224 134.49 92.1328 134.838C92.0032 135.076 91.756 135.213 91.5016 135.213Z" fill="#3B37FF"/>
<path d="M96.8656 131.819C96.6304 131.819 96.4024 131.704 96.2632 131.495L91.4464 124.161C91.228 123.827 91.3216 123.381 91.6528 123.165C91.984 122.947 92.4328 123.04 92.6488 123.371L97.4656 130.706C97.684 131.039 97.5904 131.486 97.2592 131.702C97.1368 131.781 97 131.819 96.8656 131.819Z" fill="#3B37FF"/>
<path d="M218.841 131.819C218.692 131.819 218.541 131.774 218.411 131.678C218.092 131.44 218.025 130.989 218.262 130.67L242.178 98.5146C242.416 98.1954 242.867 98.1306 243.186 98.3658C243.506 98.6034 243.573 99.0546 243.335 99.3738L219.419 131.529C219.278 131.719 219.062 131.819 218.841 131.819Z" fill="#3B37FF"/>
<path d="M222.534 133.653C222.302 133.653 222.074 133.54 221.934 133.331C221.714 133 221.805 132.554 222.134 132.333L230.397 126.832C230.728 126.611 231.174 126.703 231.395 127.031C231.616 127.363 231.525 127.809 231.196 128.03L222.933 133.531C222.81 133.612 222.671 133.651 222.534 133.651V133.653Z" fill="#3B37FF"/>
<path d="M227.706 138.825C227.358 138.825 227.053 138.573 226.996 138.22C226.933 137.826 227.2 137.457 227.591 137.394L250.005 133.783C250.398 133.72 250.768 133.986 250.83 134.378C250.893 134.771 250.626 135.141 250.235 135.203L227.821 138.815C227.783 138.823 227.745 138.825 227.706 138.825Z" fill="#3B37FF"/>
<path opacity="0.5" d="M64.3144 230.714C67.6625 230.714 70.3768 227.999 70.3768 224.651C70.3768 221.303 67.6625 218.589 64.3144 218.589C60.9662 218.589 58.252 221.303 58.252 224.651C58.252 227.999 60.9662 230.714 64.3144 230.714Z" fill="#3B37FF"/>
<path d="M91.132 259.778C93.1043 259.778 94.7032 258.179 94.7032 256.206C94.7032 254.234 93.1043 252.635 91.132 252.635C89.1597 252.635 87.5608 254.234 87.5608 256.206C87.5608 258.179 89.1597 259.778 91.132 259.778Z" fill="#3B37FF"/>
<path d="M256.782 211.996C262.075 211.996 266.366 207.705 266.366 202.413C266.366 197.12 262.075 192.83 256.782 192.83C251.49 192.83 247.199 197.12 247.199 202.413C247.199 207.705 251.49 211.996 256.782 211.996Z" fill="#3B37FF"/>
<path d="M203.702 246.883C206.081 246.883 208.01 244.954 208.01 242.575C208.01 240.195 206.081 238.267 203.702 238.267C201.322 238.267 199.394 240.195 199.394 242.575C199.394 244.954 201.322 246.883 203.702 246.883Z" fill="#3B37FF"/>
<path opacity="0.5" d="M199.149 273.594C201.83 273.594 204.004 271.42 204.004 268.739C204.004 266.058 201.83 263.884 199.149 263.884C196.467 263.884 194.293 266.058 194.293 268.739C194.293 271.42 196.467 273.594 199.149 273.594Z" fill="#3B37FF"/>
<g opacity="0.25">
<path d="M91.132 252.635C92.9296 252.635 94.4152 253.967 94.6624 255.695H109.293L79.2616 244.012C78.4384 243.69 77.908 242.915 77.908 242.032V213.834H60.928C49.3696 213.834 39.9976 223.206 39.9976 234.765C39.9976 240.544 42.34 245.776 46.1272 249.563C49.9168 253.353 55.1464 255.693 60.9256 255.693H87.5968C87.844 253.962 89.3296 252.633 91.1272 252.633L91.132 252.635ZM64.3144 230.714C60.9664 230.714 58.252 227.999 58.252 224.651C58.252 221.303 60.9664 218.589 64.3144 218.589C67.6624 218.589 70.3768 221.303 70.3768 224.651C70.3768 227.999 67.6624 230.714 64.3144 230.714Z" fill="#3B37FF"/>
<path d="M259.069 213.837H240.467V242.035C240.467 242.918 239.937 243.693 239.113 244.015L209.082 255.698H259.067C270.625 255.698 279.997 246.326 279.997 234.767C279.997 228.988 277.655 223.756 273.868 219.969C270.081 216.182 264.849 213.839 259.069 213.839V213.837Z" fill="#3B37FF"/>
<path d="M159.345 184.305C159.292 184.31 159.239 184.312 159.186 184.312C159.133 184.312 159.083 184.31 159.033 184.305C159.016 184.43 158.985 184.555 158.946 184.675C159.03 184.72 159.112 184.773 159.189 184.828C159.265 184.773 159.347 184.72 159.431 184.675C159.39 184.555 159.361 184.432 159.345 184.305Z" fill="#3B37FF"/>
<path d="M102.983 102.969C106.067 102.969 108.455 101.944 110.149 99.8971C111.844 97.8499 112.691 94.9411 112.691 91.1659V86.0827C112.691 82.3195 111.841 79.4107 110.14 77.3515C108.438 75.2899 106.038 74.2627 102.942 74.2627C99.8462 74.2627 97.4534 75.2851 95.7566 77.3323C94.0622 79.3795 93.2126 82.2883 93.2126 86.0635V91.1659C93.2126 94.9171 94.0646 97.8187 95.7662 99.8803C97.4678 101.939 99.8703 102.969 102.981 102.969H102.983ZM99.6998 84.8155C99.7406 82.9483 100.009 81.5539 100.516 80.6323C101.022 79.7131 101.831 79.2523 102.942 79.2523C104.053 79.2523 104.913 79.7467 105.436 80.7379C105.959 81.7315 106.223 83.2291 106.223 85.2379V92.1475C106.209 94.1563 105.942 95.6299 105.414 96.5683C104.891 97.5091 104.08 97.9795 102.978 97.9795C101.877 97.9795 101.008 97.4971 100.485 96.5299C99.9614 95.5627 99.6974 94.0387 99.6974 91.9531V84.8155H99.6998Z" fill="#3B37FF"/>
<path d="M259.07 130.123H228.326L223.017 133.658C222.868 133.756 222.7 133.804 222.534 133.804C222.254 133.804 221.978 133.667 221.81 133.415C221.543 133.015 221.651 132.475 222.052 132.208L225.184 130.123H220.65L219.539 131.618C219.369 131.848 219.105 131.968 218.841 131.968C218.661 131.968 218.478 131.913 218.322 131.795C217.936 131.507 217.857 130.963 218.142 130.576L218.481 130.12H190.523C184.744 130.12 179.512 127.778 175.725 123.991C172.857 121.123 170.822 117.427 169.998 113.294C169.029 113.459 168.069 113.651 167.142 113.877C167.073 113.894 167.003 113.901 166.936 113.901C166.542 113.901 166.187 113.635 166.091 113.236C165.978 112.768 166.264 112.298 166.732 112.185C167.706 111.947 168.712 111.743 169.732 111.568C169.643 110.788 169.593 109.996 169.593 109.192C169.593 99.1674 176.646 90.7914 186.059 88.7442C185.836 88.3314 185.978 87.8154 186.386 87.5778C186.698 87.3954 187.031 87.2394 187.377 87.1098C188.342 86.7498 189.345 86.6586 190.326 86.8386C190.799 86.925 191.114 87.3786 191.027 87.8514C190.998 88.0098 190.926 88.149 190.828 88.2618H235.482C235.682 88.185 235.905 88.1802 236.114 88.2618H240.638C238.866 87.8706 237.443 86.985 236.51 85.6554C235.139 83.7018 235.019 81.0786 236.178 78.2682C236.27 78.0474 236.37 77.8266 236.476 77.6058C232.024 75.3786 229.401 72.1674 230.169 69.3978C230.802 67.1082 233.582 65.7522 237.33 65.5674C235.936 62.3394 235.857 59.4786 237.414 58.1514C239.853 56.0706 245.373 58.5378 249.743 63.6594C250.926 65.0466 251.903 66.4866 252.652 67.8906C254.879 68.1114 256.756 69.0234 257.894 70.6458C259.264 72.5994 259.384 75.2226 258.225 78.033C257.123 80.7114 254.973 83.2674 252.174 85.233C249.964 86.7858 247.542 87.8274 245.198 88.2618H259.072C270.63 88.2618 280.002 78.8922 280.002 67.3362C280.002 61.557 277.66 56.325 273.873 52.5378C270.083 48.7482 264.854 46.4082 259.074 46.4082H60.9303C49.3719 46.4058 39.9999 55.7778 39.9999 67.3362C39.9999 73.1154 42.3423 78.3474 46.1295 82.1322C49.1247 85.1274 53.0223 87.213 57.3783 87.957V72.033C57.3783 67.2666 61.2567 63.3882 66.0231 63.3882H139.881C144.647 63.3882 148.526 67.2666 148.526 72.033V105.808C148.526 110.575 144.647 114.453 139.881 114.453H133.158V120.676C133.158 121.895 132.484 122.999 131.399 123.556C130.931 123.796 130.425 123.916 129.921 123.916C129.256 123.916 128.598 123.71 128.034 123.307L115.715 114.455H84.6855C83.5143 118.982 80.8623 122.908 77.2815 125.702L91.9167 133.73C92.3391 133.96 92.4927 134.491 92.2599 134.913C92.1015 135.201 91.8039 135.364 91.4967 135.364C91.3551 135.364 91.2111 135.331 91.0791 135.256L75.6999 126.82C72.4431 128.908 68.5767 130.123 64.4223 130.123H60.9255C49.3671 130.123 39.9951 139.492 39.9951 151.048C39.9951 156.827 42.3375 162.062 46.1247 165.847C49.2231 168.945 53.2887 171.074 57.8271 171.748L77.5839 152.205C78.0663 151.727 78.7431 151.521 79.3959 151.622C79.5831 151.012 80.0415 150.513 80.6655 150.271L148.674 124.084C148.614 124.051 148.554 124.01 148.502 123.962C148.151 123.633 148.134 123.081 148.466 122.731C149.286 121.862 150.146 121.027 151.026 120.254C151.386 119.937 151.938 119.971 152.255 120.333C152.572 120.693 152.538 121.245 152.176 121.562C151.473 122.181 150.782 122.843 150.112 123.532L158.406 120.338C158.906 120.146 159.453 120.146 159.952 120.338L237.695 150.273C238.319 150.513 238.778 151.015 238.965 151.624C239.62 151.523 240.297 151.73 240.782 152.207L260.699 171.911C271.492 171.076 279.993 162.062 279.993 151.051C279.993 145.271 277.65 140.039 273.863 136.255C270.074 132.465 264.844 130.125 259.065 130.125L259.07 130.123ZM97.3431 131.827C97.1967 131.923 97.0311 131.971 96.8655 131.971C96.5823 131.971 96.3039 131.831 96.1359 131.577L91.3191 124.243C91.0551 123.842 91.1679 123.302 91.5687 123.038C91.9695 122.774 92.5095 122.887 92.7735 123.287L97.5903 130.622C97.8543 131.023 97.7415 131.563 97.3407 131.827H97.3431ZM157.689 117.609C156.714 118.171 155.754 118.787 154.838 119.445C154.684 119.555 154.506 119.608 154.331 119.608C154.06 119.608 153.794 119.483 153.623 119.246C153.342 118.855 153.431 118.312 153.822 118.031C154.787 117.338 155.795 116.687 156.822 116.099C157.24 115.859 157.77 116.003 158.01 116.421C158.25 116.839 158.106 117.369 157.689 117.609ZM163.874 114.825C162.794 115.192 161.728 115.61 160.71 116.066C160.595 116.119 160.473 116.143 160.355 116.143C160.022 116.143 159.705 115.951 159.561 115.629C159.364 115.19 159.561 114.676 159.998 114.477C161.066 113.997 162.182 113.56 163.314 113.174C163.77 113.02 164.265 113.263 164.418 113.719C164.572 114.175 164.33 114.669 163.874 114.823V114.825ZM250.259 135.352L227.846 138.964C227.798 138.971 227.752 138.976 227.706 138.976C227.286 138.976 226.917 138.671 226.847 138.244C226.77 137.769 227.094 137.323 227.567 137.246L249.981 133.634C250.456 133.557 250.902 133.879 250.979 134.354C251.056 134.829 250.732 135.275 250.259 135.352Z" fill="#3B37FF"/>
</g>
</g>
</svg>
