<svg width="228" height="180" viewBox="0 0 228 180" fill="none" xmlns="http://www.w3.org/2000/svg">
<g id="Emptybox">
<path id="Vector" d="M118.549 148.955C151.036 148.955 177.371 122.56 177.371 90C177.371 57.4399 151.036 31.0447 118.549 31.0447C86.0624 31.0447 59.7268 57.4399 59.7268 90C59.7268 122.56 86.0624 148.955 118.549 148.955Z" fill="#DFDEF6"/>
<path id="Vector_2" d="M198.038 77.6614V71.2947C198.038 70.0806 197.557 68.9163 196.701 68.0578C195.844 67.1993 194.682 66.7171 193.471 66.7171H177.35C176.139 66.7171 174.977 66.2348 174.12 65.3763C173.264 64.5178 172.783 63.3535 172.783 62.1394V55.7727C172.783 54.5587 173.264 53.3943 174.12 52.5358C174.977 51.6774 176.139 51.1951 177.35 51.1951H177.859C179.07 51.1951 180.232 50.7128 181.089 49.8543C181.945 48.9958 182.426 47.8315 182.426 46.6174V40.2507C182.426 39.0367 181.945 37.8723 181.089 37.0139C180.232 36.1554 179.07 35.6731 177.859 35.6731H60.7304C59.5191 35.6731 58.3574 36.1554 57.5008 37.0139C56.6443 37.8723 56.1631 39.0367 56.1631 40.2507V46.6174C56.1631 47.8315 56.6443 48.9958 57.5008 49.8543C58.3574 50.7128 59.5191 51.1951 60.7304 51.1951C61.9418 51.1951 63.1035 51.6774 63.96 52.5358C64.8165 53.3943 65.2978 54.5587 65.2978 55.7727V62.1394C65.2978 63.3535 64.8165 64.5178 63.96 65.3763C63.1035 66.2348 61.9418 66.7171 60.7304 66.7171H43.0682C41.8569 66.7171 40.6952 67.1994 39.8386 68.0578C38.9821 68.9163 38.5009 70.0807 38.5009 71.2947V77.6614C38.5009 78.8755 38.9821 80.0398 39.8386 80.8983C40.6952 81.7568 41.8569 82.2391 43.0682 82.2391H49.9986C50.5984 82.2391 51.1923 82.3575 51.7464 82.5875C52.3006 82.8175 52.8041 83.1547 53.2282 83.5798C53.6523 84.0049 53.9887 84.5095 54.2183 85.0649C54.4478 85.6203 54.5659 86.2155 54.5659 86.8167V93.1834C54.5659 94.3975 54.0847 95.5618 53.2282 96.4203C52.3717 97.2788 51.2099 97.7611 49.9986 97.7611H49.9819C48.7705 97.7611 47.6088 98.2433 46.7523 99.1018C45.8957 99.9603 45.4145 101.125 45.4145 102.339V108.705C45.4145 109.919 45.8957 111.084 46.7523 111.942C47.6088 112.801 48.7705 113.283 49.9819 113.283H50.9845C51.5843 113.283 52.1782 113.401 52.7324 113.631C53.2865 113.862 53.79 114.199 54.2141 114.624C54.6382 115.049 54.9747 115.553 55.2042 116.109C55.4337 116.664 55.5519 117.26 55.5519 117.861V124.227C55.5519 125.441 55.0706 126.606 54.2141 127.464C53.3576 128.323 52.1959 128.805 50.9845 128.805H34.5287C33.3174 128.805 32.1557 129.287 31.2992 130.146C30.4426 131.004 29.9614 132.169 29.9614 133.383V139.749C29.9614 140.963 30.4426 142.128 31.2992 142.986C32.1557 143.845 33.3174 144.327 34.5287 144.327H180.311C181.522 144.327 182.684 143.845 183.541 142.986C184.397 142.128 184.878 140.963 184.878 139.749V133.383C184.878 132.169 184.397 131.004 183.541 130.146C182.684 129.287 181.522 128.805 180.311 128.805H176.351C175.14 128.805 173.978 128.323 173.121 127.464C172.265 126.606 171.784 125.441 171.784 124.227V117.861C171.784 116.647 172.265 115.482 173.121 114.624C173.978 113.765 175.14 113.283 176.351 113.283H185.689C186.9 113.283 188.062 112.801 188.918 111.942C189.775 111.084 190.256 109.919 190.256 108.705V102.339C190.256 101.125 189.775 99.9603 188.918 99.1018C188.062 98.2433 186.9 97.7611 185.689 97.7611H182.856C181.645 97.7611 180.483 97.2788 179.626 96.4203C178.77 95.5618 178.289 94.3975 178.289 93.1834V86.8167C178.289 85.6026 178.77 84.4383 179.626 83.5798C180.483 82.7213 181.645 82.239 182.856 82.239H193.471C194.682 82.239 195.844 81.7568 196.701 80.8983C197.557 80.0398 198.038 78.8755 198.038 77.6614Z" fill="#DFDEF6"/>
<path id="Vector_3" d="M134.967 32.3997H146.298" stroke="#B9DBDB" stroke-width="3" stroke-miterlimit="10" stroke-linecap="round"/>
<path id="Vector_4" d="M134.967 35.6731H146.298" stroke="#B9DBDB" stroke-width="3" stroke-miterlimit="10" stroke-linecap="round"/>
<path id="Vector_5" d="M134.967 38.9465H146.298" stroke="#B9DBDB" stroke-width="3" stroke-miterlimit="10" stroke-linecap="round"/>
<path id="Vector_6" d="M41.7952 101.921H53.1261" stroke="#B9DBDB" stroke-width="3" stroke-miterlimit="10" stroke-linecap="round"/>
<path id="Vector_7" d="M41.7952 105.194H53.1261" stroke="#B9DBDB" stroke-width="3" stroke-miterlimit="10" stroke-linecap="round"/>
<path id="Vector_8" d="M41.7952 108.467H53.1261" stroke="#B9DBDB" stroke-width="3" stroke-miterlimit="10" stroke-linecap="round"/>
<path id="Vector_9" d="M177.371 131.919H188.702" stroke="#B9DBDB" stroke-width="3" stroke-miterlimit="10" stroke-linecap="round"/>
<path id="Vector_10" d="M177.371 135.192H188.702" stroke="#B9DBDB" stroke-width="3" stroke-miterlimit="10" stroke-linecap="round"/>
<path id="Vector_11" d="M177.371 138.465H188.702" stroke="#B9DBDB" stroke-width="3" stroke-miterlimit="10" stroke-linecap="round"/>
<path id="Vector_12" d="M191.794 75.9917C194.468 75.9917 196.637 73.8185 196.637 71.1377C196.637 68.4569 194.468 66.2837 191.794 66.2837C189.119 66.2837 186.95 68.4569 186.95 71.1377C186.95 73.8185 189.119 75.9917 191.794 75.9917Z" fill="#B9DBDB"/>
<path id="Vector_13" d="M179.013 77.1577C180.4 77.1577 181.524 76.0309 181.524 74.6409C181.524 73.2508 180.4 72.124 179.013 72.124C177.626 72.124 176.502 73.2508 176.502 74.6409C176.502 76.0309 177.626 77.1577 179.013 77.1577Z" fill="#B9DBDB"/>
<path id="Vector_14" d="M185.39 62.8559C187.371 62.8559 188.977 61.246 188.977 59.2601C188.977 57.2742 187.371 55.6643 185.39 55.6643C183.408 55.6643 181.802 57.2742 181.802 59.2601C181.802 61.246 183.408 62.8559 185.39 62.8559Z" fill="#B9DBDB"/>
<path id="Vector_15" d="M57.6594 142.675C60.8419 142.675 63.4218 140.089 63.4218 136.899C63.4218 133.71 60.8419 131.124 57.6594 131.124C54.4769 131.124 51.897 133.71 51.897 136.899C51.897 140.089 54.4769 142.675 57.6594 142.675Z" fill="#B9DBDB"/>
<path id="Vector_16" d="M46.2655 142.789C47.9232 142.789 49.267 141.442 49.267 139.781C49.267 138.119 47.9232 136.772 46.2655 136.772C44.6078 136.772 43.2639 138.119 43.2639 139.781C43.2639 141.442 44.6078 142.789 46.2655 142.789Z" fill="#B9DBDB"/>
<path id="Vector_17" d="M42.7402 131.529C43.6964 131.529 44.4716 130.753 44.4716 129.794C44.4716 128.836 43.6964 128.059 42.7402 128.059C41.784 128.059 41.0088 128.836 41.0088 129.794C41.0088 130.753 41.784 131.529 42.7402 131.529Z" fill="#B9DBDB"/>
<path id="Vector_18" d="M51.325 129.509C53.6173 129.509 55.4756 127.647 55.4756 125.349C55.4756 123.052 53.6173 121.189 51.325 121.189C49.0326 121.189 47.1743 123.052 47.1743 125.349C47.1743 127.647 49.0326 129.509 51.325 129.509Z" fill="#B9DBDB"/>
<path id="Vector_19" d="M87.8432 53.3991C91.0258 53.3991 93.6057 50.8133 93.6057 47.6236C93.6057 44.4339 91.0258 41.8481 87.8432 41.8481C84.6607 41.8481 82.0808 44.4339 82.0808 47.6236C82.0808 50.8133 84.6607 53.3991 87.8432 53.3991Z" fill="#B9DBDB"/>
<path id="Vector_20" d="M88.0767 38.8565C89.7344 38.8565 91.0783 37.5096 91.0783 35.8482C91.0783 34.1867 89.7344 32.8398 88.0767 32.8398C86.419 32.8398 85.0752 34.1867 85.0752 35.8482C85.0752 37.5096 86.419 38.8565 88.0767 38.8565Z" fill="#B9DBDB"/>
<path id="Vector_21" d="M108.069 40.2095C109.503 40.2095 110.667 39.0438 110.667 37.6059C110.667 36.1679 109.503 35.0022 108.069 35.0022C106.634 35.0022 105.471 36.1679 105.471 37.6059C105.471 39.0438 106.634 40.2095 108.069 40.2095Z" fill="#B9DBDB"/>
<path id="Vector_22" d="M98.6176 36.811C99.5739 36.811 100.349 36.034 100.349 35.0756C100.349 34.1173 99.5739 33.3403 98.6176 33.3403C97.6614 33.3403 96.8862 34.1173 96.8862 35.0756C96.8862 36.034 97.6614 36.811 98.6176 36.811Z" fill="#B9DBDB"/>
<path id="Vector_23" d="M100.63 48.7075C102.922 48.7075 104.78 46.845 104.78 44.5475C104.78 42.25 102.922 40.3875 100.63 40.3875C98.3373 40.3875 96.479 42.25 96.479 44.5475C96.479 46.845 98.3373 48.7075 100.63 48.7075Z" fill="#B9DBDB"/>
<path id="Vector_24" d="M169.759 102.502L131.452 123.183V76.2711L169.759 64.2849V102.502Z" fill="#E08114"/>
<path id="Vector_25" d="M131.452 76.2712L86.2304 71.6861L76.9625 57.9819C76.8552 57.8233 76.7931 57.6384 76.7828 57.4471C76.7725 57.2558 76.8143 57.0653 76.9039 56.896C76.9934 56.7268 77.1273 56.5852 77.2911 56.4864C77.4549 56.3876 77.6424 56.3354 77.8336 56.3354H120.433C120.625 56.3354 120.814 56.3883 120.978 56.4882C121.143 56.5881 121.277 56.7313 121.366 56.9021L131.452 76.2712Z" fill="#F9992B"/>
<path id="Vector_26" d="M86.2304 118.598L70.4373 115.305C70.2005 115.255 69.9879 115.126 69.8353 114.938C69.6827 114.75 69.5994 114.515 69.5994 114.272V69.5146C69.5994 69.3579 69.6342 69.2032 69.7014 69.0616C69.7686 68.9201 69.8664 68.7953 69.9877 68.6964C70.109 68.5975 70.2508 68.527 70.4027 68.4899C70.5547 68.4528 70.7129 68.4501 70.866 68.4821L86.2304 71.6862V118.598ZM146.698 128.271L131.452 123.183V76.2713L147.363 81.5804C147.573 81.6503 147.755 81.7846 147.884 81.9642C148.013 82.1438 148.083 82.3596 148.083 82.5811V127.27C148.083 127.437 148.043 127.602 147.967 127.751C147.891 127.899 147.781 128.028 147.646 128.126C147.511 128.223 147.354 128.287 147.19 128.313C147.025 128.338 146.856 128.324 146.698 128.271Z" fill="#F9992B"/>
<path id="Vector_27" d="M131.452 123.183L86.2302 118.598V71.686L131.452 76.2711V123.183Z" fill="#40B5B5"/>
<path id="Vector_28" d="M119.953 135.735L73.811 133.89L86.2304 118.598L131.452 123.183L120.786 135.377C120.682 135.495 120.554 135.589 120.41 135.651C120.265 135.713 120.109 135.742 119.953 135.735Z" fill="#F9992B"/>
<path id="Vector_29" d="M131.452 76.2712L169.759 64.285L122.935 59.9165L131.452 76.2712Z" fill="#FF8800"/>
<path id="Vector_30" d="M86.2302 118.598L131.452 97.4348V76.2711L86.2302 71.686V118.598Z" fill="#008080"/>
<path id="Vector_31" d="M88.9417 103.311C88.9417 103.311 93.8822 101.145 95.1945 102.692C96.5069 104.24 99.4402 104.936 99.4402 104.936L101.988 100.603L108.935 103.853L112.718 109.037L110.248 115.149C110.248 115.149 105.23 115.071 102.837 116.077C100.444 117.083 94.191 117.16 94.191 117.16L91.3348 111.667C91.3348 111.667 87.7066 106.329 88.9417 103.311Z" fill="#E0F0F0"/>
<path id="Vector_32" d="M99.4404 104.936C99.9156 105.358 100.372 105.796 100.819 106.241C101.27 106.683 101.705 107.139 102.14 107.594C102.567 108.057 103.005 108.51 103.418 108.983C103.836 109.454 104.26 109.918 104.664 110.4L103.774 110.841C103.573 110 103.373 109.158 103.195 108.311C103.013 107.466 102.857 106.614 102.694 105.764C102.396 104.058 102.119 102.347 101.988 100.603C102.618 102.234 103.102 103.898 103.566 105.567C103.784 106.404 104.008 107.24 104.207 108.082C104.409 108.923 104.591 109.769 104.77 110.615L104.771 110.622C104.795 110.734 104.781 110.851 104.731 110.953C104.68 111.056 104.598 111.139 104.495 111.188C104.393 111.238 104.276 111.252 104.165 111.228C104.054 111.204 103.953 111.144 103.88 111.056C103.478 110.573 103.098 110.072 102.71 109.577C102.318 109.085 101.951 108.573 101.572 108.07C101.203 107.56 100.832 107.05 100.477 106.527C100.119 106.007 99.7705 105.479 99.4404 104.936Z" fill="#BADBDB"/>
<path id="Vector_33" d="M108.935 103.853C108.641 104.49 108.309 105.102 107.979 105.714C107.639 106.321 107.298 106.926 106.938 107.518C106.588 108.118 106.212 108.699 105.845 109.287C105.475 109.872 105.085 110.444 104.705 111.023L104.169 110.213C104.872 110.068 105.578 109.937 106.285 109.811C106.995 109.7 107.7 109.568 108.414 109.474C109.124 109.368 109.839 109.282 110.555 109.201C111.273 109.133 111.991 109.06 112.718 109.037C112.037 109.295 111.347 109.504 110.658 109.717C109.966 109.919 109.273 110.114 108.576 110.29C107.882 110.478 107.18 110.628 106.482 110.799C105.781 110.955 105.079 111.106 104.375 111.243L104.364 111.245C104.262 111.265 104.156 111.254 104.06 111.213C103.965 111.172 103.884 111.104 103.827 111.017C103.771 110.929 103.742 110.827 103.744 110.723C103.746 110.619 103.779 110.518 103.839 110.433C104.237 109.866 104.623 109.292 105.03 108.732C105.441 108.173 105.842 107.609 106.269 107.063C106.686 106.509 107.122 105.968 107.56 105.429C108.007 104.896 108.453 104.362 108.935 103.853Z" fill="#BADBDB"/>
<path id="Vector_34" d="M110.248 115.149C109.678 114.878 109.139 114.565 108.597 114.257C108.061 113.939 107.531 113.615 107.011 113.276C105.966 112.606 104.954 111.891 103.961 111.151L104.72 111C104.12 111.981 103.498 112.949 102.83 113.889C102.503 114.363 102.157 114.825 101.808 115.286C101.451 115.743 101.095 116.199 100.702 116.633C100.904 116.082 101.142 115.555 101.38 115.027C101.627 114.504 101.875 113.982 102.144 113.472C102.666 112.444 103.234 111.443 103.823 110.456C103.859 110.397 103.905 110.345 103.96 110.304C104.015 110.263 104.078 110.234 104.144 110.217C104.211 110.2 104.28 110.197 104.347 110.207C104.415 110.217 104.48 110.24 104.539 110.275L104.579 110.302L104.583 110.305C105.582 111.038 106.562 111.797 107.508 112.601C107.984 112.999 108.45 113.411 108.911 113.83C109.365 114.258 109.822 114.683 110.248 115.149Z" fill="#BADBDB"/>
<path id="Vector_35" d="M88.9419 103.311C91.6088 104.315 94.2102 105.455 96.802 106.614C98.092 107.207 99.3848 107.793 100.663 108.41C101.948 109.012 103.221 109.64 104.493 110.268L104.497 110.27C104.578 110.31 104.647 110.371 104.697 110.447C104.747 110.522 104.776 110.61 104.78 110.7C104.785 110.791 104.766 110.881 104.725 110.961C104.684 111.042 104.622 111.11 104.545 111.158C103.705 111.694 102.847 112.202 101.998 112.724C101.151 113.248 100.285 113.744 99.4289 114.255C98.5646 114.753 97.7041 115.256 96.8296 115.738C95.9592 116.227 95.0797 116.701 94.1912 117.16C94.982 116.547 95.7826 115.949 96.5931 115.366C97.3987 114.776 98.2184 114.208 99.0342 113.633C99.8585 113.072 100.673 112.496 101.505 111.948C102.336 111.397 103.159 110.834 103.999 110.297L104.051 111.187C102.768 110.58 101.486 109.971 100.216 109.338C98.939 108.718 97.6769 108.068 96.4119 107.424C93.8937 106.112 91.385 104.78 88.9419 103.311Z" fill="#BADBDB"/>
<path id="Vector_36" d="M91.0195 111.173C91.9213 110.831 92.7886 110.405 93.6097 109.899C94.3741 109.447 95.0107 108.806 95.4593 108.039C95.8479 107.253 95.9878 106.367 95.8602 105.5C95.7293 104.544 95.5065 103.604 95.1947 102.692C95.8879 103.447 96.3942 104.355 96.6727 105.343C96.991 106.404 96.8888 107.548 96.3872 108.536C95.8462 109.482 95.0036 110.22 93.9946 110.629C93.058 111.038 92.0398 111.224 91.0195 111.173ZM98.9094 108.133C98.8522 108.854 98.7284 109.568 98.5396 110.266C98.3599 110.953 98.1433 111.63 97.8907 112.293C97.6399 112.957 97.3528 113.606 97.0308 114.239C96.7085 114.886 96.3263 115.501 95.8891 116.077C95.9449 115.356 96.0683 114.641 96.2576 113.943C96.4371 113.257 96.6541 112.58 96.9077 111.917C97.1597 111.254 97.4472 110.605 97.769 109.972C98.0915 109.325 98.4733 108.71 98.9094 108.133Z" fill="#BADBDB"/>
<path id="Vector_37" d="M88.6853 128.818C88.6853 128.818 84.9218 132.689 83.1249 131.75C81.3279 130.812 78.3487 131.273 78.3487 131.273L77.6159 136.248L69.9589 135.859L64.5077 132.483L64.5007 125.889C64.5007 125.889 69.1784 124.067 71.0177 122.233C72.857 120.398 78.6209 117.968 78.6209 117.968L83.3301 121.979C83.3301 121.979 88.6964 125.556 88.6853 128.818Z" fill="#C0DDDD"/>
<path id="Vector_38" d="M78.3488 131.273C77.1822 130.792 76.0423 130.261 74.9072 129.72C74.3431 129.443 73.7745 129.175 73.2157 128.888C72.6555 128.604 72.0921 128.326 71.5376 128.031L71.9765 127.535C72.9806 128.943 73.9503 130.374 74.9013 131.818C75.841 133.271 76.7694 134.731 77.6159 136.248C76.4896 134.926 75.4451 133.547 74.4119 132.16C73.39 130.765 72.3869 129.357 71.4181 127.925L71.4156 127.921C71.3729 127.858 71.3526 127.783 71.3577 127.707C71.3629 127.631 71.3933 127.559 71.4441 127.502C71.4949 127.445 71.5631 127.407 71.638 127.394C71.7128 127.381 71.7899 127.393 71.857 127.429C72.411 127.725 72.9563 128.037 73.5046 128.343C74.0545 128.647 74.5944 128.969 75.1389 129.283C76.221 129.924 77.2982 130.573 78.3488 131.273Z" fill="#9FCCCC"/>
<path id="Vector_39" d="M69.959 135.859C70.1093 134.474 70.3258 133.104 70.5646 131.738C70.7995 130.371 71.0729 129.013 71.3558 127.657L71.8897 128.022L70.0844 129.199C69.4741 129.578 68.8717 129.969 68.255 130.338C67.6427 130.714 67.0232 131.079 66.4015 131.441C65.7752 131.796 65.1508 132.154 64.5078 132.483C65.063 132.021 65.6369 131.586 66.2088 131.149C66.7855 130.718 67.3642 130.291 67.9501 129.875C68.5316 129.452 69.1275 129.051 69.7155 128.638L71.5049 127.438C71.5628 127.399 71.6308 127.378 71.7004 127.379C71.77 127.379 71.8378 127.4 71.8953 127.44C71.9527 127.479 71.9971 127.535 72.0227 127.599C72.0483 127.664 72.0539 127.735 72.0389 127.803C71.7423 129.157 71.4362 130.508 71.0918 131.851C70.7511 133.195 70.3882 134.534 69.959 135.859Z" fill="#9FCCCC"/>
<path id="Vector_40" d="M64.5007 125.889C65.1204 125.964 65.7315 126.072 66.3435 126.178C66.9535 126.291 67.5622 126.409 68.1679 126.539C69.3806 126.794 70.5844 127.083 71.7834 127.392L71.3531 127.675C71.4519 127.108 71.5392 126.539 71.6473 125.974C71.7543 125.408 71.8569 124.842 71.9781 124.279C72.2117 123.151 72.4666 122.026 72.7873 120.913C72.7448 122.071 72.6363 123.219 72.5065 124.364C72.446 124.937 72.3669 125.507 72.2922 126.077C72.2187 126.648 72.1243 127.216 72.0414 127.785C72.0282 127.876 71.9797 127.957 71.9065 128.012C71.8333 128.067 71.7414 128.09 71.6511 128.077L71.6166 128.07L71.611 128.068C70.4112 127.763 69.2162 127.439 68.03 127.08C67.4363 126.903 66.8456 126.714 66.2562 126.52C65.6688 126.319 65.0805 126.121 64.5007 125.889Z" fill="#9FCCCC"/>
<path id="Vector_41" d="M88.6854 128.818C87.2642 128.814 85.8454 128.774 84.4262 128.738C83.0074 128.696 81.5898 128.635 80.1723 128.573C77.3382 128.436 74.506 128.269 71.6758 128.07L71.6732 128.069C71.6131 128.065 71.5552 128.045 71.5055 128.011C71.4558 127.976 71.4161 127.93 71.3904 127.875C71.3646 127.82 71.3539 127.76 71.3592 127.7C71.3646 127.64 71.3858 127.582 71.4207 127.533C71.9978 126.719 72.5927 125.919 73.1788 125.112C73.7634 124.303 74.3665 123.509 74.9595 122.706C75.5619 121.911 76.1566 121.11 76.7725 120.324C77.3868 119.537 77.991 118.743 78.621 117.968C78.0971 118.819 77.5472 119.652 77.0077 120.492C76.4696 121.333 75.9104 122.159 75.3588 122.991C74.7979 123.816 74.2471 124.648 73.6778 125.467C73.1099 126.287 72.5509 127.113 71.9741 127.927L71.7191 127.39C74.5517 127.551 77.3822 127.746 80.2105 127.975C81.6244 128.094 83.0381 128.214 84.4507 128.354C85.8628 128.499 87.2753 128.641 88.6854 128.818Z" fill="#9FCCCC"/>
<path id="Vector_42" d="M83.8079 122.318C83.0554 122.928 82.375 123.621 81.7799 124.386C81.2009 125.103 80.8267 125.964 80.6972 126.878C80.6483 127.324 80.6849 127.775 80.8051 128.207C80.9207 128.653 81.0996 129.081 81.3364 129.477C81.8429 130.301 82.443 131.064 83.1249 131.75C82.2445 131.259 81.4784 130.586 80.8774 129.776C80.2264 128.929 79.9135 127.87 79.9999 126.805C80.1448 125.758 80.6227 124.786 81.3625 124.034C82.049 123.297 82.8821 122.712 83.8079 122.318ZM77.6398 128.11C77.4877 127.412 77.3812 126.704 77.3209 125.992C77.2542 125.285 77.2115 124.577 77.1967 123.869C77.1794 123.161 77.1919 122.452 77.2273 121.742C77.2564 121.028 77.3323 120.316 77.4547 119.612C77.6076 120.31 77.7145 121.018 77.7746 121.731C77.8409 122.438 77.8843 123.145 77.8978 123.853C77.9138 124.562 77.902 125.27 77.8661 125.98C77.8369 126.694 77.7613 127.406 77.6398 128.11Z" fill="#9FCCCC"/>
</g>
</svg>
