<svg width="20" height="20" viewBox="0 0 20 20" fill="none" xmlns="http://www.w3.org/2000/svg">
<g clip-path="url(#clip0_1158_52991)">
<path d="M2.5 2.5L17.5 17.5" stroke="#727272" stroke-width="1.5" stroke-linecap="round" stroke-linejoin="round"/>
<path d="M8.81973 8.82251C8.50699 9.13502 8.33121 9.55897 8.33105 10.0011C8.3309 10.4432 8.50638 10.8673 8.81889 11.18C9.13141 11.4927 9.55535 11.6685 9.99747 11.6687C10.4396 11.6688 10.8637 11.4934 11.1764 11.1808" stroke="#727272" stroke-width="1.5" stroke-linecap="round" stroke-linejoin="round"/>
<path d="M7.80283 4.47084C8.51734 4.26644 9.25715 4.16404 10.0003 4.16668C13.3337 4.16668 16.1112 6.11084 18.3337 10C17.6853 11.1342 16.9903 12.1033 16.2478 12.9067M14.4645 14.4575C13.1053 15.3742 11.6187 15.8333 10.0003 15.8333C6.66699 15.8333 3.88949 13.8892 1.66699 10C2.80783 8.00418 4.09449 6.52084 5.52699 5.54918" stroke="#727272" stroke-width="1.5" stroke-linecap="round" stroke-linejoin="round"/>
</g>
<defs>
<clipPath id="clip0_1158_52991">
<rect width="20" height="20" fill="white"/>
</clipPath>
</defs>
</svg>
