<svg width="20" height="20" viewBox="0 0 20 20" fill="none" xmlns="http://www.w3.org/2000/svg">
<mask id="mask0_1356_44400" style="mask-type:luminance" maskUnits="userSpaceOnUse" x="0" y="0" width="20" height="20">
<rect width="20" height="20" fill="white"/>
</mask>
<g mask="url(#mask0_1356_44400)">
<path fill-rule="evenodd" clip-rule="evenodd" d="M9.99967 2.08337C5.62743 2.08337 2.08302 5.62777 2.08301 10C2.083 14.3723 5.62739 17.9167 9.99964 17.9167C14.3719 17.9167 17.9163 14.3723 17.9163 10.0001C17.9163 5.62783 14.372 2.08341 9.99971 2.08337H9.99967Z" fill="#039BE5"/>
<path fill-rule="evenodd" clip-rule="evenodd" d="M11.072 12.0983H13.1208L13.4424 10.0171H11.0716V8.87957C11.0716 8.01499 11.3541 7.24832 12.1628 7.24832H13.4624V5.43207C13.2341 5.40124 12.7512 5.33374 11.8387 5.33374C9.93326 5.33374 8.81617 6.33999 8.81617 8.63249V10.0171H6.85742V12.0983H8.81617V17.8187C9.20409 17.8771 9.597 17.9167 10.0003 17.9167C10.3649 17.9167 10.7208 17.8833 11.072 17.8358V12.0983Z" fill="white"/>
</g>
</svg>
