<svg width="21" height="20" viewBox="0 0 21 20" fill="none" xmlns="http://www.w3.org/2000/svg">
<path d="M10.333 2.5C6.19211 2.5 2.83399 5.94292 2.83399 10.1901C2.8323 11.802 3.32666 13.3736 4.24721 14.683C5.16775 15.9923 6.46793 16.9731 7.96399 17.4867C8.33899 17.5575 8.47586 17.3201 8.47586 17.1161C8.47586 16.9333 8.4693 16.4498 8.46555 15.8083C6.37961 16.2726 5.93899 14.7771 5.93899 14.7771C5.59867 13.8886 5.10649 13.6522 5.10649 13.6522C4.42493 13.1754 5.15711 13.1849 5.15711 13.1849C5.90992 13.2395 6.30555 13.9777 6.30555 13.9777C6.97492 15.1524 8.06149 14.8135 8.48899 14.6163C8.55649 14.1194 8.75055 13.7804 8.96524 13.588C7.30024 13.3936 5.54899 12.734 5.54899 9.78796C5.54899 8.9483 5.84149 8.26182 6.32149 7.72374C6.24367 7.52938 5.9868 6.74716 6.39461 5.6892C6.39461 5.6892 7.02461 5.4824 8.45711 6.47717C9.06906 6.30637 9.70053 6.21944 10.3349 6.21866C10.9693 6.21995 11.6008 6.3072 12.2127 6.47812C13.6443 5.48335 14.2734 5.69016 14.2734 5.69016C14.6821 6.74908 14.4252 7.53034 14.3484 7.7247C14.8293 8.26278 15.119 8.94925 15.119 9.78892C15.119 12.7426 13.3659 13.3927 11.6952 13.5832C11.9643 13.8207 12.2043 14.2898 12.2043 15.0069C12.2043 16.0352 12.1949 16.8643 12.1949 17.1161C12.1949 17.322 12.3299 17.5613 12.7105 17.4857C14.2051 16.9709 15.5037 15.9897 16.423 14.6807C17.3422 13.3717 17.8358 11.8009 17.834 10.1901C17.834 5.94292 14.4759 2.5 10.333 2.5Z" fill="#5C6BC0"/>
</svg>
