<svg width="21" height="20" viewBox="0 0 21 20" fill="none" xmlns="http://www.w3.org/2000/svg">
<mask id="mask0_1356_41004" style="mask-type:luminance" maskUnits="userSpaceOnUse" x="0" y="0" width="21" height="20">
<rect x="0.666992" width="20" height="20" fill="white"/>
</mask>
<g mask="url(#mask0_1356_41004)">
<path fill-rule="evenodd" clip-rule="evenodd" d="M18.8386 8.36788H18.1673V8.33329H10.6673V11.6666H15.3769C14.6898 13.607 12.8436 15 10.6673 15C7.90607 15 5.66732 12.7612 5.66732 9.99996C5.66732 7.23871 7.90607 4.99996 10.6673 4.99996C11.9419 4.99996 13.1015 5.48079 13.9844 6.26621L16.3415 3.90913C14.8532 2.52204 12.8623 1.66663 10.6673 1.66663C6.06523 1.66663 2.33398 5.39788 2.33398 9.99996C2.33398 14.602 6.06523 18.3333 10.6673 18.3333C15.2694 18.3333 19.0007 14.602 19.0007 9.99996C19.0007 9.44121 18.9432 8.89579 18.8386 8.36788Z" fill="#FFC107"/>
<path fill-rule="evenodd" clip-rule="evenodd" d="M3.29492 6.12121L6.03284 8.12913C6.77367 6.29496 8.56784 4.99996 10.6674 4.99996C11.942 4.99996 13.1016 5.48079 13.9845 6.26621L16.3416 3.90913C14.8533 2.52204 12.8624 1.66663 10.6674 1.66663C7.46659 1.66663 4.69076 3.47371 3.29492 6.12121Z" fill="#FF3D00"/>
<path fill-rule="evenodd" clip-rule="evenodd" d="M10.6668 18.3334C12.8193 18.3334 14.7751 17.5096 16.2539 16.17L13.6747 13.9875C12.838 14.6213 11.798 15 10.6668 15C8.4993 15 6.65888 13.618 5.96555 11.6892L3.24805 13.783C4.62721 16.4817 7.42805 18.3334 10.6668 18.3334Z" fill="#4CAF50"/>
<path fill-rule="evenodd" clip-rule="evenodd" d="M18.8382 8.36796H18.167V8.33337H10.667V11.6667H15.3766C15.0466 12.5988 14.447 13.4025 13.6737 13.988C13.6741 13.9875 13.6745 13.9875 13.6749 13.9871L16.2541 16.1696C16.0716 16.3355 19.0003 14.1667 19.0003 10C19.0003 9.44129 18.9428 8.89587 18.8382 8.36796Z" fill="#1976D2"/>
</g>
</svg>
