<svg width="380" height="269" viewBox="0 0 380 269" fill="none" xmlns="http://www.w3.org/2000/svg">
<path d="M8.862 154.346C8.862 153.889 8.792 153.516 8.652 153.226C8.50267 152.928 8.29733 152.708 8.036 152.568C7.77467 152.428 7.47133 152.358 7.126 152.358C6.57533 152.358 6.146 152.517 5.838 152.834C5.53 153.152 5.376 153.656 5.376 154.346L5.376 156.6L8.862 156.6L8.862 154.346ZM7.126 150.958C7.48067 150.958 7.83533 151.019 8.19 151.14C8.53533 151.262 8.848 151.458 9.128 151.728C9.408 151.999 9.632 152.354 9.8 152.792C9.95867 153.222 10.038 153.74 10.038 154.346L10.038 156.6L14 156.6L14 158L4.2 158L4.2 154.346C4.2 153.581 4.33533 152.951 4.606 152.456C4.86733 151.952 5.222 151.579 5.67 151.336C6.10867 151.084 6.594 150.958 7.126 150.958ZM14.098 146.885C14.098 147.557 13.944 148.154 13.636 148.677C13.3187 149.19 12.8847 149.596 12.334 149.895C11.7833 150.184 11.1533 150.329 10.444 150.329C9.76267 150.329 9.156 150.184 8.624 149.895C8.092 149.605 7.672 149.209 7.364 148.705C7.056 148.191 6.902 147.613 6.902 146.969C6.902 146.315 7.04667 145.737 7.336 145.233C7.616 144.729 8.01267 144.337 8.526 144.057C9.03 143.777 9.61333 143.641 10.276 143.651C10.388 143.651 10.5047 143.655 10.626 143.665C10.738 143.674 10.864 143.688 11.004 143.707L11.004 148.887C11.3773 148.859 11.7087 148.756 11.998 148.579C12.278 148.392 12.4973 148.159 12.656 147.879C12.8147 147.589 12.894 147.263 12.894 146.899C12.894 146.432 12.8053 146.026 12.628 145.681C12.4413 145.335 12.194 145.093 11.886 144.953L12.292 143.805C12.8613 144.085 13.3047 144.495 13.622 145.037C13.9393 145.569 14.098 146.185 14.098 146.885ZM9.87 145.093C9.534 145.093 9.23067 145.177 8.96 145.345C8.68933 145.513 8.47933 145.741 8.33 146.031C8.17133 146.311 8.092 146.628 8.092 146.983C8.092 147.3 8.17133 147.594 8.33 147.865C8.47933 148.126 8.68933 148.35 8.96 148.537C9.22133 148.714 9.52467 148.826 9.87 148.873L9.87 145.093ZM7 142.034L7 140.83L7.938 140.746C7.69533 140.55 7.49467 140.326 7.336 140.074C7.168 139.813 7.05133 139.533 6.986 139.234C6.92067 138.926 6.92533 138.609 7 138.282L8.246 138.282C8.17133 138.59 8.162 138.889 8.218 139.178C8.274 139.467 8.39533 139.729 8.582 139.962C8.75933 140.186 8.99733 140.368 9.296 140.508C9.59467 140.648 9.954 140.718 10.374 140.718L14 140.718L14 142.034L7 142.034ZM14.098 134.089C14.098 134.761 13.9487 135.353 13.65 135.867C13.342 136.38 12.922 136.781 12.39 137.071C11.858 137.351 11.2373 137.491 10.528 137.491C9.80933 137.491 9.17933 137.346 8.638 137.057C8.09667 136.767 7.672 136.366 7.364 135.853C7.056 135.339 6.902 134.742 6.902 134.061C6.902 133.342 7.07 132.712 7.406 132.171C7.742 131.62 8.19467 131.223 8.764 130.981L9.184 132.171C8.85733 132.311 8.596 132.549 8.4 132.885C8.204 133.211 8.106 133.585 8.106 134.005C8.106 134.434 8.20867 134.803 8.414 135.111C8.61 135.419 8.89 135.657 9.254 135.825C9.60867 135.993 10.0287 136.077 10.514 136.077C11.242 136.077 11.8207 135.89 12.25 135.517C12.6793 135.143 12.894 134.639 12.894 134.005C12.894 133.585 12.8007 133.211 12.614 132.885C12.4273 132.549 12.1707 132.297 11.844 132.129L12.264 130.953C12.824 131.214 13.272 131.625 13.608 132.185C13.9347 132.745 14.098 133.379 14.098 134.089ZM14.098 126.308C14.098 126.98 13.944 127.578 13.636 128.1C13.3187 128.614 12.8847 129.02 12.334 129.318C11.7833 129.608 11.1533 129.752 10.444 129.752C9.76267 129.752 9.156 129.608 8.624 129.318C8.092 129.029 7.672 128.632 7.364 128.128C7.056 127.615 6.902 127.036 6.902 126.392C6.902 125.739 7.04666 125.16 7.336 124.656C7.616 124.152 8.01266 123.76 8.526 123.48C9.03 123.2 9.61333 123.065 10.276 123.074C10.388 123.074 10.5047 123.079 10.626 123.088C10.738 123.098 10.864 123.112 11.004 123.13L11.004 128.31C11.3773 128.282 11.7087 128.18 11.998 128.002C12.278 127.816 12.4973 127.582 12.656 127.302C12.8147 127.013 12.894 126.686 12.894 126.322C12.894 125.856 12.8053 125.45 12.628 125.104C12.4413 124.759 12.194 124.516 11.886 124.376L12.292 123.228C12.8613 123.508 13.3047 123.919 13.622 124.46C13.9393 124.992 14.098 125.608 14.098 126.308ZM9.87 124.516C9.534 124.516 9.23066 124.6 8.96 124.768C8.68933 124.936 8.47933 125.165 8.33 125.454C8.17133 125.734 8.092 126.052 8.092 126.406C8.092 126.724 8.17133 127.018 8.33 127.288C8.47933 127.55 8.68933 127.774 8.96 127.96C9.22133 128.138 9.52467 128.25 9.87 128.296L9.87 124.516ZM7 121.458L7 120.254L7.812 120.17C7.52266 119.946 7.29866 119.661 7.14 119.316C6.98133 118.97 6.902 118.588 6.902 118.168C6.902 117.626 7.01866 117.16 7.252 116.768C7.476 116.366 7.812 116.058 8.26 115.844C8.708 115.62 9.268 115.508 9.94 115.508L14 115.508L14 116.824L10.108 116.824C9.45466 116.824 8.96 116.964 8.624 117.244C8.27866 117.514 8.106 117.911 8.106 118.434C8.106 118.975 8.28333 119.395 8.638 119.694C8.98333 119.992 9.49666 120.142 10.178 120.142L14 120.142L14 121.458L7 121.458ZM7 113.162L5.04 113.162L5.04 111.832L7 111.832L7 110.082L8.176 110.082L8.176 111.832L11.62 111.832C12.0493 111.832 12.3527 111.748 12.53 111.58C12.7073 111.403 12.81 111.183 12.838 110.922C12.8567 110.651 12.8473 110.371 12.81 110.082L13.944 110.082C14.028 110.465 14.0513 110.843 14.014 111.216C13.986 111.58 13.8833 111.911 13.706 112.21C13.5287 112.499 13.272 112.733 12.936 112.91C12.5907 113.078 12.152 113.162 11.62 113.162L8.176 113.162L8.176 114.17L7 114.17L7 113.162ZM14 104.336L12.978 104.448C13.3327 104.663 13.608 104.943 13.804 105.288C13.9907 105.624 14.084 106.063 14.084 106.604C14.084 107.108 14.0047 107.538 13.846 107.892C13.678 108.247 13.4493 108.522 13.16 108.718C12.8613 108.905 12.516 108.998 12.124 108.998C11.536 108.998 11.0507 108.779 10.668 108.34C10.276 107.902 10.0333 107.267 9.94 106.436L9.716 104.448L9.17 104.448C8.87133 104.448 8.61933 104.57 8.414 104.812C8.19933 105.055 8.092 105.405 8.092 105.862C8.092 106.292 8.19466 106.656 8.4 106.954C8.596 107.253 8.89 107.454 9.282 107.556L8.862 108.732C8.246 108.555 7.76533 108.21 7.42 107.696C7.07466 107.174 6.902 106.544 6.902 105.806C6.902 104.929 7.12133 104.262 7.56 103.804C7.99866 103.347 8.57733 103.118 9.296 103.118L14 103.118L14 104.336ZM10.794 104.448L11.032 106.366C11.088 106.777 11.2047 107.085 11.382 107.29C11.55 107.496 11.774 107.598 12.054 107.598C12.3153 107.598 12.5347 107.5 12.712 107.304C12.88 107.099 12.964 106.814 12.964 106.45C12.964 106.002 12.88 105.629 12.712 105.33C12.544 105.032 12.3107 104.812 12.012 104.672C11.704 104.523 11.3493 104.448 10.948 104.448L10.794 104.448ZM7 95.9734L7 94.7694L12.852 94.7694C13.6733 94.7694 14.378 94.9654 14.966 95.3574C15.554 95.7494 16.0067 96.3141 16.324 97.0514C16.6413 97.7794 16.8 98.6614 16.8 99.6974L15.638 99.9074C15.61 98.6568 15.358 97.7094 14.882 97.0654C14.4153 96.4214 13.7387 96.0994 12.852 96.0994L12.782 96.0994L12.796 95.9454C13.1507 96.1694 13.4587 96.4914 13.72 96.9114C13.972 97.3221 14.098 97.8354 14.098 98.4514C14.098 99.0768 13.9487 99.6321 13.65 100.117C13.3513 100.593 12.9313 100.967 12.39 101.237C11.8487 101.499 11.2187 101.629 10.5 101.629C9.78133 101.629 9.15133 101.499 8.61 101.237C8.06866 100.967 7.64866 100.593 7.35 100.117C7.05133 99.6321 6.902 99.0768 6.902 98.4514C6.902 98.0688 6.95333 97.7281 7.056 97.4294C7.15866 97.1214 7.29866 96.8554 7.476 96.6314C7.644 96.4074 7.83533 96.2208 8.05 96.0714L7 95.9734ZM10.5 100.215C11.2187 100.215 11.7973 100.029 12.236 99.6554C12.6747 99.2728 12.894 98.7641 12.894 98.1294C12.894 97.7561 12.8007 97.4154 12.614 97.1074C12.418 96.7994 12.1427 96.5568 11.788 96.3794C11.424 96.1928 10.9947 96.0994 10.5 96.0994C9.996 96.0994 9.56666 96.1928 9.212 96.3794C8.85733 96.5568 8.58666 96.8041 8.4 97.1214C8.204 97.4294 8.106 97.7654 8.106 98.1294C8.106 98.7641 8.32533 99.2728 8.764 99.6554C9.20266 100.029 9.78133 100.215 10.5 100.215ZM14.098 89.7362C14.098 90.4082 13.944 91.0056 13.636 91.5282C13.3187 92.0416 12.8847 92.4476 12.334 92.7462C11.7833 93.0356 11.1533 93.1802 10.444 93.1802C9.76266 93.1802 9.156 93.0356 8.624 92.7462C8.092 92.4569 7.672 92.0602 7.364 91.5562C7.056 91.0429 6.902 90.4642 6.902 89.8202C6.902 89.1669 7.04666 88.5882 7.336 88.0842C7.616 87.5802 8.01266 87.1882 8.526 86.9082C9.03 86.6282 9.61333 86.4929 10.276 86.5022C10.388 86.5022 10.5047 86.5069 10.626 86.5162C10.738 86.5256 10.864 86.5396 11.004 86.5582L11.004 91.7382C11.3773 91.7102 11.7087 91.6076 11.998 91.4302C12.278 91.2436 12.4973 91.0102 12.656 90.7302C12.8147 90.4409 12.894 90.1142 12.894 89.7502C12.894 89.2836 12.8053 88.8776 12.628 88.5322C12.4413 88.1869 12.194 87.9442 11.886 87.8042L12.292 86.6562C12.8613 86.9362 13.3047 87.3469 13.622 87.8882C13.9393 88.4202 14.098 89.0362 14.098 89.7362ZM9.87 87.9442C9.534 87.9442 9.23066 88.0282 8.96 88.1962C8.68933 88.3642 8.47933 88.5929 8.33 88.8822C8.17133 89.1622 8.092 89.4796 8.092 89.8342C8.092 90.1516 8.17133 90.4456 8.33 90.7162C8.47933 90.9776 8.68933 91.2016 8.96 91.3882C9.22133 91.5656 9.52466 91.6776 9.87 91.7242L9.87 87.9442Z" fill="#2F2F2F"/>
<path d="M45.3935 6.27273V15H44.3366V7.38068H44.2855L42.1548 8.79545V7.72159L44.3366 6.27273H45.3935ZM50.75 15.1193C50.108 15.1193 49.5611 14.9446 49.1094 14.5952C48.6577 14.2429 48.3125 13.733 48.0739 13.0653C47.8352 12.3949 47.7159 11.5852 47.7159 10.6364C47.7159 9.69318 47.8352 8.88778 48.0739 8.22017C48.3153 7.54972 48.6619 7.03835 49.1136 6.68608C49.5682 6.33097 50.1136 6.15341 50.75 6.15341C51.3864 6.15341 51.9304 6.33097 52.3821 6.68608C52.8366 7.03835 53.1832 7.54972 53.4219 8.22017C53.6634 8.88778 53.7841 9.69318 53.7841 10.6364C53.7841 11.5852 53.6648 12.3949 53.4261 13.0653C53.1875 13.733 52.8423 14.2429 52.3906 14.5952C51.9389 14.9446 51.392 15.1193 50.75 15.1193ZM50.75 14.1818C51.3864 14.1818 51.8807 13.875 52.233 13.2614C52.5852 12.6477 52.7614 11.7727 52.7614 10.6364C52.7614 9.88068 52.6804 9.23722 52.5185 8.70597C52.3594 8.17472 52.1293 7.76989 51.8281 7.49148C51.5298 7.21307 51.1705 7.07386 50.75 7.07386C50.1193 7.07386 49.6264 7.38494 49.2713 8.0071C48.9162 8.62642 48.7386 9.50284 48.7386 10.6364C48.7386 11.392 48.8182 12.0341 48.9773 12.5625C49.1364 13.0909 49.3651 13.4929 49.6634 13.7685C49.9645 14.044 50.3267 14.1818 50.75 14.1818ZM58.25 15.1193C57.608 15.1193 57.0611 14.9446 56.6094 14.5952C56.1577 14.2429 55.8125 13.733 55.5739 13.0653C55.3352 12.3949 55.2159 11.5852 55.2159 10.6364C55.2159 9.69318 55.3352 8.88778 55.5739 8.22017C55.8153 7.54972 56.1619 7.03835 56.6136 6.68608C57.0682 6.33097 57.6136 6.15341 58.25 6.15341C58.8864 6.15341 59.4304 6.33097 59.8821 6.68608C60.3366 7.03835 60.6832 7.54972 60.9219 8.22017C61.1634 8.88778 61.2841 9.69318 61.2841 10.6364C61.2841 11.5852 61.1648 12.3949 60.9261 13.0653C60.6875 13.733 60.3423 14.2429 59.8906 14.5952C59.4389 14.9446 58.892 15.1193 58.25 15.1193ZM58.25 14.1818C58.8864 14.1818 59.3807 13.875 59.733 13.2614C60.0852 12.6477 60.2614 11.7727 60.2614 10.6364C60.2614 9.88068 60.1804 9.23722 60.0185 8.70597C59.8594 8.17472 59.6293 7.76989 59.3281 7.49148C59.0298 7.21307 58.6705 7.07386 58.25 7.07386C57.6193 7.07386 57.1264 7.38494 56.7713 8.0071C56.4162 8.62642 56.2386 9.50284 56.2386 10.6364C56.2386 11.392 56.3182 12.0341 56.4773 12.5625C56.6364 13.0909 56.8651 13.4929 57.1634 13.7685C57.4645 14.044 57.8267 14.1818 58.25 14.1818Z" fill="#727272"/>
<line x1="70.5" y1="11" x2="379.5" y2="11" stroke="#F5F5F5" stroke-linecap="round"/>
<path d="M50.8043 59.4201C50.2191 59.4201 49.7021 59.3164 49.2532 59.109C48.8072 58.8988 48.4592 58.6104 48.2092 58.244C47.9592 57.8746 47.8356 57.4542 47.8384 56.9826C47.8356 56.6133 47.908 56.2724 48.0558 55.9599C48.2035 55.6445 48.4052 55.3817 48.6609 55.1715C48.9194 54.9585 49.2077 54.8235 49.5259 54.7667V54.7156C49.1083 54.6076 48.7759 54.3732 48.5288 54.0124C48.2816 53.6488 48.1594 53.2354 48.1623 52.7724C48.1594 52.3292 48.2717 51.9329 48.4989 51.5835C48.7262 51.234 49.0387 50.9585 49.4364 50.7567C49.837 50.555 50.293 50.4542 50.8043 50.4542C51.31 50.4542 51.7617 50.555 52.1594 50.7567C52.5572 50.9585 52.8697 51.234 53.0969 51.5835C53.3271 51.9329 53.4435 52.3292 53.4464 52.7724C53.4435 53.2354 53.3171 53.6488 53.0671 54.0124C52.82 54.3732 52.4918 54.6076 52.0827 54.7156V54.7667C52.3981 54.8235 52.6822 54.9585 52.935 55.1715C53.1879 55.3817 53.3896 55.6445 53.5401 55.9599C53.6907 56.2724 53.7674 56.6133 53.7702 56.9826C53.7674 57.4542 53.6396 57.8746 53.3867 58.244C53.1367 58.6104 52.7887 58.8988 52.3427 59.109C51.8995 59.3164 51.3867 59.4201 50.8043 59.4201ZM50.8043 58.4826C51.1992 58.4826 51.5401 58.4187 51.8271 58.2908C52.114 58.163 52.3356 57.9826 52.4918 57.7496C52.6481 57.5167 52.7276 57.244 52.7305 56.9315C52.7276 56.6019 52.6424 56.3107 52.4748 56.0579C52.3072 55.805 52.0785 55.6062 51.7887 55.4613C51.5018 55.3164 51.1737 55.244 50.8043 55.244C50.4322 55.244 50.0998 55.3164 49.8072 55.4613C49.5174 55.6062 49.2887 55.805 49.1211 56.0579C48.9563 56.3107 48.8754 56.6019 48.8782 56.9315C48.8754 57.244 48.9506 57.5167 49.104 57.7496C49.2603 57.9826 49.4833 58.163 49.7731 58.2908C50.0629 58.4187 50.4066 58.4826 50.8043 58.4826ZM50.8043 54.3406C51.1168 54.3406 51.3938 54.2781 51.6353 54.1531C51.8796 54.0281 52.0714 53.8533 52.2106 53.6289C52.3498 53.4045 52.4208 53.1417 52.4237 52.8406C52.4208 52.5451 52.3512 52.288 52.2148 52.0692C52.0785 51.8477 51.8896 51.6772 51.6481 51.5579C51.4066 51.4357 51.1254 51.3746 50.8043 51.3746C50.4776 51.3746 50.1921 51.4357 49.9478 51.5579C49.7035 51.6772 49.5146 51.8477 49.381 52.0692C49.2475 52.288 49.1822 52.5451 49.185 52.8406C49.1822 53.1417 49.2489 53.4045 49.3853 53.6289C49.5245 53.8533 49.7163 54.0281 49.9606 54.1531C50.2049 54.2781 50.4862 54.3406 50.8043 54.3406ZM58.25 59.4201C57.608 59.4201 57.0611 59.2454 56.6094 58.896C56.1577 58.5437 55.8125 58.0337 55.5739 57.3661C55.3352 56.6957 55.2159 55.886 55.2159 54.9371C55.2159 53.994 55.3352 53.1886 55.5739 52.521C55.8153 51.8505 56.1619 51.3391 56.6136 50.9869C57.0682 50.6317 57.6136 50.4542 58.25 50.4542C58.8864 50.4542 59.4304 50.6317 59.8821 50.9869C60.3366 51.3391 60.6832 51.8505 60.9219 52.521C61.1634 53.1886 61.2841 53.994 61.2841 54.9371C61.2841 55.886 61.1648 56.6957 60.9261 57.3661C60.6875 58.0337 60.3423 58.5437 59.8906 58.896C59.4389 59.2454 58.892 59.4201 58.25 59.4201ZM58.25 58.4826C58.8864 58.4826 59.3807 58.1758 59.733 57.5621C60.0852 56.9485 60.2614 56.0735 60.2614 54.9371C60.2614 54.1815 60.1804 53.538 60.0185 53.0067C59.8594 52.4755 59.6293 52.0707 59.3281 51.7923C59.0298 51.5138 58.6705 51.3746 58.25 51.3746C57.6193 51.3746 57.1264 51.6857 56.7713 52.3079C56.4162 52.9272 56.2386 53.8036 56.2386 54.9371C56.2386 55.6928 56.3182 56.3349 56.4773 56.8633C56.6364 57.3917 56.8651 57.7937 57.1634 58.0692C57.4645 58.3448 57.8267 58.4826 58.25 58.4826Z" fill="#727272"/>
<line x1="70.5" y1="55.3008" x2="379.5" y2="55.3008" stroke="#F5F5F5" stroke-linecap="round"/>
<path d="M50.8129 101.219C50.4549 101.213 50.0969 101.145 49.739 101.014C49.381 100.884 49.0543 100.664 48.7589 100.354C48.4634 100.041 48.2262 99.6195 48.0472 99.0882C47.8683 98.5542 47.7788 97.8837 47.7788 97.0769C47.7788 96.3042 47.8512 95.6195 47.9961 95.0229C48.141 94.4235 48.3512 93.9192 48.6268 93.5101C48.9023 93.0982 49.2347 92.7857 49.6239 92.5726C50.016 92.3596 50.4577 92.253 50.9492 92.253C51.4379 92.253 51.8725 92.351 52.2532 92.5471C52.6367 92.7402 52.9492 93.0101 53.1907 93.3567C53.4322 93.7033 53.5884 94.1025 53.6594 94.5542H52.6197C52.5231 94.1621 52.3356 93.8368 52.0572 93.5783C51.7788 93.3198 51.4094 93.1905 50.9492 93.1905C50.2731 93.1905 49.7404 93.4846 49.3512 94.0726C48.9648 94.6607 48.7702 95.486 48.7674 96.5485H48.8356C48.9947 96.307 49.1836 96.101 49.4023 95.9306C49.6239 95.7573 49.8683 95.6238 50.1353 95.53C50.4023 95.4363 50.685 95.3894 50.9833 95.3894C51.4833 95.3894 51.9407 95.5144 52.3555 95.7644C52.7702 96.0115 53.1026 96.3539 53.3526 96.7914C53.6026 97.226 53.7276 97.7246 53.7276 98.2871C53.7276 98.8269 53.6069 99.3212 53.3654 99.7701C53.1239 100.216 52.7844 100.571 52.3469 100.835C51.9123 101.097 51.4009 101.225 50.8129 101.219ZM50.8129 100.281C51.1708 100.281 51.4918 100.192 51.7759 100.013C52.0629 99.834 52.2887 99.5939 52.4535 99.2928C52.6211 98.9917 52.7049 98.6564 52.7049 98.2871C52.7049 97.9263 52.6239 97.5982 52.462 97.3027C52.3029 97.0044 52.0827 96.7672 51.8015 96.5911C51.5231 96.415 51.2049 96.3269 50.8469 96.3269C50.5771 96.3269 50.3256 96.3809 50.0927 96.4888C49.8597 96.5939 49.6552 96.7388 49.479 96.9235C49.3058 97.1081 49.1694 97.3198 49.07 97.5584C48.9705 97.7942 48.9208 98.0428 48.9208 98.3042C48.9208 98.6507 49.0018 98.9746 49.1637 99.2757C49.3285 99.5769 49.5529 99.8198 49.837 100.004C50.1239 100.189 50.4492 100.281 50.8129 100.281ZM58.25 101.219C57.608 101.219 57.0611 101.044 56.6094 100.695C56.1577 100.343 55.8125 99.8326 55.5739 99.165C55.3352 98.4945 55.2159 97.6848 55.2159 96.736C55.2159 95.7928 55.3352 94.9874 55.5739 94.3198C55.8153 93.6493 56.1619 93.138 56.6136 92.7857C57.0682 92.4306 57.6136 92.253 58.25 92.253C58.8864 92.253 59.4304 92.4306 59.8821 92.7857C60.3366 93.138 60.6832 93.6493 60.9219 94.3198C61.1634 94.9874 61.2841 95.7928 61.2841 96.736C61.2841 97.6848 61.1648 98.4945 60.9261 99.165C60.6875 99.8326 60.3423 100.343 59.8906 100.695C59.4389 101.044 58.892 101.219 58.25 101.219ZM58.25 100.281C58.8864 100.281 59.3807 99.9746 59.733 99.361C60.0852 98.7473 60.2614 97.8723 60.2614 96.736C60.2614 95.9803 60.1804 95.3368 60.0185 94.8056C59.8594 94.2743 59.6293 93.8695 59.3281 93.5911C59.0298 93.3127 58.6705 93.1735 58.25 93.1735C57.6193 93.1735 57.1264 93.4846 56.7713 94.1067C56.4162 94.726 56.2386 95.6024 56.2386 96.736C56.2386 97.4917 56.3182 98.1337 56.4773 98.6621C56.6364 99.1905 56.8651 99.5925 57.1634 99.8681C57.4645 100.144 57.8267 100.281 58.25 100.281Z" fill="#727272"/>
<line x1="70.5" y1="97.0996" x2="379.5" y2="97.0996" stroke="#F5F5F5" stroke-linecap="round"/>
<path d="M47.4996 141.111V140.241L51.3349 134.173H51.9656V135.52H51.5394L48.6417 140.105V140.173H53.8065V141.111H47.4996ZM51.6076 142.9V140.846V140.442V134.173H52.6133V142.9H51.6076ZM58.25 143.02C57.608 143.02 57.0611 142.845 56.6094 142.496C56.1577 142.143 55.8125 141.633 55.5739 140.966C55.3352 140.295 55.2159 139.486 55.2159 138.537C55.2159 137.594 55.3352 136.788 55.5739 136.121C55.8153 135.45 56.1619 134.939 56.6136 134.586C57.0682 134.231 57.6136 134.054 58.25 134.054C58.8864 134.054 59.4304 134.231 59.8821 134.586C60.3366 134.939 60.6832 135.45 60.9219 136.121C61.1634 136.788 61.2841 137.594 61.2841 138.537C61.2841 139.486 61.1648 140.295 60.9261 140.966C60.6875 141.633 60.3423 142.143 59.8906 142.496C59.4389 142.845 58.892 143.02 58.25 143.02ZM58.25 142.082C58.8864 142.082 59.3807 141.775 59.733 141.162C60.0852 140.548 60.2614 139.673 60.2614 138.537C60.2614 137.781 60.1804 137.138 60.0185 136.606C59.8594 136.075 59.6293 135.67 59.3281 135.392C59.0298 135.113 58.6705 134.974 58.25 134.974C57.6193 134.974 57.1264 135.285 56.7713 135.907C56.4162 136.527 56.2386 137.403 56.2386 138.537C56.2386 139.292 56.3182 139.934 56.4773 140.463C56.6364 140.991 56.8651 141.393 57.1634 141.669C57.4645 141.944 57.8267 142.082 58.25 142.082Z" fill="#727272"/>
<line x1="70.5" y1="138.9" x2="379.5" y2="138.9" stroke="#F5F5F5" stroke-linecap="round"/>
<path d="M48.1378 184.699V183.932L51.0185 180.779C51.3565 180.409 51.6349 180.088 51.8537 179.816C52.0724 179.54 52.2344 179.282 52.3395 179.04C52.4474 178.796 52.5014 178.54 52.5014 178.273C52.5014 177.966 52.4276 177.701 52.2798 177.476C52.1349 177.252 51.9361 177.078 51.6832 176.956C51.4304 176.834 51.1463 176.773 50.831 176.773C50.4957 176.773 50.2031 176.843 49.9531 176.982C49.706 177.118 49.5142 177.31 49.3778 177.557C49.2443 177.804 49.1776 178.094 49.1776 178.426H48.1719C48.1719 177.915 48.2898 177.466 48.5256 177.08C48.7614 176.694 49.0824 176.392 49.4886 176.176C49.8977 175.961 50.3565 175.853 50.8651 175.853C51.3764 175.853 51.8295 175.961 52.2244 176.176C52.6193 176.392 52.929 176.684 53.1534 177.05C53.3778 177.417 53.4901 177.824 53.4901 178.273C53.4901 178.594 53.4318 178.908 53.3153 179.215C53.2017 179.519 53.0028 179.858 52.7188 180.233C52.4375 180.605 52.0469 181.06 51.5469 181.597L49.5866 183.694V183.762H53.6435V184.699H48.1378ZM58.25 184.819C57.608 184.819 57.0611 184.644 56.6094 184.294C56.1577 183.942 55.8125 183.432 55.5739 182.765C55.3352 182.094 55.2159 181.284 55.2159 180.336C55.2159 179.392 55.3352 178.587 55.5739 177.919C55.8153 177.249 56.1619 176.738 56.6136 176.385C57.0682 176.03 57.6136 175.853 58.25 175.853C58.8864 175.853 59.4304 176.03 59.8821 176.385C60.3366 176.738 60.6832 177.249 60.9219 177.919C61.1634 178.587 61.2841 179.392 61.2841 180.336C61.2841 181.284 61.1648 182.094 60.9261 182.765C60.6875 183.432 60.3423 183.942 59.8906 184.294C59.4389 184.644 58.892 184.819 58.25 184.819ZM58.25 183.881C58.8864 183.881 59.3807 183.574 59.733 182.961C60.0852 182.347 60.2614 181.472 60.2614 180.336C60.2614 179.58 60.1804 178.936 60.0185 178.405C59.8594 177.874 59.6293 177.469 59.3281 177.191C59.0298 176.912 58.6705 176.773 58.25 176.773C57.6193 176.773 57.1264 177.084 56.7713 177.706C56.4162 178.326 56.2386 179.202 56.2386 180.336C56.2386 181.091 56.3182 181.733 56.4773 182.262C56.6364 182.79 56.8651 183.192 57.1634 183.468C57.4645 183.743 57.8267 183.881 58.25 183.881Z" fill="#727272"/>
<line x1="70.5" y1="180.699" x2="379.5" y2="180.699" stroke="#F5F5F5" stroke-linecap="round"/>
<path d="M58.25 226.619C57.608 226.619 57.0611 226.445 56.6094 226.095C56.1577 225.743 55.8125 225.233 55.5739 224.565C55.3352 223.895 55.2159 223.085 55.2159 222.136C55.2159 221.193 55.3352 220.388 55.5739 219.72C55.8153 219.05 56.1619 218.538 56.6136 218.186C57.0682 217.831 57.6136 217.653 58.25 217.653C58.8864 217.653 59.4304 217.831 59.8821 218.186C60.3366 218.538 60.6832 219.05 60.9219 219.72C61.1634 220.388 61.2841 221.193 61.2841 222.136C61.2841 223.085 61.1648 223.895 60.9261 224.565C60.6875 225.233 60.3423 225.743 59.8906 226.095C59.4389 226.445 58.892 226.619 58.25 226.619ZM58.25 225.682C58.8864 225.682 59.3807 225.375 59.733 224.761C60.0852 224.148 60.2614 223.273 60.2614 222.136C60.2614 221.381 60.1804 220.737 60.0185 220.206C59.8594 219.675 59.6293 219.27 59.3281 218.991C59.0298 218.713 58.6705 218.574 58.25 218.574C57.6193 218.574 57.1264 218.885 56.7713 219.507C56.4162 220.126 56.2386 221.003 56.2386 222.136C56.2386 222.892 56.3182 223.534 56.4773 224.062C56.6364 224.591 56.8651 224.993 57.1634 225.268C57.4645 225.544 57.8267 225.682 58.25 225.682Z" fill="#727272"/>
<line x1="70.5" y1="222.5" x2="379.5" y2="222.5" stroke="#F5F5F5" stroke-linecap="round"/>
<path d="M179.462 237.455C179.411 237.023 179.204 236.688 178.84 236.449C178.477 236.21 178.031 236.091 177.502 236.091C177.116 236.091 176.778 236.153 176.488 236.278C176.201 236.403 175.977 236.575 175.815 236.794C175.656 237.013 175.576 237.261 175.576 237.54C175.576 237.773 175.631 237.973 175.742 238.141C175.856 238.305 176.001 238.443 176.177 238.554C176.353 238.662 176.538 238.751 176.731 238.822C176.924 238.891 177.102 238.946 177.263 238.989L178.15 239.227C178.377 239.287 178.63 239.369 178.908 239.474C179.19 239.58 179.458 239.723 179.714 239.905C179.972 240.084 180.185 240.314 180.353 240.595C180.521 240.876 180.604 241.222 180.604 241.631C180.604 242.102 180.481 242.528 180.234 242.909C179.989 243.29 179.631 243.592 179.16 243.817C178.691 244.041 178.121 244.153 177.451 244.153C176.826 244.153 176.285 244.053 175.827 243.851C175.373 243.649 175.015 243.368 174.754 243.007C174.495 242.646 174.349 242.227 174.315 241.75H175.406C175.434 242.08 175.545 242.352 175.738 242.568C175.934 242.781 176.181 242.94 176.479 243.045C176.781 243.148 177.104 243.199 177.451 243.199C177.854 243.199 178.217 243.134 178.538 243.003C178.859 242.869 179.113 242.685 179.3 242.449C179.488 242.21 179.582 241.932 179.582 241.614C179.582 241.324 179.501 241.088 179.339 240.906C179.177 240.724 178.964 240.577 178.7 240.463C178.435 240.349 178.15 240.25 177.843 240.165L176.769 239.858C176.087 239.662 175.548 239.382 175.15 239.018C174.752 238.655 174.553 238.179 174.553 237.591C174.553 237.102 174.685 236.676 174.95 236.312C175.217 235.946 175.575 235.662 176.023 235.46C176.475 235.256 176.979 235.153 177.536 235.153C178.099 235.153 178.599 235.254 179.036 235.456C179.474 235.655 179.82 235.928 180.076 236.274C180.335 236.621 180.471 237.014 180.485 237.455H179.462ZM184.95 244.136C184.319 244.136 183.775 243.997 183.318 243.719C182.863 243.438 182.512 243.045 182.265 242.543C182.021 242.037 181.899 241.449 181.899 240.778C181.899 240.108 182.021 239.517 182.265 239.006C182.512 238.491 182.856 238.091 183.297 237.804C183.74 237.514 184.257 237.369 184.848 237.369C185.189 237.369 185.525 237.426 185.858 237.54C186.19 237.653 186.493 237.838 186.765 238.094C187.038 238.347 187.255 238.682 187.417 239.099C187.579 239.517 187.66 240.031 187.66 240.642V241.068H182.615V240.199H186.637C186.637 239.83 186.564 239.5 186.416 239.21C186.271 238.92 186.064 238.692 185.794 238.524C185.527 238.357 185.211 238.273 184.848 238.273C184.447 238.273 184.1 238.372 183.808 238.571C183.518 238.767 183.295 239.023 183.139 239.338C182.983 239.653 182.904 239.991 182.904 240.352V240.932C182.904 241.426 182.99 241.845 183.16 242.189C183.333 242.53 183.574 242.79 183.88 242.969C184.187 243.145 184.544 243.233 184.95 243.233C185.214 243.233 185.453 243.196 185.666 243.122C185.882 243.045 186.068 242.932 186.224 242.781C186.38 242.628 186.501 242.437 186.586 242.21L187.558 242.483C187.456 242.812 187.284 243.102 187.042 243.352C186.801 243.599 186.502 243.793 186.147 243.932C185.792 244.068 185.393 244.136 184.95 244.136ZM189.19 246.455V237.455H190.162V238.494H190.281C190.355 238.381 190.457 238.236 190.588 238.06C190.721 237.881 190.912 237.722 191.159 237.582C191.409 237.44 191.747 237.369 192.173 237.369C192.724 237.369 193.21 237.507 193.63 237.783C194.051 238.058 194.379 238.449 194.615 238.955C194.85 239.46 194.968 240.057 194.968 240.744C194.968 241.438 194.85 242.038 194.615 242.547C194.379 243.053 194.052 243.445 193.635 243.723C193.217 243.999 192.735 244.136 192.19 244.136C191.77 244.136 191.433 244.067 191.18 243.928C190.927 243.786 190.733 243.625 190.596 243.446C190.46 243.264 190.355 243.114 190.281 242.994H190.196V246.455H189.19ZM190.179 240.727C190.179 241.222 190.251 241.658 190.396 242.036C190.541 242.411 190.752 242.705 191.031 242.918C191.309 243.128 191.65 243.233 192.054 243.233C192.474 243.233 192.825 243.122 193.106 242.901C193.39 242.676 193.603 242.375 193.745 241.997C193.89 241.616 193.963 241.193 193.963 240.727C193.963 240.267 193.892 239.852 193.75 239.483C193.61 239.111 193.399 238.817 193.115 238.601C192.833 238.382 192.48 238.273 192.054 238.273C191.645 238.273 191.301 238.376 191.022 238.584C190.744 238.788 190.534 239.075 190.392 239.445C190.25 239.811 190.179 240.239 190.179 240.727ZM199.86 244V243.233L202.741 240.08C203.079 239.71 203.358 239.389 203.576 239.116C203.795 238.841 203.957 238.582 204.062 238.341C204.17 238.097 204.224 237.841 204.224 237.574C204.224 237.267 204.15 237.001 204.002 236.777C203.858 236.553 203.659 236.379 203.406 236.257C203.153 236.135 202.869 236.074 202.554 236.074C202.218 236.074 201.926 236.143 201.676 236.283C201.429 236.419 201.237 236.611 201.1 236.858C200.967 237.105 200.9 237.395 200.9 237.727H199.895C199.895 237.216 200.012 236.767 200.248 236.381C200.484 235.994 200.805 235.693 201.211 235.477C201.62 235.261 202.079 235.153 202.588 235.153C203.099 235.153 203.552 235.261 203.947 235.477C204.342 235.693 204.652 235.984 204.876 236.351C205.1 236.717 205.213 237.125 205.213 237.574C205.213 237.895 205.154 238.209 205.038 238.516C204.924 238.82 204.725 239.159 204.441 239.534C204.16 239.906 203.77 240.361 203.27 240.898L201.309 242.994V243.062H205.366V244H199.86ZM209.973 244.119C209.331 244.119 208.784 243.945 208.332 243.595C207.88 243.243 207.535 242.733 207.297 242.065C207.058 241.395 206.939 240.585 206.939 239.636C206.939 238.693 207.058 237.888 207.297 237.22C207.538 236.55 207.885 236.038 208.336 235.686C208.791 235.331 209.336 235.153 209.973 235.153C210.609 235.153 211.153 235.331 211.605 235.686C212.059 236.038 212.406 236.55 212.645 237.22C212.886 237.888 213.007 238.693 213.007 239.636C213.007 240.585 212.887 241.395 212.649 242.065C212.41 242.733 212.065 243.243 211.613 243.595C211.162 243.945 210.615 244.119 209.973 244.119ZM209.973 243.182C210.609 243.182 211.103 242.875 211.456 242.261C211.808 241.648 211.984 240.773 211.984 239.636C211.984 238.881 211.903 238.237 211.741 237.706C211.582 237.175 211.352 236.77 211.051 236.491C210.752 236.213 210.393 236.074 209.973 236.074C209.342 236.074 208.849 236.385 208.494 237.007C208.139 237.626 207.961 238.503 207.961 239.636C207.961 240.392 208.041 241.034 208.2 241.562C208.359 242.091 208.588 242.493 208.886 242.768C209.187 243.044 209.549 243.182 209.973 243.182ZM214.626 244V243.233L217.507 240.08C217.845 239.71 218.123 239.389 218.342 239.116C218.561 238.841 218.723 238.582 218.828 238.341C218.936 238.097 218.99 237.841 218.99 237.574C218.99 237.267 218.916 237.001 218.768 236.777C218.623 236.553 218.424 236.379 218.172 236.257C217.919 236.135 217.635 236.074 217.319 236.074C216.984 236.074 216.691 236.143 216.441 236.283C216.194 236.419 216.002 236.611 215.866 236.858C215.733 237.105 215.666 237.395 215.666 237.727H214.66C214.66 237.216 214.778 236.767 215.014 236.381C215.25 235.994 215.571 235.693 215.977 235.477C216.386 235.261 216.845 235.153 217.353 235.153C217.865 235.153 218.318 235.261 218.713 235.477C219.108 235.693 219.417 235.984 219.642 236.351C219.866 236.717 219.978 237.125 219.978 237.574C219.978 237.895 219.92 238.209 219.804 238.516C219.69 238.82 219.491 239.159 219.207 239.534C218.926 239.906 218.535 240.361 218.035 240.898L216.075 242.994V243.062H220.132V244H214.626ZM221.5 242.21V241.341L225.335 235.273H225.966V236.619H225.539L222.642 241.205V241.273H227.806V242.21H221.5ZM225.608 244V241.946V241.541V235.273H226.613V244H225.608Z" fill="#727272"/>
<circle cx="26" cy="259" r="4" fill="#886DE0"/>
<path d="M44.734 257.126C44.734 256.594 44.5753 256.169 44.258 255.852C43.9407 255.535 43.4367 255.376 42.746 255.376H40.506V258.862H42.76C43.2173 258.862 43.5907 258.792 43.88 258.652C44.1693 258.503 44.384 258.297 44.524 258.036C44.664 257.775 44.734 257.471 44.734 257.126ZM42.746 254.2C43.5207 254.2 44.1553 254.335 44.65 254.606C45.154 254.867 45.5273 255.217 45.77 255.656C46.022 256.095 46.148 256.585 46.148 257.126C46.148 257.481 46.0873 257.831 45.966 258.176C45.8447 258.521 45.6487 258.839 45.378 259.128C45.1073 259.408 44.7527 259.632 44.314 259.8C43.8847 259.959 43.3667 260.038 42.76 260.038H40.506V264H39.106V254.2H42.746ZM43.642 259.562L46.344 264H44.762L42.158 259.562H43.642ZM52.1784 264L52.0664 262.978C51.8517 263.333 51.5717 263.608 51.2264 263.804C50.8904 263.991 50.4517 264.084 49.9104 264.084C49.4064 264.084 48.9771 264.005 48.6224 263.846C48.2677 263.678 47.9924 263.449 47.7964 263.16C47.6097 262.861 47.5164 262.516 47.5164 262.124C47.5164 261.536 47.7357 261.051 48.1744 260.668C48.6131 260.276 49.2477 260.033 50.0784 259.94L52.0664 259.716V259.17C52.0664 258.871 51.9451 258.619 51.7024 258.414C51.4597 258.199 51.1097 258.092 50.6524 258.092C50.2231 258.092 49.8591 258.195 49.5604 258.4C49.2617 258.596 49.0611 258.89 48.9584 259.282L47.7824 258.862C47.9597 258.246 48.3051 257.765 48.8184 257.42C49.3411 257.075 49.9711 256.902 50.7084 256.902C51.5857 256.902 52.2531 257.121 52.7104 257.56C53.1677 257.999 53.3964 258.577 53.3964 259.296V264H52.1784ZM52.0664 260.794L50.1484 261.032C49.7377 261.088 49.4297 261.205 49.2244 261.382C49.0191 261.55 48.9164 261.774 48.9164 262.054C48.9164 262.315 49.0144 262.535 49.2104 262.712C49.4157 262.88 49.7004 262.964 50.0644 262.964C50.5124 262.964 50.8857 262.88 51.1844 262.712C51.4831 262.544 51.7024 262.311 51.8424 262.012C51.9917 261.704 52.0664 261.349 52.0664 260.948V260.794ZM55.7392 257V255.04H57.0692V257H58.8192V258.176H57.0692V261.62C57.0692 262.049 57.1532 262.353 57.3212 262.53C57.4985 262.707 57.7179 262.81 57.9792 262.838C58.2499 262.857 58.5299 262.847 58.8192 262.81V263.944C58.4365 264.028 58.0585 264.051 57.6852 264.014C57.3212 263.986 56.9899 263.883 56.6912 263.706C56.4019 263.529 56.1685 263.272 55.9912 262.936C55.8232 262.591 55.7392 262.152 55.7392 261.62V258.176H54.7312V257H55.7392ZM63.3331 264.098C62.6611 264.098 62.0638 263.944 61.5411 263.636C61.0278 263.319 60.6218 262.885 60.3231 262.334C60.0338 261.783 59.8891 261.153 59.8891 260.444C59.8891 259.763 60.0338 259.156 60.3231 258.624C60.6124 258.092 61.0091 257.672 61.5131 257.364C62.0264 257.056 62.6051 256.902 63.2491 256.902C63.9024 256.902 64.4811 257.047 64.9851 257.336C65.4891 257.616 65.8811 258.013 66.1611 258.526C66.4411 259.03 66.5764 259.613 66.5671 260.276C66.5671 260.388 66.5624 260.505 66.5531 260.626C66.5438 260.738 66.5298 260.864 66.5111 261.004H61.3311C61.3591 261.377 61.4618 261.709 61.6391 261.998C61.8258 262.278 62.0591 262.497 62.3391 262.656C62.6284 262.815 62.9551 262.894 63.3191 262.894C63.7858 262.894 64.1918 262.805 64.5371 262.628C64.8824 262.441 65.1251 262.194 65.2651 261.886L66.4131 262.292C66.1331 262.861 65.7224 263.305 65.1811 263.622C64.6491 263.939 64.0331 264.098 63.3331 264.098ZM65.1251 259.87C65.1251 259.534 65.0411 259.231 64.8731 258.96C64.7051 258.689 64.4764 258.479 64.1871 258.33C63.9071 258.171 63.5898 258.092 63.2351 258.092C62.9178 258.092 62.6238 258.171 62.3531 258.33C62.0918 258.479 61.8678 258.689 61.6811 258.96C61.5038 259.221 61.3918 259.525 61.3451 259.87H65.1251ZM76.8816 257H78.2536L74.1936 266.8H72.8916L74.1236 263.86L71.3516 257H72.8076L74.8376 262.306L76.8816 257ZM82.447 264.098C81.7844 264.098 81.187 263.953 80.655 263.664C80.1324 263.365 79.7217 262.95 79.423 262.418C79.1244 261.877 78.975 261.242 78.975 260.514C78.975 259.777 79.129 259.137 79.437 258.596C79.745 258.055 80.165 257.639 80.697 257.35C81.229 257.051 81.8264 256.902 82.489 256.902C83.1517 256.902 83.749 257.051 84.281 257.35C84.8224 257.639 85.247 258.055 85.555 258.596C85.863 259.128 86.017 259.758 86.017 260.486C86.017 261.223 85.8584 261.863 85.541 262.404C85.233 262.945 84.8084 263.365 84.267 263.664C83.7257 263.953 83.119 264.098 82.447 264.098ZM82.433 262.894C82.8064 262.894 83.1564 262.81 83.483 262.642C83.8097 262.465 84.0757 262.199 84.281 261.844C84.4957 261.489 84.603 261.037 84.603 260.486C84.603 259.945 84.5004 259.501 84.295 259.156C84.099 258.801 83.8377 258.54 83.511 258.372C83.1844 258.195 82.8344 258.106 82.461 258.106C82.097 258.106 81.7564 258.195 81.439 258.372C81.131 258.54 80.879 258.801 80.683 259.156C80.487 259.511 80.389 259.963 80.389 260.514C80.389 261.055 80.4824 261.503 80.669 261.858C80.865 262.203 81.117 262.465 81.425 262.642C81.733 262.81 82.069 262.894 82.433 262.894ZM93.4772 264H92.2732L92.1752 263.174C91.9512 263.473 91.6665 263.701 91.3212 263.86C90.9852 264.019 90.6072 264.098 90.1872 264.098C89.6459 264.098 89.1745 263.986 88.7732 263.762C88.3719 263.529 88.0592 263.193 87.8352 262.754C87.6205 262.306 87.5132 261.751 87.5132 261.088V257H88.8432V260.92C88.8432 261.564 88.9739 262.054 89.2352 262.39C89.5059 262.726 89.9119 262.894 90.4532 262.894C90.9852 262.894 91.4005 262.721 91.6992 262.376C92.0072 262.031 92.1612 261.517 92.1612 260.836V257H93.4772V264ZM95.4728 257H96.6768L96.7608 257.938C96.9568 257.695 97.1808 257.495 97.4328 257.336C97.6942 257.168 97.9742 257.051 98.2728 256.986C98.5808 256.921 98.8982 256.925 99.2248 257V258.246C98.9168 258.171 98.6182 258.162 98.3288 258.218C98.0395 258.274 97.7782 258.395 97.5448 258.582C97.3208 258.759 97.1388 258.997 96.9988 259.296C96.8588 259.595 96.7888 259.954 96.7888 260.374V264H95.4728V257ZM107.549 264.098C106.886 264.098 106.289 263.953 105.757 263.664C105.234 263.365 104.823 262.95 104.525 262.418C104.226 261.877 104.077 261.242 104.077 260.514C104.077 259.777 104.231 259.137 104.539 258.596C104.847 258.055 105.267 257.639 105.799 257.35C106.331 257.051 106.928 256.902 107.591 256.902C108.253 256.902 108.851 257.051 109.383 257.35C109.924 257.639 110.349 258.055 110.657 258.596C110.965 259.128 111.119 259.758 111.119 260.486C111.119 261.223 110.96 261.863 110.643 262.404C110.335 262.945 109.91 263.365 109.369 263.664C108.827 263.953 108.221 264.098 107.549 264.098ZM107.535 262.894C107.908 262.894 108.258 262.81 108.585 262.642C108.911 262.465 109.177 262.199 109.383 261.844C109.597 261.489 109.705 261.037 109.705 260.486C109.705 259.945 109.602 259.501 109.397 259.156C109.201 258.801 108.939 258.54 108.613 258.372C108.286 258.195 107.936 258.106 107.563 258.106C107.199 258.106 106.858 258.195 106.541 258.372C106.233 258.54 105.981 258.801 105.785 259.156C105.589 259.511 105.491 259.963 105.491 260.514C105.491 261.055 105.584 261.503 105.771 261.858C105.967 262.203 106.219 262.465 106.527 262.642C106.835 262.81 107.171 262.894 107.535 262.894ZM113.346 257L115.362 262.586L117.392 257H118.792L116.062 264H114.634L111.918 257H113.346ZM123.403 264.084C123.151 264.084 122.936 263.995 122.759 263.818C122.581 263.641 122.493 263.426 122.493 263.174C122.493 262.913 122.581 262.693 122.759 262.516C122.936 262.339 123.151 262.25 123.403 262.25C123.655 262.25 123.869 262.339 124.047 262.516C124.224 262.693 124.313 262.913 124.313 263.174C124.313 263.426 124.224 263.641 124.047 263.818C123.869 263.995 123.655 264.084 123.403 264.084ZM126.105 264.084C125.853 264.084 125.638 263.995 125.461 263.818C125.283 263.641 125.195 263.426 125.195 263.174C125.195 262.913 125.283 262.693 125.461 262.516C125.638 262.339 125.853 262.25 126.105 262.25C126.357 262.25 126.571 262.339 126.749 262.516C126.926 262.693 127.015 262.913 127.015 263.174C127.015 263.426 126.926 263.641 126.749 263.818C126.571 263.995 126.357 264.084 126.105 264.084ZM120.715 264.084C120.463 264.084 120.248 263.995 120.071 263.818C119.893 263.641 119.805 263.426 119.805 263.174C119.805 262.913 119.893 262.693 120.071 262.516C120.248 262.339 120.463 262.25 120.715 262.25C120.967 262.25 121.181 262.339 121.359 262.516C121.536 262.693 121.625 262.913 121.625 263.174C121.625 263.426 121.536 263.641 121.359 263.818C121.181 263.995 120.967 264.084 120.715 264.084Z" fill="#2F2F2F"/>
<circle cx="149.667" cy="259" r="4" fill="#FF9696"/>
<path d="M162.773 254.2H164.173V258.442H169.101V254.2H170.487V264H169.101V259.618H164.173V264H162.773V254.2ZM175.68 264.098C175.017 264.098 174.42 263.953 173.888 263.664C173.365 263.365 172.955 262.95 172.656 262.418C172.357 261.877 172.208 261.242 172.208 260.514C172.208 259.777 172.362 259.137 172.67 258.596C172.978 258.055 173.398 257.639 173.93 257.35C174.462 257.051 175.059 256.902 175.722 256.902C176.385 256.902 176.982 257.051 177.514 257.35C178.055 257.639 178.48 258.055 178.788 258.596C179.096 259.128 179.25 259.758 179.25 260.486C179.25 261.223 179.091 261.863 178.774 262.404C178.466 262.945 178.041 263.365 177.5 263.664C176.959 263.953 176.352 264.098 175.68 264.098ZM175.666 262.894C176.039 262.894 176.389 262.81 176.716 262.642C177.043 262.465 177.309 262.199 177.514 261.844C177.729 261.489 177.836 261.037 177.836 260.486C177.836 259.945 177.733 259.501 177.528 259.156C177.332 258.801 177.071 258.54 176.744 258.372C176.417 258.195 176.067 258.106 175.694 258.106C175.33 258.106 174.989 258.195 174.672 258.372C174.364 258.54 174.112 258.801 173.916 259.156C173.72 259.511 173.622 259.963 173.622 260.514C173.622 261.055 173.715 261.503 173.902 261.858C174.098 262.203 174.35 262.465 174.658 262.642C174.966 262.81 175.302 262.894 175.666 262.894ZM183.508 264H182.248L180.05 257H181.394L182.864 262.432L184.432 257H185.692L187.204 262.404L188.66 257H189.962L187.792 264H186.518L185.02 258.918L183.508 264ZM195.227 253.92H196.543V264H195.227V253.92ZM198.76 257H200.09V264H198.76V257ZM199.432 255.768C199.18 255.768 198.97 255.684 198.802 255.516C198.634 255.348 198.55 255.143 198.55 254.9C198.55 254.648 198.634 254.438 198.802 254.27C198.97 254.093 199.18 254.004 199.432 254.004C199.674 254.004 199.88 254.093 200.048 254.27C200.225 254.438 200.314 254.648 200.314 254.9C200.314 255.143 200.225 255.348 200.048 255.516C199.88 255.684 199.674 255.768 199.432 255.768ZM202.296 253.92H203.626V259.926H204.2L206.818 257H208.61L205.362 260.5L208.624 264H206.818L204.2 261.06H203.626V264H202.296V253.92ZM212.498 264.098C211.826 264.098 211.229 263.944 210.706 263.636C210.193 263.319 209.787 262.885 209.488 262.334C209.199 261.783 209.054 261.153 209.054 260.444C209.054 259.763 209.199 259.156 209.488 258.624C209.777 258.092 210.174 257.672 210.678 257.364C211.191 257.056 211.77 256.902 212.414 256.902C213.067 256.902 213.646 257.047 214.15 257.336C214.654 257.616 215.046 258.013 215.326 258.526C215.606 259.03 215.741 259.613 215.732 260.276C215.732 260.388 215.727 260.505 215.718 260.626C215.709 260.738 215.695 260.864 215.676 261.004H210.496C210.524 261.377 210.627 261.709 210.804 261.998C210.991 262.278 211.224 262.497 211.504 262.656C211.793 262.815 212.12 262.894 212.484 262.894C212.951 262.894 213.357 262.805 213.702 262.628C214.047 262.441 214.29 262.194 214.43 261.886L215.578 262.292C215.298 262.861 214.887 263.305 214.346 263.622C213.814 263.939 213.198 264.098 212.498 264.098ZM214.29 259.87C214.29 259.534 214.206 259.231 214.038 258.96C213.87 258.689 213.641 258.479 213.352 258.33C213.072 258.171 212.755 258.092 212.4 258.092C212.083 258.092 211.789 258.171 211.518 258.33C211.257 258.479 211.033 258.689 210.846 258.96C210.669 259.221 210.557 259.525 210.51 259.87H214.29ZM217.349 253.92H218.665V264H217.349V253.92ZM225.445 257H226.817L222.757 266.8H221.455L222.687 263.86L219.915 257H221.371L223.401 262.306L225.445 257ZM236.275 264L236.163 262.978C235.948 263.333 235.668 263.608 235.323 263.804C234.987 263.991 234.548 264.084 234.007 264.084C233.503 264.084 233.073 264.005 232.719 263.846C232.364 263.678 232.089 263.449 231.893 263.16C231.706 262.861 231.613 262.516 231.613 262.124C231.613 261.536 231.832 261.051 232.271 260.668C232.709 260.276 233.344 260.033 234.175 259.94L236.163 259.716V259.17C236.163 258.871 236.041 258.619 235.799 258.414C235.556 258.199 235.206 258.092 234.749 258.092C234.319 258.092 233.955 258.195 233.657 258.4C233.358 258.596 233.157 258.89 233.055 259.282L231.879 258.862C232.056 258.246 232.401 257.765 232.915 257.42C233.437 257.075 234.067 256.902 234.805 256.902C235.682 256.902 236.349 257.121 236.807 257.56C237.264 257.999 237.493 258.577 237.493 259.296V264H236.275ZM236.163 260.794L234.245 261.032C233.834 261.088 233.526 261.205 233.321 261.382C233.115 261.55 233.013 261.774 233.013 262.054C233.013 262.315 233.111 262.535 233.307 262.712C233.512 262.88 233.797 262.964 234.161 262.964C234.609 262.964 234.982 262.88 235.281 262.712C235.579 262.544 235.799 262.311 235.939 262.012C236.088 261.704 236.163 261.349 236.163 260.948V260.794ZM239.388 257H240.592L240.676 257.938C240.872 257.695 241.096 257.495 241.348 257.336C241.609 257.168 241.889 257.051 242.188 256.986C242.496 256.921 242.813 256.925 243.14 257V258.246C242.832 258.171 242.533 258.162 242.244 258.218C241.954 258.274 241.693 258.395 241.46 258.582C241.236 258.759 241.054 258.997 240.914 259.296C240.774 259.595 240.704 259.954 240.704 260.374V264H239.388V257ZM247.753 264.084C247.501 264.084 247.286 263.995 247.109 263.818C246.931 263.641 246.843 263.426 246.843 263.174C246.843 262.913 246.931 262.693 247.109 262.516C247.286 262.339 247.501 262.25 247.753 262.25C248.005 262.25 248.219 262.339 248.397 262.516C248.574 262.693 248.663 262.913 248.663 263.174C248.663 263.426 248.574 263.641 248.397 263.818C248.219 263.995 248.005 264.084 247.753 264.084ZM250.455 264.084C250.203 264.084 249.988 263.995 249.811 263.818C249.633 263.641 249.545 263.426 249.545 263.174C249.545 262.913 249.633 262.693 249.811 262.516C249.988 262.339 250.203 262.25 250.455 262.25C250.707 262.25 250.921 262.339 251.099 262.516C251.276 262.693 251.365 262.913 251.365 263.174C251.365 263.426 251.276 263.641 251.099 263.818C250.921 263.995 250.707 264.084 250.455 264.084ZM245.065 264.084C244.813 264.084 244.598 263.995 244.421 263.818C244.243 263.641 244.155 263.426 244.155 263.174C244.155 262.913 244.243 262.693 244.421 262.516C244.598 262.339 244.813 262.25 245.065 262.25C245.317 262.25 245.531 262.339 245.709 262.516C245.886 262.693 245.975 262.913 245.975 263.174C245.975 263.426 245.886 263.641 245.709 263.818C245.531 263.995 245.317 264.084 245.065 264.084Z" fill="#2F2F2F"/>
<circle cx="273.333" cy="259" r="4" fill="#238DB8"/>
<path d="M290.051 264H288.497L285.697 254.2H287.195L289.281 262.376L291.521 254.2H293.075L295.301 262.348L297.401 254.2H298.871L296.085 264H294.517L292.291 256.286L290.051 264ZM300.259 253.92H301.575V257.77C301.799 257.499 302.089 257.289 302.443 257.14C302.798 256.981 303.19 256.902 303.619 256.902C304.142 256.902 304.599 257.019 304.991 257.252C305.393 257.476 305.705 257.817 305.929 258.274C306.153 258.722 306.265 259.282 306.265 259.954V264H304.879V260.122C304.879 259.469 304.744 258.969 304.473 258.624C304.203 258.279 303.806 258.106 303.283 258.106C302.742 258.106 302.322 258.283 302.023 258.638C301.725 258.993 301.575 259.511 301.575 260.192V264H300.259V253.92ZM308.385 257H309.715V264H308.385V257ZM309.057 255.768C308.805 255.768 308.595 255.684 308.427 255.516C308.259 255.348 308.175 255.143 308.175 254.9C308.175 254.648 308.259 254.438 308.427 254.27C308.595 254.093 308.805 254.004 309.057 254.004C309.3 254.004 309.505 254.093 309.673 254.27C309.851 254.438 309.939 254.648 309.939 254.9C309.939 255.143 309.851 255.348 309.673 255.516C309.505 255.684 309.3 255.768 309.057 255.768ZM314.917 264.098C314.245 264.098 313.653 263.949 313.139 263.65C312.626 263.342 312.225 262.922 311.935 262.39C311.655 261.858 311.515 261.237 311.515 260.528C311.515 259.809 311.66 259.179 311.949 258.638C312.239 258.097 312.64 257.672 313.153 257.364C313.667 257.056 314.264 256.902 314.945 256.902C315.664 256.902 316.294 257.07 316.835 257.406C317.386 257.742 317.783 258.195 318.025 258.764L316.835 259.184C316.695 258.857 316.457 258.596 316.121 258.4C315.795 258.204 315.421 258.106 315.001 258.106C314.572 258.106 314.203 258.209 313.895 258.414C313.587 258.61 313.349 258.89 313.181 259.254C313.013 259.609 312.929 260.029 312.929 260.514C312.929 261.242 313.116 261.821 313.489 262.25C313.863 262.679 314.367 262.894 315.001 262.894C315.421 262.894 315.795 262.801 316.121 262.614C316.457 262.427 316.709 262.171 316.877 261.844L318.053 262.264C317.792 262.824 317.381 263.272 316.821 263.608C316.261 263.935 315.627 264.098 314.917 264.098ZM319.66 253.92H320.976V257.77C321.2 257.499 321.489 257.289 321.844 257.14C322.198 256.981 322.59 256.902 323.02 256.902C323.542 256.902 324 257.019 324.392 257.252C324.793 257.476 325.106 257.817 325.33 258.274C325.554 258.722 325.666 259.282 325.666 259.954V264H324.28V260.122C324.28 259.469 324.144 258.969 323.874 258.624C323.603 258.279 323.206 258.106 322.684 258.106C322.142 258.106 321.722 258.283 321.424 258.638C321.125 258.993 320.976 259.511 320.976 260.192V264H319.66V253.92ZM334.566 264.098C333.903 264.098 333.306 263.953 332.774 263.664C332.251 263.365 331.84 262.95 331.542 262.418C331.243 261.877 331.094 261.242 331.094 260.514C331.094 259.777 331.248 259.137 331.556 258.596C331.864 258.055 332.284 257.639 332.816 257.35C333.348 257.051 333.945 256.902 334.608 256.902C335.27 256.902 335.868 257.051 336.4 257.35C336.941 257.639 337.366 258.055 337.674 258.596C337.982 259.128 338.136 259.758 338.136 260.486C338.136 261.223 337.977 261.863 337.66 262.404C337.352 262.945 336.927 263.365 336.386 263.664C335.844 263.953 335.238 264.098 334.566 264.098ZM334.552 262.894C334.925 262.894 335.275 262.81 335.602 262.642C335.928 262.465 336.194 262.199 336.4 261.844C336.614 261.489 336.722 261.037 336.722 260.486C336.722 259.945 336.619 259.501 336.414 259.156C336.218 258.801 335.956 258.54 335.63 258.372C335.303 258.195 334.953 258.106 334.58 258.106C334.216 258.106 333.875 258.195 333.558 258.372C333.25 258.54 332.998 258.801 332.802 259.156C332.606 259.511 332.508 259.963 332.508 260.514C332.508 261.055 332.601 261.503 332.788 261.858C332.984 262.203 333.236 262.465 333.544 262.642C333.852 262.81 334.188 262.894 334.552 262.894ZM340.08 256.216C340.08 255.684 340.168 255.236 340.346 254.872C340.532 254.508 340.817 254.247 341.2 254.088C341.582 253.92 342.086 253.864 342.712 253.92V255.082C342.226 255.035 341.886 255.11 341.69 255.306C341.503 255.502 341.41 255.805 341.41 256.216V257H342.796V258.176H341.41V264H340.08V258.176H339.184V257H340.08V256.216ZM348.641 257V255.04H349.971V257H351.721V258.176H349.971V261.62C349.971 262.049 350.055 262.353 350.223 262.53C350.4 262.707 350.62 262.81 350.881 262.838C351.152 262.857 351.432 262.847 351.721 262.81V263.944C351.338 264.028 350.96 264.051 350.587 264.014C350.223 263.986 349.892 263.883 349.593 263.706C349.304 263.529 349.07 263.272 348.893 262.936C348.725 262.591 348.641 262.152 348.641 261.62V258.176H347.633V257H348.641ZM353.197 253.92H354.513V257.77C354.737 257.499 355.026 257.289 355.381 257.14C355.736 256.981 356.128 256.902 356.557 256.902C357.08 256.902 357.537 257.019 357.929 257.252C358.33 257.476 358.643 257.817 358.867 258.274C359.091 258.722 359.203 259.282 359.203 259.954V264H357.817V260.122C357.817 259.469 357.682 258.969 357.411 258.624C357.14 258.279 356.744 258.106 356.221 258.106C355.68 258.106 355.26 258.283 354.961 258.638C354.662 258.993 354.513 259.511 354.513 260.192V264H353.197V253.92ZM364.151 264.098C363.479 264.098 362.882 263.944 362.359 263.636C361.846 263.319 361.44 262.885 361.141 262.334C360.852 261.783 360.707 261.153 360.707 260.444C360.707 259.763 360.852 259.156 361.141 258.624C361.43 258.092 361.827 257.672 362.331 257.364C362.844 257.056 363.423 256.902 364.067 256.902C364.72 256.902 365.299 257.047 365.803 257.336C366.307 257.616 366.699 258.013 366.979 258.526C367.259 259.03 367.394 259.613 367.385 260.276C367.385 260.388 367.38 260.505 367.371 260.626C367.362 260.738 367.348 260.864 367.329 261.004H362.149C362.177 261.377 362.28 261.709 362.457 261.998C362.644 262.278 362.877 262.497 363.157 262.656C363.446 262.815 363.773 262.894 364.137 262.894C364.604 262.894 365.01 262.805 365.355 262.628C365.7 262.441 365.943 262.194 366.083 261.886L367.231 262.292C366.951 262.861 366.54 263.305 365.999 263.622C365.467 263.939 364.851 264.098 364.151 264.098ZM365.943 259.87C365.943 259.534 365.859 259.231 365.691 258.96C365.523 258.689 365.294 258.479 365.005 258.33C364.725 258.171 364.408 258.092 364.053 258.092C363.736 258.092 363.442 258.171 363.171 258.33C362.91 258.479 362.686 258.689 362.499 258.96C362.322 259.221 362.21 259.525 362.163 259.87H365.943ZM372.418 264.084C372.166 264.084 371.951 263.995 371.774 263.818C371.596 263.641 371.508 263.426 371.508 263.174C371.508 262.913 371.596 262.693 371.774 262.516C371.951 262.339 372.166 262.25 372.418 262.25C372.67 262.25 372.884 262.339 373.062 262.516C373.239 262.693 373.328 262.913 373.328 263.174C373.328 263.426 373.239 263.641 373.062 263.818C372.884 263.995 372.67 264.084 372.418 264.084ZM375.12 264.084C374.868 264.084 374.653 263.995 374.476 263.818C374.298 263.641 374.21 263.426 374.21 263.174C374.21 262.913 374.298 262.693 374.476 262.516C374.653 262.339 374.868 262.25 375.12 262.25C375.372 262.25 375.586 262.339 375.764 262.516C375.941 262.693 376.03 262.913 376.03 263.174C376.03 263.426 375.941 263.641 375.764 263.818C375.586 263.995 375.372 264.084 375.12 264.084ZM369.73 264.084C369.478 264.084 369.263 263.995 369.086 263.818C368.908 263.641 368.82 263.426 368.82 263.174C368.82 262.913 368.908 262.693 369.086 262.516C369.263 262.339 369.478 262.25 369.73 262.25C369.982 262.25 370.196 262.339 370.374 262.516C370.551 262.693 370.64 262.913 370.64 263.174C370.64 263.426 370.551 263.641 370.374 263.818C370.196 263.995 369.982 264.084 369.73 264.084Z" fill="#2F2F2F"/>
<g clip-path="url(#clip0_1152_66419)">
<g clip-path="url(#clip1_1152_66419)">
<path d="M151 75.7129C151 72.3992 153.686 69.7129 157 69.7129H177C180.314 69.7129 183 72.3992 183 75.7129V222.713H151V75.7129Z" fill="#886DE0"/>
<path d="M204 43.7129C204 40.3992 206.686 37.7129 210 37.7129H230C233.314 37.7129 236 40.3992 236 43.7129V222.713H204V43.7129Z" fill="#FF9696"/>
<path d="M257 107.713C257 104.399 259.686 101.713 263 101.713H283C286.314 101.713 289 104.399 289 107.713V222.713H257V107.713Z" fill="#238DB8"/>
</g>
</g>
<defs>
<clipPath id="clip0_1152_66419">
<rect width="320" height="201" fill="white" transform="translate(60 21)"/>
</clipPath>
<clipPath id="clip1_1152_66419">
<rect width="178" height="201" fill="white" transform="translate(131 21.7129)"/>
</clipPath>
</defs>
</svg>
