<svg width="680" height="255" viewBox="0 0 680 255" fill="none" xmlns="http://www.w3.org/2000/svg">
<path d="M8.862 150.846C8.862 150.389 8.792 150.016 8.652 149.726C8.50267 149.428 8.29733 149.208 8.036 149.068C7.77467 148.928 7.47133 148.858 7.126 148.858C6.57533 148.858 6.146 149.017 5.838 149.334C5.53 149.652 5.376 150.156 5.376 150.846L5.376 153.1L8.862 153.1L8.862 150.846ZM7.126 147.458C7.48067 147.458 7.83533 147.519 8.19 147.64C8.53533 147.762 8.848 147.958 9.128 148.228C9.408 148.499 9.632 148.854 9.8 149.292C9.95867 149.722 10.038 150.24 10.038 150.846L10.038 153.1L14 153.1L14 154.5L4.2 154.5L4.2 150.846C4.2 150.081 4.33533 149.451 4.606 148.956C4.86733 148.452 5.222 148.079 5.67 147.836C6.10867 147.584 6.594 147.458 7.126 147.458ZM14.098 143.385C14.098 144.057 13.944 144.654 13.636 145.177C13.3187 145.69 12.8847 146.096 12.334 146.395C11.7833 146.684 11.1533 146.829 10.444 146.829C9.76267 146.829 9.156 146.684 8.624 146.395C8.092 146.105 7.672 145.709 7.364 145.205C7.056 144.691 6.902 144.113 6.902 143.469C6.902 142.815 7.04667 142.237 7.336 141.733C7.616 141.229 8.01267 140.837 8.526 140.557C9.03 140.277 9.61333 140.141 10.276 140.151C10.388 140.151 10.5047 140.155 10.626 140.165C10.738 140.174 10.864 140.188 11.004 140.207L11.004 145.387C11.3773 145.359 11.7087 145.256 11.998 145.079C12.278 144.892 12.4973 144.659 12.656 144.379C12.8147 144.089 12.894 143.763 12.894 143.399C12.894 142.932 12.8053 142.526 12.628 142.181C12.4413 141.835 12.194 141.593 11.886 141.453L12.292 140.305C12.8613 140.585 13.3047 140.995 13.622 141.537C13.9393 142.069 14.098 142.685 14.098 143.385ZM9.87 141.593C9.534 141.593 9.23067 141.677 8.96 141.845C8.68933 142.013 8.47933 142.241 8.33 142.531C8.17133 142.811 8.092 143.128 8.092 143.483C8.092 143.8 8.17133 144.094 8.33 144.365C8.47933 144.626 8.68933 144.85 8.96 145.037C9.22133 145.214 9.52467 145.326 9.87 145.373L9.87 141.593ZM7 138.534L7 137.33L7.938 137.246C7.69533 137.05 7.49467 136.826 7.336 136.574C7.168 136.313 7.05133 136.033 6.986 135.734C6.92067 135.426 6.92533 135.109 7 134.782L8.246 134.782C8.17133 135.09 8.162 135.389 8.218 135.678C8.274 135.967 8.39533 136.229 8.582 136.462C8.75933 136.686 8.99733 136.868 9.296 137.008C9.59467 137.148 9.954 137.218 10.374 137.218L14 137.218L14 138.534L7 138.534ZM14.098 130.589C14.098 131.261 13.9487 131.853 13.65 132.367C13.342 132.88 12.922 133.281 12.39 133.571C11.858 133.851 11.2373 133.991 10.528 133.991C9.80933 133.991 9.17933 133.846 8.638 133.557C8.09667 133.267 7.672 132.866 7.364 132.353C7.056 131.839 6.902 131.242 6.902 130.561C6.902 129.842 7.07 129.212 7.406 128.671C7.742 128.12 8.19467 127.723 8.764 127.481L9.184 128.671C8.85733 128.811 8.596 129.049 8.4 129.385C8.204 129.711 8.106 130.085 8.106 130.505C8.106 130.934 8.20867 131.303 8.414 131.611C8.61 131.919 8.89 132.157 9.254 132.325C9.60867 132.493 10.0287 132.577 10.514 132.577C11.242 132.577 11.8207 132.39 12.25 132.017C12.6793 131.643 12.894 131.139 12.894 130.505C12.894 130.085 12.8007 129.711 12.614 129.385C12.4273 129.049 12.1707 128.797 11.844 128.629L12.264 127.453C12.824 127.714 13.272 128.125 13.608 128.685C13.9347 129.245 14.098 129.879 14.098 130.589ZM14.098 122.808C14.098 123.48 13.944 124.078 13.636 124.6C13.3187 125.114 12.8847 125.52 12.334 125.818C11.7833 126.108 11.1533 126.252 10.444 126.252C9.76267 126.252 9.156 126.108 8.624 125.818C8.092 125.529 7.672 125.132 7.364 124.628C7.056 124.115 6.902 123.536 6.902 122.892C6.902 122.239 7.04666 121.66 7.336 121.156C7.616 120.652 8.01266 120.26 8.526 119.98C9.03 119.7 9.61333 119.565 10.276 119.574C10.388 119.574 10.5047 119.579 10.626 119.588C10.738 119.598 10.864 119.612 11.004 119.63L11.004 124.81C11.3773 124.782 11.7087 124.68 11.998 124.502C12.278 124.316 12.4973 124.082 12.656 123.802C12.8147 123.513 12.894 123.186 12.894 122.822C12.894 122.356 12.8053 121.95 12.628 121.604C12.4413 121.259 12.194 121.016 11.886 120.876L12.292 119.728C12.8613 120.008 13.3047 120.419 13.622 120.96C13.9393 121.492 14.098 122.108 14.098 122.808ZM9.87 121.016C9.534 121.016 9.23066 121.1 8.96 121.268C8.68933 121.436 8.47933 121.665 8.33 121.954C8.17133 122.234 8.092 122.552 8.092 122.906C8.092 123.224 8.17133 123.518 8.33 123.788C8.47933 124.05 8.68933 124.274 8.96 124.46C9.22133 124.638 9.52467 124.75 9.87 124.796L9.87 121.016ZM7 117.958L7 116.754L7.812 116.67C7.52266 116.446 7.29866 116.161 7.14 115.816C6.98133 115.47 6.902 115.088 6.902 114.668C6.902 114.126 7.01866 113.66 7.252 113.268C7.476 112.866 7.812 112.558 8.26 112.344C8.708 112.12 9.268 112.008 9.94 112.008L14 112.008L14 113.324L10.108 113.324C9.45466 113.324 8.96 113.464 8.624 113.744C8.27866 114.014 8.106 114.411 8.106 114.934C8.106 115.475 8.28333 115.895 8.638 116.194C8.98333 116.492 9.49666 116.642 10.178 116.642L14 116.642L14 117.958L7 117.958ZM7 109.662L5.04 109.662L5.04 108.332L7 108.332L7 106.582L8.176 106.582L8.176 108.332L11.62 108.332C12.0493 108.332 12.3527 108.248 12.53 108.08C12.7073 107.903 12.81 107.683 12.838 107.422C12.8567 107.151 12.8473 106.871 12.81 106.582L13.944 106.582C14.028 106.965 14.0513 107.343 14.014 107.716C13.986 108.08 13.8833 108.411 13.706 108.71C13.5287 108.999 13.272 109.233 12.936 109.41C12.5907 109.578 12.152 109.662 11.62 109.662L8.176 109.662L8.176 110.67L7 110.67L7 109.662ZM14 100.836L12.978 100.948C13.3327 101.163 13.608 101.443 13.804 101.788C13.9907 102.124 14.084 102.563 14.084 103.104C14.084 103.608 14.0047 104.038 13.846 104.392C13.678 104.747 13.4493 105.022 13.16 105.218C12.8613 105.405 12.516 105.498 12.124 105.498C11.536 105.498 11.0507 105.279 10.668 104.84C10.276 104.402 10.0333 103.767 9.94 102.936L9.716 100.948L9.17 100.948C8.87133 100.948 8.61933 101.07 8.414 101.312C8.19933 101.555 8.092 101.905 8.092 102.362C8.092 102.792 8.19466 103.156 8.4 103.454C8.596 103.753 8.89 103.954 9.282 104.056L8.862 105.232C8.246 105.055 7.76533 104.71 7.42 104.196C7.07466 103.674 6.902 103.044 6.902 102.306C6.902 101.429 7.12133 100.762 7.56 100.304C7.99866 99.8469 8.57733 99.6183 9.296 99.6183L14 99.6183L14 100.836ZM10.794 100.948L11.032 102.866C11.088 103.277 11.2047 103.585 11.382 103.79C11.55 103.996 11.774 104.098 12.054 104.098C12.3153 104.098 12.5347 104 12.712 103.804C12.88 103.599 12.964 103.314 12.964 102.95C12.964 102.502 12.88 102.129 12.712 101.83C12.544 101.532 12.3107 101.312 12.012 101.172C11.704 101.023 11.3493 100.948 10.948 100.948L10.794 100.948ZM7 92.4734L7 91.2694L12.852 91.2694C13.6733 91.2694 14.378 91.4654 14.966 91.8574C15.554 92.2494 16.0067 92.8141 16.324 93.5514C16.6413 94.2794 16.8 95.1614 16.8 96.1974L15.638 96.4074C15.61 95.1568 15.358 94.2094 14.882 93.5654C14.4153 92.9214 13.7387 92.5994 12.852 92.5994L12.782 92.5994L12.796 92.4454C13.1507 92.6694 13.4587 92.9914 13.72 93.4114C13.972 93.8221 14.098 94.3354 14.098 94.9514C14.098 95.5768 13.9487 96.1321 13.65 96.6174C13.3513 97.0934 12.9313 97.4668 12.39 97.7374C11.8487 97.9988 11.2187 98.1294 10.5 98.1294C9.78133 98.1294 9.15133 97.9988 8.61 97.7374C8.06866 97.4668 7.64866 97.0934 7.35 96.6174C7.05133 96.1321 6.902 95.5768 6.902 94.9514C6.902 94.5688 6.95333 94.2281 7.056 93.9294C7.15866 93.6214 7.29866 93.3554 7.476 93.1314C7.644 92.9074 7.83533 92.7208 8.05 92.5714L7 92.4734ZM10.5 96.7154C11.2187 96.7154 11.7973 96.5288 12.236 96.1554C12.6747 95.7728 12.894 95.2641 12.894 94.6294C12.894 94.2561 12.8007 93.9154 12.614 93.6074C12.418 93.2994 12.1427 93.0568 11.788 92.8794C11.424 92.6928 10.9947 92.5994 10.5 92.5994C9.996 92.5994 9.56666 92.6928 9.212 92.8794C8.85733 93.0568 8.58666 93.3041 8.4 93.6214C8.204 93.9294 8.106 94.2654 8.106 94.6294C8.106 95.2641 8.32533 95.7728 8.764 96.1554C9.20266 96.5288 9.78133 96.7154 10.5 96.7154ZM14.098 86.2362C14.098 86.9082 13.944 87.5056 13.636 88.0282C13.3187 88.5416 12.8847 88.9476 12.334 89.2462C11.7833 89.5356 11.1533 89.6802 10.444 89.6802C9.76266 89.6802 9.156 89.5356 8.624 89.2462C8.092 88.9569 7.672 88.5602 7.364 88.0562C7.056 87.5429 6.902 86.9642 6.902 86.3202C6.902 85.6669 7.04666 85.0882 7.336 84.5842C7.616 84.0802 8.01266 83.6882 8.526 83.4082C9.03 83.1282 9.61333 82.9929 10.276 83.0022C10.388 83.0022 10.5047 83.0069 10.626 83.0162C10.738 83.0256 10.864 83.0396 11.004 83.0582L11.004 88.2382C11.3773 88.2102 11.7087 88.1076 11.998 87.9302C12.278 87.7436 12.4973 87.5102 12.656 87.2302C12.8147 86.9409 12.894 86.6142 12.894 86.2502C12.894 85.7836 12.8053 85.3776 12.628 85.0322C12.4413 84.6869 12.194 84.4442 11.886 84.3042L12.292 83.1562C12.8613 83.4362 13.3047 83.8469 13.622 84.3882C13.9393 84.9202 14.098 85.5362 14.098 86.2362ZM9.87 84.4442C9.534 84.4442 9.23066 84.5282 8.96 84.6962C8.68933 84.8642 8.47933 85.0929 8.33 85.3822C8.17133 85.6622 8.092 85.9796 8.092 86.3342C8.092 86.6516 8.17133 86.9456 8.33 87.2162C8.47933 87.4776 8.68933 87.7016 8.96 87.8882C9.22133 88.0656 9.52466 88.1776 9.87 88.2242L9.87 84.4442Z" fill="#2F2F2F"/>
<path d="M45.3935 13.2727V22H44.3366V14.3807H44.2855L42.1548 15.7955V14.7216L44.3366 13.2727H45.3935ZM50.75 22.1193C50.108 22.1193 49.5611 21.9446 49.1094 21.5952C48.6577 21.2429 48.3125 20.733 48.0739 20.0653C47.8352 19.3949 47.7159 18.5852 47.7159 17.6364C47.7159 16.6932 47.8352 15.8878 48.0739 15.2202C48.3153 14.5497 48.6619 14.0384 49.1136 13.6861C49.5682 13.331 50.1136 13.1534 50.75 13.1534C51.3864 13.1534 51.9304 13.331 52.3821 13.6861C52.8366 14.0384 53.1832 14.5497 53.4219 15.2202C53.6634 15.8878 53.7841 16.6932 53.7841 17.6364C53.7841 18.5852 53.6648 19.3949 53.4261 20.0653C53.1875 20.733 52.8423 21.2429 52.3906 21.5952C51.9389 21.9446 51.392 22.1193 50.75 22.1193ZM50.75 21.1818C51.3864 21.1818 51.8807 20.875 52.233 20.2614C52.5852 19.6477 52.7614 18.7727 52.7614 17.6364C52.7614 16.8807 52.6804 16.2372 52.5185 15.706C52.3594 15.1747 52.1293 14.7699 51.8281 14.4915C51.5298 14.2131 51.1705 14.0739 50.75 14.0739C50.1193 14.0739 49.6264 14.3849 49.2713 15.0071C48.9162 15.6264 48.7386 16.5028 48.7386 17.6364C48.7386 18.392 48.8182 19.0341 48.9773 19.5625C49.1364 20.0909 49.3651 20.4929 49.6634 20.7685C49.9645 21.044 50.3267 21.1818 50.75 21.1818ZM58.25 22.1193C57.608 22.1193 57.0611 21.9446 56.6094 21.5952C56.1577 21.2429 55.8125 20.733 55.5739 20.0653C55.3352 19.3949 55.2159 18.5852 55.2159 17.6364C55.2159 16.6932 55.3352 15.8878 55.5739 15.2202C55.8153 14.5497 56.1619 14.0384 56.6136 13.6861C57.0682 13.331 57.6136 13.1534 58.25 13.1534C58.8864 13.1534 59.4304 13.331 59.8821 13.6861C60.3366 14.0384 60.6832 14.5497 60.9219 15.2202C61.1634 15.8878 61.2841 16.6932 61.2841 17.6364C61.2841 18.5852 61.1648 19.3949 60.9261 20.0653C60.6875 20.733 60.3423 21.2429 59.8906 21.5952C59.4389 21.9446 58.892 22.1193 58.25 22.1193ZM58.25 21.1818C58.8864 21.1818 59.3807 20.875 59.733 20.2614C60.0852 19.6477 60.2614 18.7727 60.2614 17.6364C60.2614 16.8807 60.1804 16.2372 60.0185 15.706C59.8594 15.1747 59.6293 14.7699 59.3281 14.4915C59.0298 14.2131 58.6705 14.0739 58.25 14.0739C57.6193 14.0739 57.1264 14.3849 56.7713 15.0071C56.4162 15.6264 56.2386 16.5028 56.2386 17.6364C56.2386 18.392 56.3182 19.0341 56.4773 19.5625C56.6364 20.0909 56.8651 20.4929 57.1634 20.7685C57.4645 21.044 57.8267 21.1818 58.25 21.1818Z" fill="#727272"/>
<line x1="70.5" y1="18" x2="679.5" y2="18" stroke="#F5F5F5" stroke-linecap="round"/>
<path d="M50.8043 62.2189C50.2191 62.2189 49.7021 62.1152 49.2532 61.9078C48.8072 61.6976 48.4592 61.4093 48.2092 61.0428C47.9592 60.6735 47.8356 60.253 47.8384 59.7814C47.8356 59.4121 47.908 59.0712 48.0558 58.7587C48.2035 58.4434 48.4052 58.1806 48.6609 57.9703C48.9194 57.7573 49.2077 57.6223 49.5259 57.5655V57.5144C49.1083 57.4064 48.7759 57.1721 48.5288 56.8113C48.2816 56.4476 48.1594 56.0343 48.1623 55.5712C48.1594 55.128 48.2717 54.7317 48.4989 54.3823C48.7262 54.0328 49.0387 53.7573 49.4364 53.5556C49.837 53.3539 50.293 53.253 50.8043 53.253C51.31 53.253 51.7617 53.3539 52.1594 53.5556C52.5572 53.7573 52.8697 54.0328 53.0969 54.3823C53.3271 54.7317 53.4435 55.128 53.4464 55.5712C53.4435 56.0343 53.3171 56.4476 53.0671 56.8113C52.82 57.1721 52.4918 57.4064 52.0827 57.5144V57.5655C52.3981 57.6223 52.6822 57.7573 52.935 57.9703C53.1879 58.1806 53.3896 58.4434 53.5401 58.7587C53.6907 59.0712 53.7674 59.4121 53.7702 59.7814C53.7674 60.253 53.6396 60.6735 53.3867 61.0428C53.1367 61.4093 52.7887 61.6976 52.3427 61.9078C51.8995 62.1152 51.3867 62.2189 50.8043 62.2189ZM50.8043 61.2814C51.1992 61.2814 51.5401 61.2175 51.8271 61.0897C52.114 60.9618 52.3356 60.7814 52.4918 60.5485C52.6481 60.3155 52.7276 60.0428 52.7305 59.7303C52.7276 59.4007 52.6424 59.1096 52.4748 58.8567C52.3072 58.6039 52.0785 58.405 51.7887 58.2601C51.5018 58.1152 51.1737 58.0428 50.8043 58.0428C50.4322 58.0428 50.0998 58.1152 49.8072 58.2601C49.5174 58.405 49.2887 58.6039 49.1211 58.8567C48.9563 59.1096 48.8754 59.4007 48.8782 59.7303C48.8754 60.0428 48.9506 60.3155 49.104 60.5485C49.2603 60.7814 49.4833 60.9618 49.7731 61.0897C50.0629 61.2175 50.4066 61.2814 50.8043 61.2814ZM50.8043 57.1394C51.1168 57.1394 51.3938 57.0769 51.6353 56.9519C51.8796 56.8269 52.0714 56.6522 52.2106 56.4277C52.3498 56.2033 52.4208 55.9405 52.4237 55.6394C52.4208 55.3439 52.3512 55.0868 52.2148 54.8681C52.0785 54.6465 51.8896 54.476 51.6481 54.3567C51.4066 54.2346 51.1254 54.1735 50.8043 54.1735C50.4776 54.1735 50.1921 54.2346 49.9478 54.3567C49.7035 54.476 49.5146 54.6465 49.381 54.8681C49.2475 55.0868 49.1822 55.3439 49.185 55.6394C49.1822 55.9405 49.2489 56.2033 49.3853 56.4277C49.5245 56.6522 49.7163 56.8269 49.9606 56.9519C50.2049 57.0769 50.4862 57.1394 50.8043 57.1394ZM58.25 62.2189C57.608 62.2189 57.0611 62.0442 56.6094 61.6948C56.1577 61.3425 55.8125 60.8326 55.5739 60.165C55.3352 59.4945 55.2159 58.6848 55.2159 57.736C55.2159 56.7928 55.3352 55.9874 55.5739 55.3198C55.8153 54.6493 56.1619 54.138 56.6136 53.7857C57.0682 53.4306 57.6136 53.253 58.25 53.253C58.8864 53.253 59.4304 53.4306 59.8821 53.7857C60.3366 54.138 60.6832 54.6493 60.9219 55.3198C61.1634 55.9874 61.2841 56.7928 61.2841 57.736C61.2841 58.6848 61.1648 59.4945 60.9261 60.165C60.6875 60.8326 60.3423 61.3425 59.8906 61.6948C59.4389 62.0442 58.892 62.2189 58.25 62.2189ZM58.25 61.2814C58.8864 61.2814 59.3807 60.9746 59.733 60.361C60.0852 59.7473 60.2614 58.8723 60.2614 57.736C60.2614 56.9803 60.1804 56.3368 60.0185 55.8056C59.8594 55.2743 59.6293 54.8695 59.3281 54.5911C59.0298 54.3127 58.6705 54.1735 58.25 54.1735C57.6193 54.1735 57.1264 54.4846 56.7713 55.1067C56.4162 55.726 56.2386 56.6024 56.2386 57.736C56.2386 58.4917 56.3182 59.1337 56.4773 59.6621C56.6364 60.1905 56.8651 60.5925 57.1634 60.8681C57.4645 61.1436 57.8267 61.2814 58.25 61.2814Z" fill="#727272"/>
<line x1="70.5" y1="58.0996" x2="679.5" y2="58.0996" stroke="#F5F5F5" stroke-linecap="round"/>
<path d="M50.8129 99.8185C50.4549 99.8129 50.0969 99.7447 49.739 99.614C49.381 99.4833 49.0543 99.2631 48.7589 98.9535C48.4634 98.641 48.2262 98.2191 48.0472 97.6879C47.8683 97.1538 47.7788 96.4833 47.7788 95.6765C47.7788 94.9038 47.8512 94.2191 47.9961 93.6225C48.141 93.0231 48.3512 92.5188 48.6268 92.1097C48.9023 91.6978 49.2347 91.3853 49.6239 91.1722C50.016 90.9592 50.4577 90.8526 50.9492 90.8526C51.4379 90.8526 51.8725 90.9506 52.2532 91.1467C52.6367 91.3398 52.9492 91.6097 53.1907 91.9563C53.4322 92.3029 53.5884 92.7021 53.6594 93.1538H52.6197C52.5231 92.7617 52.3356 92.4364 52.0572 92.1779C51.7788 91.9194 51.4094 91.7901 50.9492 91.7901C50.2731 91.7901 49.7404 92.0842 49.3512 92.6722C48.9648 93.2603 48.7702 94.0856 48.7674 95.1481H48.8356C48.9947 94.9066 49.1836 94.7006 49.4023 94.5302C49.6239 94.3569 49.8683 94.2234 50.1353 94.1296C50.4023 94.0359 50.685 93.989 50.9833 93.989C51.4833 93.989 51.9407 94.114 52.3555 94.364C52.7702 94.6112 53.1026 94.9535 53.3526 95.391C53.6026 95.8256 53.7276 96.3242 53.7276 96.8867C53.7276 97.4265 53.6069 97.9208 53.3654 98.3697C53.1239 98.8157 52.7844 99.1708 52.3469 99.435C51.9123 99.6964 51.4009 99.8242 50.8129 99.8185ZM50.8129 98.881C51.1708 98.881 51.4918 98.7915 51.7759 98.6126C52.0629 98.4336 52.2887 98.1935 52.4535 97.8924C52.6211 97.5913 52.7049 97.256 52.7049 96.8867C52.7049 96.5259 52.6239 96.1978 52.462 95.9023C52.3029 95.604 52.0827 95.3668 51.8015 95.1907C51.5231 95.0146 51.2049 94.9265 50.8469 94.9265C50.5771 94.9265 50.3256 94.9805 50.0927 95.0884C49.8597 95.1935 49.6552 95.3384 49.479 95.5231C49.3058 95.7077 49.1694 95.9194 49.07 96.158C48.9705 96.3938 48.9208 96.6424 48.9208 96.9038C48.9208 97.2504 49.0018 97.5742 49.1637 97.8754C49.3285 98.1765 49.5529 98.4194 49.837 98.604C50.1239 98.7887 50.4492 98.881 50.8129 98.881ZM58.25 99.8185C57.608 99.8185 57.0611 99.6438 56.6094 99.2944C56.1577 98.9421 55.8125 98.4322 55.5739 97.7646C55.3352 97.0941 55.2159 96.2844 55.2159 95.3356C55.2159 94.3924 55.3352 93.587 55.5739 92.9194C55.8153 92.2489 56.1619 91.7376 56.6136 91.3853C57.0682 91.0302 57.6136 90.8526 58.25 90.8526C58.8864 90.8526 59.4304 91.0302 59.8821 91.3853C60.3366 91.7376 60.6832 92.2489 60.9219 92.9194C61.1634 93.587 61.2841 94.3924 61.2841 95.3356C61.2841 96.2844 61.1648 97.0941 60.9261 97.7646C60.6875 98.4322 60.3423 98.9421 59.8906 99.2944C59.4389 99.6438 58.892 99.8185 58.25 99.8185ZM58.25 98.881C58.8864 98.881 59.3807 98.5742 59.733 97.9606C60.0852 97.3469 60.2614 96.4719 60.2614 95.3356C60.2614 94.5799 60.1804 93.9364 60.0185 93.4052C59.8594 92.8739 59.6293 92.4691 59.3281 92.1907C59.0298 91.9123 58.6705 91.7731 58.25 91.7731C57.6193 91.7731 57.1264 92.0842 56.7713 92.7063C56.4162 93.3256 56.2386 94.2021 56.2386 95.3356C56.2386 96.0913 56.3182 96.7333 56.4773 97.2617C56.6364 97.7901 56.8651 98.1921 57.1634 98.4677C57.4645 98.7433 57.8267 98.881 58.25 98.881Z" fill="#727272"/>
<line x1="70.5" y1="95.6992" x2="679.5" y2="95.6992" stroke="#F5F5F5" stroke-linecap="round"/>
<path d="M47.4996 135.511V134.642L51.3349 128.574H51.9656V129.92H51.5394L48.6417 134.505V134.574H53.8065V135.511H47.4996ZM51.6076 137.301V135.247V134.842V128.574H52.6133V137.301H51.6076ZM58.25 137.42C57.608 137.42 57.0611 137.245 56.6094 136.896C56.1577 136.544 55.8125 136.034 55.5739 135.366C55.3352 134.696 55.2159 133.886 55.2159 132.937C55.2159 131.994 55.3352 131.189 55.5739 130.521C55.8153 129.85 56.1619 129.339 56.6136 128.987C57.0682 128.632 57.6136 128.454 58.25 128.454C58.8864 128.454 59.4304 128.632 59.8821 128.987C60.3366 129.339 60.6832 129.85 60.9219 130.521C61.1634 131.189 61.2841 131.994 61.2841 132.937C61.2841 133.886 61.1648 134.696 60.9261 135.366C60.6875 136.034 60.3423 136.544 59.8906 136.896C59.4389 137.245 58.892 137.42 58.25 137.42ZM58.25 136.483C58.8864 136.483 59.3807 136.176 59.733 135.562C60.0852 134.949 60.2614 134.074 60.2614 132.937C60.2614 132.181 60.1804 131.538 60.0185 131.007C59.8594 130.475 59.6293 130.071 59.3281 129.792C59.0298 129.514 58.6705 129.375 58.25 129.375C57.6193 129.375 57.1264 129.686 56.7713 130.308C56.4162 130.927 56.2386 131.804 56.2386 132.937C56.2386 133.693 56.3182 134.335 56.4773 134.863C56.6364 135.392 56.8651 135.794 57.1634 136.069C57.4645 136.345 57.8267 136.483 58.25 136.483Z" fill="#727272"/>
<line x1="70.5" y1="133.301" x2="679.5" y2="133.301" stroke="#F5F5F5" stroke-linecap="round"/>
<path d="M48.1378 174.9V174.133L51.0185 170.98C51.3565 170.611 51.6349 170.29 51.8537 170.017C52.0724 169.741 52.2344 169.483 52.3395 169.241C52.4474 168.997 52.5014 168.741 52.5014 168.474C52.5014 168.167 52.4276 167.902 52.2798 167.677C52.1349 167.453 51.9361 167.28 51.6832 167.157C51.4304 167.035 51.1463 166.974 50.831 166.974C50.4957 166.974 50.2031 167.044 49.9531 167.183C49.706 167.319 49.5142 167.511 49.3778 167.758C49.2443 168.006 49.1776 168.295 49.1776 168.628H48.1719C48.1719 168.116 48.2898 167.667 48.5256 167.281C48.7614 166.895 49.0824 166.594 49.4886 166.378C49.8977 166.162 50.3565 166.054 50.8651 166.054C51.3764 166.054 51.8295 166.162 52.2244 166.378C52.6193 166.594 52.929 166.885 53.1534 167.251C53.3778 167.618 53.4901 168.025 53.4901 168.474C53.4901 168.795 53.4318 169.109 53.3153 169.416C53.2017 169.72 53.0028 170.059 52.7188 170.434C52.4375 170.807 52.0469 171.261 51.5469 171.798L49.5866 173.895V173.963H53.6435V174.9H48.1378ZM58.25 175.02C57.608 175.02 57.0611 174.845 56.6094 174.496C56.1577 174.143 55.8125 173.633 55.5739 172.966C55.3352 172.295 55.2159 171.486 55.2159 170.537C55.2159 169.594 55.3352 168.788 55.5739 168.121C55.8153 167.45 56.1619 166.939 56.6136 166.586C57.0682 166.231 57.6136 166.054 58.25 166.054C58.8864 166.054 59.4304 166.231 59.8821 166.586C60.3366 166.939 60.6832 167.45 60.9219 168.121C61.1634 168.788 61.2841 169.594 61.2841 170.537C61.2841 171.486 61.1648 172.295 60.9261 172.966C60.6875 173.633 60.3423 174.143 59.8906 174.496C59.4389 174.845 58.892 175.02 58.25 175.02ZM58.25 174.082C58.8864 174.082 59.3807 173.775 59.733 173.162C60.0852 172.548 60.2614 171.673 60.2614 170.537C60.2614 169.781 60.1804 169.138 60.0185 168.606C59.8594 168.075 59.6293 167.67 59.3281 167.392C59.0298 167.113 58.6705 166.974 58.25 166.974C57.6193 166.974 57.1264 167.285 56.7713 167.907C56.4162 168.527 56.2386 169.403 56.2386 170.537C56.2386 171.292 56.3182 171.934 56.4773 172.463C56.6364 172.991 56.8651 173.393 57.1634 173.669C57.4645 173.944 57.8267 174.082 58.25 174.082Z" fill="#727272"/>
<line x1="70.5" y1="170.9" x2="679.5" y2="170.9" stroke="#F5F5F5" stroke-linecap="round"/>
<path d="M58.25 212.619C57.608 212.619 57.0611 212.445 56.6094 212.095C56.1577 211.743 55.8125 211.233 55.5739 210.565C55.3352 209.895 55.2159 209.085 55.2159 208.136C55.2159 207.193 55.3352 206.388 55.5739 205.72C55.8153 205.05 56.1619 204.538 56.6136 204.186C57.0682 203.831 57.6136 203.653 58.25 203.653C58.8864 203.653 59.4304 203.831 59.8821 204.186C60.3366 204.538 60.6832 205.05 60.9219 205.72C61.1634 206.388 61.2841 207.193 61.2841 208.136C61.2841 209.085 61.1648 209.895 60.9261 210.565C60.6875 211.233 60.3423 211.743 59.8906 212.095C59.4389 212.445 58.892 212.619 58.25 212.619ZM58.25 211.682C58.8864 211.682 59.3807 211.375 59.733 210.761C60.0852 210.148 60.2614 209.273 60.2614 208.136C60.2614 207.381 60.1804 206.737 60.0185 206.206C59.8594 205.675 59.6293 205.27 59.3281 204.991C59.0298 204.713 58.6705 204.574 58.25 204.574C57.6193 204.574 57.1264 204.885 56.7713 205.507C56.4162 206.126 56.2386 207.003 56.2386 208.136C56.2386 208.892 56.3182 209.534 56.4773 210.062C56.6364 210.591 56.8651 210.993 57.1634 211.268C57.4645 211.544 57.8267 211.682 58.25 211.682Z" fill="#727272"/>
<line x1="70.5" y1="208.5" x2="679.5" y2="208.5" stroke="#F5F5F5" stroke-linecap="round"/>
<path d="M329.462 223.455C329.411 223.023 329.204 222.688 328.84 222.449C328.477 222.21 328.031 222.091 327.502 222.091C327.116 222.091 326.778 222.153 326.488 222.278C326.201 222.403 325.977 222.575 325.815 222.794C325.656 223.013 325.576 223.261 325.576 223.54C325.576 223.773 325.631 223.973 325.742 224.141C325.856 224.305 326.001 224.443 326.177 224.554C326.353 224.662 326.538 224.751 326.731 224.822C326.924 224.891 327.102 224.946 327.263 224.989L328.15 225.227C328.377 225.287 328.63 225.369 328.908 225.474C329.19 225.58 329.458 225.723 329.714 225.905C329.972 226.084 330.185 226.314 330.353 226.595C330.521 226.876 330.604 227.222 330.604 227.631C330.604 228.102 330.481 228.528 330.234 228.909C329.989 229.29 329.631 229.592 329.16 229.817C328.691 230.041 328.121 230.153 327.451 230.153C326.826 230.153 326.285 230.053 325.827 229.851C325.373 229.649 325.015 229.368 324.754 229.007C324.495 228.646 324.349 228.227 324.315 227.75H325.406C325.434 228.08 325.545 228.352 325.738 228.568C325.934 228.781 326.181 228.94 326.479 229.045C326.781 229.148 327.104 229.199 327.451 229.199C327.854 229.199 328.217 229.134 328.538 229.003C328.859 228.869 329.113 228.685 329.3 228.449C329.488 228.21 329.582 227.932 329.582 227.614C329.582 227.324 329.501 227.088 329.339 226.906C329.177 226.724 328.964 226.577 328.7 226.463C328.435 226.349 328.15 226.25 327.843 226.165L326.769 225.858C326.087 225.662 325.548 225.382 325.15 225.018C324.752 224.655 324.553 224.179 324.553 223.591C324.553 223.102 324.685 222.676 324.95 222.312C325.217 221.946 325.575 221.662 326.023 221.46C326.475 221.256 326.979 221.153 327.536 221.153C328.099 221.153 328.599 221.254 329.036 221.456C329.474 221.655 329.82 221.928 330.076 222.274C330.335 222.621 330.471 223.014 330.485 223.455H329.462ZM334.95 230.136C334.319 230.136 333.775 229.997 333.318 229.719C332.863 229.438 332.512 229.045 332.265 228.543C332.021 228.037 331.899 227.449 331.899 226.778C331.899 226.108 332.021 225.517 332.265 225.006C332.512 224.491 332.856 224.091 333.297 223.804C333.74 223.514 334.257 223.369 334.848 223.369C335.189 223.369 335.525 223.426 335.858 223.54C336.19 223.653 336.493 223.838 336.765 224.094C337.038 224.347 337.255 224.682 337.417 225.099C337.579 225.517 337.66 226.031 337.66 226.642V227.068H332.615V226.199H336.637C336.637 225.83 336.564 225.5 336.416 225.21C336.271 224.92 336.064 224.692 335.794 224.524C335.527 224.357 335.211 224.273 334.848 224.273C334.447 224.273 334.1 224.372 333.808 224.571C333.518 224.767 333.295 225.023 333.139 225.338C332.983 225.653 332.904 225.991 332.904 226.352V226.932C332.904 227.426 332.99 227.845 333.16 228.189C333.333 228.53 333.574 228.79 333.88 228.969C334.187 229.145 334.544 229.233 334.95 229.233C335.214 229.233 335.453 229.196 335.666 229.122C335.882 229.045 336.068 228.932 336.224 228.781C336.38 228.628 336.501 228.437 336.586 228.21L337.558 228.483C337.456 228.812 337.284 229.102 337.042 229.352C336.801 229.599 336.502 229.793 336.147 229.932C335.792 230.068 335.393 230.136 334.95 230.136ZM339.19 232.455V223.455H340.162V224.494H340.281C340.355 224.381 340.457 224.236 340.588 224.06C340.721 223.881 340.912 223.722 341.159 223.582C341.409 223.44 341.747 223.369 342.173 223.369C342.724 223.369 343.21 223.507 343.63 223.783C344.051 224.058 344.379 224.449 344.615 224.955C344.85 225.46 344.968 226.057 344.968 226.744C344.968 227.438 344.85 228.038 344.615 228.547C344.379 229.053 344.052 229.445 343.635 229.723C343.217 229.999 342.735 230.136 342.19 230.136C341.77 230.136 341.433 230.067 341.18 229.928C340.927 229.786 340.733 229.625 340.596 229.446C340.46 229.264 340.355 229.114 340.281 228.994H340.196V232.455H339.19ZM340.179 226.727C340.179 227.222 340.251 227.658 340.396 228.036C340.541 228.411 340.752 228.705 341.031 228.918C341.309 229.128 341.65 229.233 342.054 229.233C342.474 229.233 342.825 229.122 343.106 228.901C343.39 228.676 343.603 228.375 343.745 227.997C343.89 227.616 343.963 227.193 343.963 226.727C343.963 226.267 343.892 225.852 343.75 225.483C343.61 225.111 343.399 224.817 343.115 224.601C342.833 224.382 342.48 224.273 342.054 224.273C341.645 224.273 341.301 224.376 341.022 224.584C340.744 224.788 340.534 225.075 340.392 225.445C340.25 225.811 340.179 226.239 340.179 226.727ZM349.86 230V229.233L352.741 226.08C353.079 225.71 353.358 225.389 353.576 225.116C353.795 224.841 353.957 224.582 354.062 224.341C354.17 224.097 354.224 223.841 354.224 223.574C354.224 223.267 354.15 223.001 354.002 222.777C353.858 222.553 353.659 222.379 353.406 222.257C353.153 222.135 352.869 222.074 352.554 222.074C352.218 222.074 351.926 222.143 351.676 222.283C351.429 222.419 351.237 222.611 351.1 222.858C350.967 223.105 350.9 223.395 350.9 223.727H349.895C349.895 223.216 350.012 222.767 350.248 222.381C350.484 221.994 350.805 221.693 351.211 221.477C351.62 221.261 352.079 221.153 352.588 221.153C353.099 221.153 353.552 221.261 353.947 221.477C354.342 221.693 354.652 221.984 354.876 222.351C355.1 222.717 355.213 223.125 355.213 223.574C355.213 223.895 355.154 224.209 355.038 224.516C354.924 224.82 354.725 225.159 354.441 225.534C354.16 225.906 353.77 226.361 353.27 226.898L351.309 228.994V229.062H355.366V230H349.86ZM359.973 230.119C359.331 230.119 358.784 229.945 358.332 229.595C357.88 229.243 357.535 228.733 357.297 228.065C357.058 227.395 356.939 226.585 356.939 225.636C356.939 224.693 357.058 223.888 357.297 223.22C357.538 222.55 357.885 222.038 358.336 221.686C358.791 221.331 359.336 221.153 359.973 221.153C360.609 221.153 361.153 221.331 361.605 221.686C362.059 222.038 362.406 222.55 362.645 223.22C362.886 223.888 363.007 224.693 363.007 225.636C363.007 226.585 362.887 227.395 362.649 228.065C362.41 228.733 362.065 229.243 361.613 229.595C361.162 229.945 360.615 230.119 359.973 230.119ZM359.973 229.182C360.609 229.182 361.103 228.875 361.456 228.261C361.808 227.648 361.984 226.773 361.984 225.636C361.984 224.881 361.903 224.237 361.741 223.706C361.582 223.175 361.352 222.77 361.051 222.491C360.752 222.213 360.393 222.074 359.973 222.074C359.342 222.074 358.849 222.385 358.494 223.007C358.139 223.626 357.961 224.503 357.961 225.636C357.961 226.392 358.041 227.034 358.2 227.562C358.359 228.091 358.588 228.493 358.886 228.768C359.187 229.044 359.549 229.182 359.973 229.182ZM364.626 230V229.233L367.507 226.08C367.845 225.71 368.123 225.389 368.342 225.116C368.561 224.841 368.723 224.582 368.828 224.341C368.936 224.097 368.99 223.841 368.99 223.574C368.99 223.267 368.916 223.001 368.768 222.777C368.623 222.553 368.424 222.379 368.172 222.257C367.919 222.135 367.635 222.074 367.319 222.074C366.984 222.074 366.691 222.143 366.441 222.283C366.194 222.419 366.002 222.611 365.866 222.858C365.733 223.105 365.666 223.395 365.666 223.727H364.66C364.66 223.216 364.778 222.767 365.014 222.381C365.25 221.994 365.571 221.693 365.977 221.477C366.386 221.261 366.845 221.153 367.353 221.153C367.865 221.153 368.318 221.261 368.713 221.477C369.108 221.693 369.417 221.984 369.642 222.351C369.866 222.717 369.978 223.125 369.978 223.574C369.978 223.895 369.92 224.209 369.804 224.516C369.69 224.82 369.491 225.159 369.207 225.534C368.926 225.906 368.535 226.361 368.035 226.898L366.075 228.994V229.062H370.132V230H364.626ZM371.5 228.21V227.341L375.335 221.273H375.966V222.619H375.539L372.642 227.205V227.273H377.806V228.21H371.5ZM375.608 230V227.946V227.541V221.273H376.613V230H375.608Z" fill="#727272"/>
<circle cx="26" cy="245" r="4" fill="#886DE0"/>
<path d="M44.734 243.126C44.734 242.594 44.5753 242.169 44.258 241.852C43.9407 241.535 43.4367 241.376 42.746 241.376H40.506V244.862H42.76C43.2173 244.862 43.5907 244.792 43.88 244.652C44.1693 244.503 44.384 244.297 44.524 244.036C44.664 243.775 44.734 243.471 44.734 243.126ZM42.746 240.2C43.5207 240.2 44.1553 240.335 44.65 240.606C45.154 240.867 45.5273 241.217 45.77 241.656C46.022 242.095 46.148 242.585 46.148 243.126C46.148 243.481 46.0873 243.831 45.966 244.176C45.8447 244.521 45.6487 244.839 45.378 245.128C45.1073 245.408 44.7527 245.632 44.314 245.8C43.8847 245.959 43.3667 246.038 42.76 246.038H40.506V250H39.106V240.2H42.746ZM43.642 245.562L46.344 250H44.762L42.158 245.562H43.642ZM52.1784 250L52.0664 248.978C51.8517 249.333 51.5717 249.608 51.2264 249.804C50.8904 249.991 50.4517 250.084 49.9104 250.084C49.4064 250.084 48.9771 250.005 48.6224 249.846C48.2677 249.678 47.9924 249.449 47.7964 249.16C47.6097 248.861 47.5164 248.516 47.5164 248.124C47.5164 247.536 47.7357 247.051 48.1744 246.668C48.6131 246.276 49.2477 246.033 50.0784 245.94L52.0664 245.716V245.17C52.0664 244.871 51.9451 244.619 51.7024 244.414C51.4597 244.199 51.1097 244.092 50.6524 244.092C50.2231 244.092 49.8591 244.195 49.5604 244.4C49.2617 244.596 49.0611 244.89 48.9584 245.282L47.7824 244.862C47.9597 244.246 48.3051 243.765 48.8184 243.42C49.3411 243.075 49.9711 242.902 50.7084 242.902C51.5857 242.902 52.2531 243.121 52.7104 243.56C53.1677 243.999 53.3964 244.577 53.3964 245.296V250H52.1784ZM52.0664 246.794L50.1484 247.032C49.7377 247.088 49.4297 247.205 49.2244 247.382C49.0191 247.55 48.9164 247.774 48.9164 248.054C48.9164 248.315 49.0144 248.535 49.2104 248.712C49.4157 248.88 49.7004 248.964 50.0644 248.964C50.5124 248.964 50.8857 248.88 51.1844 248.712C51.4831 248.544 51.7024 248.311 51.8424 248.012C51.9917 247.704 52.0664 247.349 52.0664 246.948V246.794ZM55.7392 243V241.04H57.0692V243H58.8192V244.176H57.0692V247.62C57.0692 248.049 57.1532 248.353 57.3212 248.53C57.4985 248.707 57.7179 248.81 57.9792 248.838C58.2499 248.857 58.5299 248.847 58.8192 248.81V249.944C58.4365 250.028 58.0585 250.051 57.6852 250.014C57.3212 249.986 56.9899 249.883 56.6912 249.706C56.4019 249.529 56.1685 249.272 55.9912 248.936C55.8232 248.591 55.7392 248.152 55.7392 247.62V244.176H54.7312V243H55.7392ZM63.3331 250.098C62.6611 250.098 62.0638 249.944 61.5411 249.636C61.0278 249.319 60.6218 248.885 60.3231 248.334C60.0338 247.783 59.8891 247.153 59.8891 246.444C59.8891 245.763 60.0338 245.156 60.3231 244.624C60.6124 244.092 61.0091 243.672 61.5131 243.364C62.0264 243.056 62.6051 242.902 63.2491 242.902C63.9024 242.902 64.4811 243.047 64.9851 243.336C65.4891 243.616 65.8811 244.013 66.1611 244.526C66.4411 245.03 66.5764 245.613 66.5671 246.276C66.5671 246.388 66.5624 246.505 66.5531 246.626C66.5438 246.738 66.5298 246.864 66.5111 247.004H61.3311C61.3591 247.377 61.4618 247.709 61.6391 247.998C61.8258 248.278 62.0591 248.497 62.3391 248.656C62.6284 248.815 62.9551 248.894 63.3191 248.894C63.7858 248.894 64.1918 248.805 64.5371 248.628C64.8824 248.441 65.1251 248.194 65.2651 247.886L66.4131 248.292C66.1331 248.861 65.7224 249.305 65.1811 249.622C64.6491 249.939 64.0331 250.098 63.3331 250.098ZM65.1251 245.87C65.1251 245.534 65.0411 245.231 64.8731 244.96C64.7051 244.689 64.4764 244.479 64.1871 244.33C63.9071 244.171 63.5898 244.092 63.2351 244.092C62.9178 244.092 62.6238 244.171 62.3531 244.33C62.0918 244.479 61.8678 244.689 61.6811 244.96C61.5038 245.221 61.3918 245.525 61.3451 245.87H65.1251ZM76.8816 243H78.2536L74.1936 252.8H72.8916L74.1236 249.86L71.3516 243H72.8076L74.8376 248.306L76.8816 243ZM82.447 250.098C81.7844 250.098 81.187 249.953 80.655 249.664C80.1324 249.365 79.7217 248.95 79.423 248.418C79.1244 247.877 78.975 247.242 78.975 246.514C78.975 245.777 79.129 245.137 79.437 244.596C79.745 244.055 80.165 243.639 80.697 243.35C81.229 243.051 81.8264 242.902 82.489 242.902C83.1517 242.902 83.749 243.051 84.281 243.35C84.8224 243.639 85.247 244.055 85.555 244.596C85.863 245.128 86.017 245.758 86.017 246.486C86.017 247.223 85.8584 247.863 85.541 248.404C85.233 248.945 84.8084 249.365 84.267 249.664C83.7257 249.953 83.119 250.098 82.447 250.098ZM82.433 248.894C82.8064 248.894 83.1564 248.81 83.483 248.642C83.8097 248.465 84.0757 248.199 84.281 247.844C84.4957 247.489 84.603 247.037 84.603 246.486C84.603 245.945 84.5004 245.501 84.295 245.156C84.099 244.801 83.8377 244.54 83.511 244.372C83.1844 244.195 82.8344 244.106 82.461 244.106C82.097 244.106 81.7564 244.195 81.439 244.372C81.131 244.54 80.879 244.801 80.683 245.156C80.487 245.511 80.389 245.963 80.389 246.514C80.389 247.055 80.4824 247.503 80.669 247.858C80.865 248.203 81.117 248.465 81.425 248.642C81.733 248.81 82.069 248.894 82.433 248.894ZM93.4772 250H92.2732L92.1752 249.174C91.9512 249.473 91.6665 249.701 91.3212 249.86C90.9852 250.019 90.6072 250.098 90.1872 250.098C89.6459 250.098 89.1745 249.986 88.7732 249.762C88.3719 249.529 88.0592 249.193 87.8352 248.754C87.6205 248.306 87.5132 247.751 87.5132 247.088V243H88.8432V246.92C88.8432 247.564 88.9739 248.054 89.2352 248.39C89.5059 248.726 89.9119 248.894 90.4532 248.894C90.9852 248.894 91.4005 248.721 91.6992 248.376C92.0072 248.031 92.1612 247.517 92.1612 246.836V243H93.4772V250ZM95.4728 243H96.6768L96.7608 243.938C96.9568 243.695 97.1808 243.495 97.4328 243.336C97.6942 243.168 97.9742 243.051 98.2728 242.986C98.5808 242.921 98.8982 242.925 99.2248 243V244.246C98.9168 244.171 98.6182 244.162 98.3288 244.218C98.0395 244.274 97.7782 244.395 97.5448 244.582C97.3208 244.759 97.1388 244.997 96.9988 245.296C96.8588 245.595 96.7888 245.954 96.7888 246.374V250H95.4728V243ZM107.549 250.098C106.886 250.098 106.289 249.953 105.757 249.664C105.234 249.365 104.823 248.95 104.525 248.418C104.226 247.877 104.077 247.242 104.077 246.514C104.077 245.777 104.231 245.137 104.539 244.596C104.847 244.055 105.267 243.639 105.799 243.35C106.331 243.051 106.928 242.902 107.591 242.902C108.253 242.902 108.851 243.051 109.383 243.35C109.924 243.639 110.349 244.055 110.657 244.596C110.965 245.128 111.119 245.758 111.119 246.486C111.119 247.223 110.96 247.863 110.643 248.404C110.335 248.945 109.91 249.365 109.369 249.664C108.827 249.953 108.221 250.098 107.549 250.098ZM107.535 248.894C107.908 248.894 108.258 248.81 108.585 248.642C108.911 248.465 109.177 248.199 109.383 247.844C109.597 247.489 109.705 247.037 109.705 246.486C109.705 245.945 109.602 245.501 109.397 245.156C109.201 244.801 108.939 244.54 108.613 244.372C108.286 244.195 107.936 244.106 107.563 244.106C107.199 244.106 106.858 244.195 106.541 244.372C106.233 244.54 105.981 244.801 105.785 245.156C105.589 245.511 105.491 245.963 105.491 246.514C105.491 247.055 105.584 247.503 105.771 247.858C105.967 248.203 106.219 248.465 106.527 248.642C106.835 248.81 107.171 248.894 107.535 248.894ZM113.346 243L115.362 248.586L117.392 243H118.792L116.062 250H114.634L111.918 243H113.346ZM123.025 250.098C122.353 250.098 121.755 249.944 121.233 249.636C120.719 249.319 120.313 248.885 120.015 248.334C119.725 247.783 119.581 247.153 119.581 246.444C119.581 245.763 119.725 245.156 120.015 244.624C120.304 244.092 120.701 243.672 121.205 243.364C121.718 243.056 122.297 242.902 122.941 242.902C123.594 242.902 124.173 243.047 124.677 243.336C125.181 243.616 125.573 244.013 125.853 244.526C126.133 245.03 126.268 245.613 126.259 246.276C126.259 246.388 126.254 246.505 126.245 246.626C126.235 246.738 126.221 246.864 126.203 247.004H121.023C121.051 247.377 121.153 247.709 121.331 247.998C121.517 248.278 121.751 248.497 122.031 248.656C122.32 248.815 122.647 248.894 123.011 248.894C123.477 248.894 123.883 248.805 124.229 248.628C124.574 248.441 124.817 248.194 124.957 247.886L126.105 248.292C125.825 248.861 125.414 249.305 124.873 249.622C124.341 249.939 123.725 250.098 123.025 250.098ZM124.817 245.87C124.817 245.534 124.733 245.231 124.565 244.96C124.397 244.689 124.168 244.479 123.879 244.33C123.599 244.171 123.281 244.092 122.927 244.092C122.609 244.092 122.315 244.171 122.045 244.33C121.783 244.479 121.559 244.689 121.373 244.96C121.195 245.221 121.083 245.525 121.037 245.87H124.817ZM127.875 243H129.079L129.163 243.938C129.359 243.695 129.583 243.495 129.835 243.336C130.097 243.168 130.377 243.051 130.675 242.986C130.983 242.921 131.301 242.925 131.627 243V244.246C131.319 244.171 131.021 244.162 130.731 244.218C130.442 244.274 130.181 244.395 129.947 244.582C129.723 244.759 129.541 244.997 129.401 245.296C129.261 245.595 129.191 245.954 129.191 246.374V250H127.875V243ZM137.231 250L137.119 248.978C136.904 249.333 136.624 249.608 136.279 249.804C135.943 249.991 135.504 250.084 134.963 250.084C134.459 250.084 134.03 250.005 133.675 249.846C133.32 249.678 133.045 249.449 132.849 249.16C132.662 248.861 132.569 248.516 132.569 248.124C132.569 247.536 132.788 247.051 133.227 246.668C133.666 246.276 134.3 246.033 135.131 245.94L137.119 245.716V245.17C137.119 244.871 136.998 244.619 136.755 244.414C136.512 244.199 136.162 244.092 135.705 244.092C135.276 244.092 134.912 244.195 134.613 244.4C134.314 244.596 134.114 244.89 134.011 245.282L132.835 244.862C133.012 244.246 133.358 243.765 133.871 243.42C134.394 243.075 135.024 242.902 135.761 242.902C136.638 242.902 137.306 243.121 137.763 243.56C138.22 243.999 138.449 244.577 138.449 245.296V250H137.231ZM137.119 246.794L135.201 247.032C134.79 247.088 134.482 247.205 134.277 247.382C134.072 247.55 133.969 247.774 133.969 248.054C133.969 248.315 134.067 248.535 134.263 248.712C134.468 248.88 134.753 248.964 135.117 248.964C135.565 248.964 135.938 248.88 136.237 248.712C136.536 248.544 136.755 248.311 136.895 248.012C137.044 247.704 137.119 247.349 137.119 246.948V246.794ZM140.344 239.92H141.66V250H140.344V239.92ZM143.666 239.92H144.982V250H143.666V239.92ZM151.696 247.788C151.762 248.068 151.874 248.287 152.032 248.446C152.191 248.605 152.378 248.721 152.592 248.796C152.816 248.861 153.05 248.894 153.292 248.894C153.712 248.894 154.039 248.81 154.272 248.642C154.506 248.474 154.622 248.264 154.622 248.012C154.622 247.797 154.548 247.629 154.398 247.508C154.258 247.377 154.067 247.275 153.824 247.2C153.591 247.125 153.339 247.055 153.068 246.99C152.826 246.925 152.56 246.85 152.27 246.766C151.99 246.682 151.724 246.57 151.472 246.43C151.23 246.281 151.029 246.094 150.87 245.87C150.712 245.637 150.632 245.343 150.632 244.988C150.632 244.568 150.744 244.204 150.968 243.896C151.202 243.579 151.519 243.336 151.92 243.168C152.331 242.991 152.793 242.902 153.306 242.902C153.904 242.902 154.426 243.033 154.874 243.294C155.332 243.546 155.663 243.929 155.868 244.442L154.678 244.834C154.613 244.657 154.506 244.512 154.356 244.4C154.207 244.288 154.034 244.213 153.838 244.176C153.652 244.129 153.465 244.106 153.278 244.106C152.924 244.106 152.63 244.176 152.396 244.316C152.163 244.456 152.046 244.661 152.046 244.932C152.046 245.081 152.084 245.207 152.158 245.31C152.233 245.403 152.336 245.483 152.466 245.548C152.606 245.604 152.77 245.655 152.956 245.702C153.143 245.749 153.344 245.8 153.558 245.856C153.838 245.94 154.123 246.033 154.412 246.136C154.702 246.229 154.968 246.351 155.21 246.5C155.453 246.649 155.649 246.845 155.798 247.088C155.948 247.331 156.027 247.629 156.036 247.984C156.036 248.395 155.92 248.759 155.686 249.076C155.462 249.393 155.14 249.645 154.72 249.832C154.31 250.009 153.82 250.098 153.25 250.098C152.56 250.098 151.972 249.944 151.486 249.636C151.001 249.328 150.674 248.852 150.506 248.208L151.696 247.788ZM161.909 250L161.797 248.978C161.582 249.333 161.302 249.608 160.957 249.804C160.621 249.991 160.182 250.084 159.641 250.084C159.137 250.084 158.708 250.005 158.353 249.846C157.998 249.678 157.723 249.449 157.527 249.16C157.34 248.861 157.247 248.516 157.247 248.124C157.247 247.536 157.466 247.051 157.905 246.668C158.344 246.276 158.978 246.033 159.809 245.94L161.797 245.716V245.17C161.797 244.871 161.676 244.619 161.433 244.414C161.19 244.199 160.84 244.092 160.383 244.092C159.954 244.092 159.59 244.195 159.291 244.4C158.992 244.596 158.792 244.89 158.689 245.282L157.513 244.862C157.69 244.246 158.036 243.765 158.549 243.42C159.072 243.075 159.702 242.902 160.439 242.902C161.316 242.902 161.984 243.121 162.441 243.56C162.898 243.999 163.127 244.577 163.127 245.296V250H161.909ZM161.797 246.794L159.879 247.032C159.468 247.088 159.16 247.205 158.955 247.382C158.75 247.55 158.647 247.774 158.647 248.054C158.647 248.315 158.745 248.535 158.941 248.712C159.146 248.88 159.431 248.964 159.795 248.964C160.243 248.964 160.616 248.88 160.915 248.712C161.214 248.544 161.433 248.311 161.573 248.012C161.722 247.704 161.797 247.349 161.797 246.948V246.794ZM165.47 243V241.04H166.8V243H168.55V244.176H166.8V247.62C166.8 248.049 166.884 248.353 167.052 248.53C167.229 248.707 167.448 248.81 167.71 248.838C167.98 248.857 168.26 248.847 168.55 248.81V249.944C168.167 250.028 167.789 250.051 167.416 250.014C167.052 249.986 166.72 249.883 166.422 249.706C166.132 249.529 165.899 249.272 165.722 248.936C165.554 248.591 165.47 248.152 165.47 247.62V244.176H164.462V243H165.47ZM170.236 243H171.566V250H170.236V243ZM170.908 241.768C170.656 241.768 170.446 241.684 170.278 241.516C170.11 241.348 170.026 241.143 170.026 240.9C170.026 240.648 170.11 240.438 170.278 240.27C170.446 240.093 170.656 240.004 170.908 240.004C171.15 240.004 171.356 240.093 171.524 240.27C171.701 240.438 171.79 240.648 171.79 240.9C171.79 241.143 171.701 241.348 171.524 241.516C171.356 241.684 171.15 241.768 170.908 241.768ZM174.556 247.788C174.621 248.068 174.733 248.287 174.892 248.446C175.05 248.605 175.237 248.721 175.452 248.796C175.676 248.861 175.909 248.894 176.152 248.894C176.572 248.894 176.898 248.81 177.132 248.642C177.365 248.474 177.482 248.264 177.482 248.012C177.482 247.797 177.407 247.629 177.258 247.508C177.118 247.377 176.926 247.275 176.684 247.2C176.45 247.125 176.198 247.055 175.928 246.99C175.685 246.925 175.419 246.85 175.13 246.766C174.85 246.682 174.584 246.57 174.332 246.43C174.089 246.281 173.888 246.094 173.73 245.87C173.571 245.637 173.492 245.343 173.492 244.988C173.492 244.568 173.604 244.204 173.828 243.896C174.061 243.579 174.378 243.336 174.78 243.168C175.19 242.991 175.652 242.902 176.166 242.902C176.763 242.902 177.286 243.033 177.734 243.294C178.191 243.546 178.522 243.929 178.728 244.442L177.538 244.834C177.472 244.657 177.365 244.512 177.216 244.4C177.066 244.288 176.894 244.213 176.698 244.176C176.511 244.129 176.324 244.106 176.138 244.106C175.783 244.106 175.489 244.176 175.256 244.316C175.022 244.456 174.906 244.661 174.906 244.932C174.906 245.081 174.943 245.207 175.018 245.31C175.092 245.403 175.195 245.483 175.326 245.548C175.466 245.604 175.629 245.655 175.816 245.702C176.002 245.749 176.203 245.8 176.418 245.856C176.698 245.94 176.982 246.033 177.272 246.136C177.561 246.229 177.827 246.351 178.07 246.5C178.312 246.649 178.508 246.845 178.658 247.088C178.807 247.331 178.886 247.629 178.896 247.984C178.896 248.395 178.779 248.759 178.546 249.076C178.322 249.393 178 249.645 177.58 249.832C177.169 250.009 176.679 250.098 176.11 250.098C175.419 250.098 174.831 249.944 174.346 249.636C173.86 249.328 173.534 248.852 173.366 248.208L174.556 247.788ZM180.834 242.216C180.834 241.684 180.923 241.236 181.1 240.872C181.287 240.508 181.572 240.247 181.954 240.088C182.337 239.92 182.841 239.864 183.466 239.92V241.082C182.981 241.035 182.64 241.11 182.444 241.306C182.258 241.502 182.164 241.805 182.164 242.216V243H183.55V244.176H182.164V250H180.834V244.176H179.938V243H180.834V242.216ZM189.294 250L189.182 248.978C188.967 249.333 188.687 249.608 188.342 249.804C188.006 249.991 187.567 250.084 187.026 250.084C186.522 250.084 186.092 250.005 185.738 249.846C185.383 249.678 185.108 249.449 184.912 249.16C184.725 248.861 184.632 248.516 184.632 248.124C184.632 247.536 184.851 247.051 185.29 246.668C185.728 246.276 186.363 246.033 187.194 245.94L189.182 245.716V245.17C189.182 244.871 189.06 244.619 188.818 244.414C188.575 244.199 188.225 244.092 187.768 244.092C187.338 244.092 186.974 244.195 186.676 244.4C186.377 244.596 186.176 244.89 186.074 245.282L184.898 244.862C185.075 244.246 185.42 243.765 185.934 243.42C186.456 243.075 187.086 242.902 187.824 242.902C188.701 242.902 189.368 243.121 189.826 243.56C190.283 243.999 190.512 244.577 190.512 245.296V250H189.294ZM189.182 246.794L187.264 247.032C186.853 247.088 186.545 247.205 186.34 247.382C186.134 247.55 186.032 247.774 186.032 248.054C186.032 248.315 186.13 248.535 186.326 248.712C186.531 248.88 186.816 248.964 187.18 248.964C187.628 248.964 188.001 248.88 188.3 248.712C188.598 248.544 188.818 248.311 188.958 248.012C189.107 247.704 189.182 247.349 189.182 246.948V246.794ZM195.402 250.098C194.73 250.098 194.138 249.949 193.624 249.65C193.111 249.342 192.71 248.922 192.42 248.39C192.14 247.858 192 247.237 192 246.528C192 245.809 192.145 245.179 192.434 244.638C192.724 244.097 193.125 243.672 193.638 243.364C194.152 243.056 194.749 242.902 195.43 242.902C196.149 242.902 196.779 243.07 197.32 243.406C197.871 243.742 198.268 244.195 198.51 244.764L197.32 245.184C197.18 244.857 196.942 244.596 196.606 244.4C196.28 244.204 195.906 244.106 195.486 244.106C195.057 244.106 194.688 244.209 194.38 244.414C194.072 244.61 193.834 244.89 193.666 245.254C193.498 245.609 193.414 246.029 193.414 246.514C193.414 247.242 193.601 247.821 193.974 248.25C194.348 248.679 194.852 248.894 195.486 248.894C195.906 248.894 196.28 248.801 196.606 248.614C196.942 248.427 197.194 248.171 197.362 247.844L198.538 248.264C198.277 248.824 197.866 249.272 197.306 249.608C196.746 249.935 196.112 250.098 195.402 250.098ZM200.36 243V241.04H201.69V243H203.44V244.176H201.69V247.62C201.69 248.049 201.774 248.353 201.942 248.53C202.12 248.707 202.339 248.81 202.6 248.838C202.871 248.857 203.151 248.847 203.44 248.81V249.944C203.058 250.028 202.68 250.051 202.306 250.014C201.942 249.986 201.611 249.883 201.312 249.706C201.023 249.529 200.79 249.272 200.612 248.936C200.444 248.591 200.36 248.152 200.36 247.62V244.176H199.352V243H200.36ZM205.126 243H206.456V250H205.126V243ZM205.798 241.768C205.546 241.768 205.336 241.684 205.168 241.516C205 241.348 204.916 241.143 204.916 240.9C204.916 240.648 205 240.438 205.168 240.27C205.336 240.093 205.546 240.004 205.798 240.004C206.041 240.004 206.246 240.093 206.414 240.27C206.592 240.438 206.68 240.648 206.68 240.9C206.68 241.143 206.592 241.348 206.414 241.516C206.246 241.684 206.041 241.768 205.798 241.768ZM211.728 250.098C211.066 250.098 210.468 249.953 209.936 249.664C209.414 249.365 209.003 248.95 208.704 248.418C208.406 247.877 208.256 247.242 208.256 246.514C208.256 245.777 208.41 245.137 208.718 244.596C209.026 244.055 209.446 243.639 209.978 243.35C210.51 243.051 211.108 242.902 211.77 242.902C212.433 242.902 213.03 243.051 213.562 243.35C214.104 243.639 214.528 244.055 214.836 244.596C215.144 245.128 215.298 245.758 215.298 246.486C215.298 247.223 215.14 247.863 214.822 248.404C214.514 248.945 214.09 249.365 213.548 249.664C213.007 249.953 212.4 250.098 211.728 250.098ZM211.714 248.894C212.088 248.894 212.438 248.81 212.764 248.642C213.091 248.465 213.357 248.199 213.562 247.844C213.777 247.489 213.884 247.037 213.884 246.486C213.884 245.945 213.782 245.501 213.576 245.156C213.38 244.801 213.119 244.54 212.792 244.372C212.466 244.195 212.116 244.106 211.742 244.106C211.378 244.106 211.038 244.195 210.72 244.372C210.412 244.54 210.16 244.801 209.964 245.156C209.768 245.511 209.67 245.963 209.67 246.514C209.67 247.055 209.764 247.503 209.95 247.858C210.146 248.203 210.398 248.465 210.706 248.642C211.014 248.81 211.35 248.894 211.714 248.894ZM216.906 243H218.11L218.194 243.812C218.418 243.523 218.703 243.299 219.048 243.14C219.394 242.981 219.776 242.902 220.196 242.902C220.738 242.902 221.204 243.019 221.596 243.252C221.998 243.476 222.306 243.812 222.52 244.26C222.744 244.708 222.856 245.268 222.856 245.94V250H221.54V246.108C221.54 245.455 221.4 244.96 221.12 244.624C220.85 244.279 220.453 244.106 219.93 244.106C219.389 244.106 218.969 244.283 218.67 244.638C218.372 244.983 218.222 245.497 218.222 246.178V250H216.906V243ZM228.17 250.084C227.918 250.084 227.703 249.995 227.526 249.818C227.349 249.641 227.26 249.426 227.26 249.174C227.26 248.913 227.349 248.693 227.526 248.516C227.703 248.339 227.918 248.25 228.17 248.25C228.422 248.25 228.637 248.339 228.814 248.516C228.991 248.693 229.08 248.913 229.08 249.174C229.08 249.426 228.991 249.641 228.814 249.818C228.637 249.995 228.422 250.084 228.17 250.084ZM230.872 250.084C230.62 250.084 230.405 249.995 230.228 249.818C230.051 249.641 229.962 249.426 229.962 249.174C229.962 248.913 230.051 248.693 230.228 248.516C230.405 248.339 230.62 248.25 230.872 248.25C231.124 248.25 231.339 248.339 231.516 248.516C231.693 248.693 231.782 248.913 231.782 249.174C231.782 249.426 231.693 249.641 231.516 249.818C231.339 249.995 231.124 250.084 230.872 250.084ZM225.482 250.084C225.23 250.084 225.015 249.995 224.838 249.818C224.661 249.641 224.572 249.426 224.572 249.174C224.572 248.913 224.661 248.693 224.838 248.516C225.015 248.339 225.23 248.25 225.482 248.25C225.734 248.25 225.949 248.339 226.126 248.516C226.303 248.693 226.392 248.913 226.392 249.174C226.392 249.426 226.303 249.641 226.126 249.818C225.949 249.995 225.734 250.084 225.482 250.084Z" fill="#2F2F2F"/>
<circle cx="249.667" cy="245" r="4" fill="#FF9696"/>
<path d="M262.773 240.2H264.173V244.442H269.101V240.2H270.487V250H269.101V245.618H264.173V250H262.773V240.2ZM275.68 250.098C275.018 250.098 274.42 249.953 273.888 249.664C273.366 249.365 272.955 248.95 272.656 248.418C272.358 247.877 272.208 247.242 272.208 246.514C272.208 245.777 272.362 245.137 272.67 244.596C272.978 244.055 273.398 243.639 273.93 243.35C274.462 243.051 275.06 242.902 275.722 242.902C276.385 242.902 276.982 243.051 277.514 243.35C278.056 243.639 278.48 244.055 278.788 244.596C279.096 245.128 279.25 245.758 279.25 246.486C279.25 247.223 279.092 247.863 278.774 248.404C278.466 248.945 278.042 249.365 277.5 249.664C276.959 249.953 276.352 250.098 275.68 250.098ZM275.666 248.894C276.04 248.894 276.39 248.81 276.716 248.642C277.043 248.465 277.309 248.199 277.514 247.844C277.729 247.489 277.836 247.037 277.836 246.486C277.836 245.945 277.734 245.501 277.528 245.156C277.332 244.801 277.071 244.54 276.744 244.372C276.418 244.195 276.068 244.106 275.694 244.106C275.33 244.106 274.99 244.195 274.672 244.372C274.364 244.54 274.112 244.801 273.916 245.156C273.72 245.511 273.622 245.963 273.622 246.514C273.622 247.055 273.716 247.503 273.902 247.858C274.098 248.203 274.35 248.465 274.658 248.642C274.966 248.81 275.302 248.894 275.666 248.894ZM283.508 250H282.248L280.05 243H281.394L282.864 248.432L284.432 243H285.692L287.204 248.404L288.66 243H289.962L287.792 250H286.518L285.02 244.918L283.508 250ZM295.227 239.92H296.543V250H295.227V239.92ZM298.76 243H300.09V250H298.76V243ZM299.432 241.768C299.18 241.768 298.97 241.684 298.802 241.516C298.634 241.348 298.55 241.143 298.55 240.9C298.55 240.648 298.634 240.438 298.802 240.27C298.97 240.093 299.18 240.004 299.432 240.004C299.674 240.004 299.88 240.093 300.048 240.27C300.225 240.438 300.314 240.648 300.314 240.9C300.314 241.143 300.225 241.348 300.048 241.516C299.88 241.684 299.674 241.768 299.432 241.768ZM302.296 239.92H303.626V245.926H304.2L306.818 243H308.61L305.362 246.5L308.624 250H306.818L304.2 247.06H303.626V250H302.296V239.92ZM312.498 250.098C311.826 250.098 311.229 249.944 310.706 249.636C310.193 249.319 309.787 248.885 309.488 248.334C309.199 247.783 309.054 247.153 309.054 246.444C309.054 245.763 309.199 245.156 309.488 244.624C309.777 244.092 310.174 243.672 310.678 243.364C311.191 243.056 311.77 242.902 312.414 242.902C313.067 242.902 313.646 243.047 314.15 243.336C314.654 243.616 315.046 244.013 315.326 244.526C315.606 245.03 315.741 245.613 315.732 246.276C315.732 246.388 315.727 246.505 315.718 246.626C315.709 246.738 315.695 246.864 315.676 247.004H310.496C310.524 247.377 310.627 247.709 310.804 247.998C310.991 248.278 311.224 248.497 311.504 248.656C311.793 248.815 312.12 248.894 312.484 248.894C312.951 248.894 313.357 248.805 313.702 248.628C314.047 248.441 314.29 248.194 314.43 247.886L315.578 248.292C315.298 248.861 314.887 249.305 314.346 249.622C313.814 249.939 313.198 250.098 312.498 250.098ZM314.29 245.87C314.29 245.534 314.206 245.231 314.038 244.96C313.87 244.689 313.641 244.479 313.352 244.33C313.072 244.171 312.755 244.092 312.4 244.092C312.083 244.092 311.789 244.171 311.518 244.33C311.257 244.479 311.033 244.689 310.846 244.96C310.669 245.221 310.557 245.525 310.51 245.87H314.29ZM317.349 239.92H318.665V250H317.349V239.92ZM325.445 243H326.817L322.757 252.8H321.455L322.687 249.86L319.915 243H321.371L323.401 248.306L325.445 243ZM336.275 250L336.163 248.978C335.948 249.333 335.668 249.608 335.323 249.804C334.987 249.991 334.548 250.084 334.007 250.084C333.503 250.084 333.073 250.005 332.719 249.846C332.364 249.678 332.089 249.449 331.893 249.16C331.706 248.861 331.613 248.516 331.613 248.124C331.613 247.536 331.832 247.051 332.271 246.668C332.709 246.276 333.344 246.033 334.175 245.94L336.163 245.716V245.17C336.163 244.871 336.041 244.619 335.799 244.414C335.556 244.199 335.206 244.092 334.749 244.092C334.319 244.092 333.955 244.195 333.657 244.4C333.358 244.596 333.157 244.89 333.055 245.282L331.879 244.862C332.056 244.246 332.401 243.765 332.915 243.42C333.437 243.075 334.067 242.902 334.805 242.902C335.682 242.902 336.349 243.121 336.807 243.56C337.264 243.999 337.493 244.577 337.493 245.296V250H336.275ZM336.163 246.794L334.245 247.032C333.834 247.088 333.526 247.205 333.321 247.382C333.115 247.55 333.013 247.774 333.013 248.054C333.013 248.315 333.111 248.535 333.307 248.712C333.512 248.88 333.797 248.964 334.161 248.964C334.609 248.964 334.982 248.88 335.281 248.712C335.579 248.544 335.799 248.311 335.939 248.012C336.088 247.704 336.163 247.349 336.163 246.948V246.794ZM339.388 243H340.592L340.676 243.938C340.872 243.695 341.096 243.495 341.348 243.336C341.609 243.168 341.889 243.051 342.188 242.986C342.496 242.921 342.813 242.925 343.14 243V244.246C342.832 244.171 342.533 244.162 342.244 244.218C341.954 244.274 341.693 244.395 341.46 244.582C341.236 244.759 341.054 244.997 340.914 245.296C340.774 245.595 340.704 245.954 340.704 246.374V250H339.388V243ZM347.375 250.098C346.703 250.098 346.106 249.944 345.583 249.636C345.07 249.319 344.664 248.885 344.365 248.334C344.076 247.783 343.931 247.153 343.931 246.444C343.931 245.763 344.076 245.156 344.365 244.624C344.654 244.092 345.051 243.672 345.555 243.364C346.068 243.056 346.647 242.902 347.291 242.902C347.944 242.902 348.523 243.047 349.027 243.336C349.531 243.616 349.923 244.013 350.203 244.526C350.483 245.03 350.618 245.613 350.609 246.276C350.609 246.388 350.604 246.505 350.595 246.626C350.586 246.738 350.572 246.864 350.553 247.004H345.373C345.401 247.377 345.504 247.709 345.681 247.998C345.868 248.278 346.101 248.497 346.381 248.656C346.67 248.815 346.997 248.894 347.361 248.894C347.828 248.894 348.234 248.805 348.579 248.628C348.924 248.441 349.167 248.194 349.307 247.886L350.455 248.292C350.175 248.861 349.764 249.305 349.223 249.622C348.691 249.939 348.075 250.098 347.375 250.098ZM349.167 245.87C349.167 245.534 349.083 245.231 348.915 244.96C348.747 244.689 348.518 244.479 348.229 244.33C347.949 244.171 347.632 244.092 347.277 244.092C346.96 244.092 346.666 244.171 346.395 244.33C346.134 244.479 345.91 244.689 345.723 244.96C345.546 245.221 345.434 245.525 345.387 245.87H349.167ZM360.923 243H362.295L358.235 252.8H356.933L358.165 249.86L355.393 243H356.849L358.879 248.306L360.923 243ZM366.489 250.098C365.826 250.098 365.229 249.953 364.697 249.664C364.174 249.365 363.763 248.95 363.465 248.418C363.166 247.877 363.017 247.242 363.017 246.514C363.017 245.777 363.171 245.137 363.479 244.596C363.787 244.055 364.207 243.639 364.739 243.35C365.271 243.051 365.868 242.902 366.531 242.902C367.193 242.902 367.791 243.051 368.323 243.35C368.864 243.639 369.289 244.055 369.597 244.596C369.905 245.128 370.059 245.758 370.059 246.486C370.059 247.223 369.9 247.863 369.583 248.404C369.275 248.945 368.85 249.365 368.309 249.664C367.767 249.953 367.161 250.098 366.489 250.098ZM366.475 248.894C366.848 248.894 367.198 248.81 367.525 248.642C367.851 248.465 368.117 248.199 368.323 247.844C368.537 247.489 368.645 247.037 368.645 246.486C368.645 245.945 368.542 245.501 368.337 245.156C368.141 244.801 367.879 244.54 367.553 244.372C367.226 244.195 366.876 244.106 366.503 244.106C366.139 244.106 365.798 244.195 365.481 244.372C365.173 244.54 364.921 244.801 364.725 245.156C364.529 245.511 364.431 245.963 364.431 246.514C364.431 247.055 364.524 247.503 364.711 247.858C364.907 248.203 365.159 248.465 365.467 248.642C365.775 248.81 366.111 248.894 366.475 248.894ZM377.519 250H376.315L376.217 249.174C375.993 249.473 375.708 249.701 375.363 249.86C375.027 250.019 374.649 250.098 374.229 250.098C373.688 250.098 373.216 249.986 372.815 249.762C372.414 249.529 372.101 249.193 371.877 248.754C371.662 248.306 371.555 247.751 371.555 247.088V243H372.885V246.92C372.885 247.564 373.016 248.054 373.277 248.39C373.548 248.726 373.954 248.894 374.495 248.894C375.027 248.894 375.442 248.721 375.741 248.376C376.049 248.031 376.203 247.517 376.203 246.836V243H377.519V250ZM383.886 243V241.04H385.216V243H386.966V244.176H385.216V247.62C385.216 248.049 385.3 248.353 385.468 248.53C385.646 248.707 385.865 248.81 386.126 248.838C386.397 248.857 386.677 248.847 386.966 248.81V249.944C386.584 250.028 386.206 250.051 385.832 250.014C385.468 249.986 385.137 249.883 384.838 249.706C384.549 249.529 384.316 249.272 384.138 248.936C383.97 248.591 383.886 248.152 383.886 247.62V244.176H382.878V243H383.886ZM391.508 250.098C390.846 250.098 390.248 249.953 389.716 249.664C389.194 249.365 388.783 248.95 388.484 248.418C388.186 247.877 388.036 247.242 388.036 246.514C388.036 245.777 388.19 245.137 388.498 244.596C388.806 244.055 389.226 243.639 389.758 243.35C390.29 243.051 390.888 242.902 391.55 242.902C392.213 242.902 392.81 243.051 393.342 243.35C393.884 243.639 394.308 244.055 394.616 244.596C394.924 245.128 395.078 245.758 395.078 246.486C395.078 247.223 394.92 247.863 394.602 248.404C394.294 248.945 393.87 249.365 393.328 249.664C392.787 249.953 392.18 250.098 391.508 250.098ZM391.494 248.894C391.868 248.894 392.218 248.81 392.544 248.642C392.871 248.465 393.137 248.199 393.342 247.844C393.557 247.489 393.664 247.037 393.664 246.486C393.664 245.945 393.562 245.501 393.356 245.156C393.16 244.801 392.899 244.54 392.572 244.372C392.246 244.195 391.896 244.106 391.522 244.106C391.158 244.106 390.818 244.195 390.5 244.372C390.192 244.54 389.94 244.801 389.744 245.156C389.548 245.511 389.45 245.963 389.45 246.514C389.45 247.055 389.544 247.503 389.73 247.858C389.926 248.203 390.178 248.465 390.486 248.642C390.794 248.81 391.13 248.894 391.494 248.894ZM400.61 243H401.814L401.898 243.938C402.094 243.695 402.318 243.495 402.57 243.336C402.832 243.168 403.112 243.051 403.41 242.986C403.718 242.921 404.036 242.925 404.362 243V244.246C404.054 244.171 403.756 244.162 403.466 244.218C403.177 244.274 402.916 244.395 402.682 244.582C402.458 244.759 402.276 244.997 402.136 245.296C401.996 245.595 401.926 245.954 401.926 246.374V250H400.61V243ZM408.598 250.098C407.926 250.098 407.328 249.944 406.806 249.636C406.292 249.319 405.886 248.885 405.588 248.334C405.298 247.783 405.154 247.153 405.154 246.444C405.154 245.763 405.298 245.156 405.588 244.624C405.877 244.092 406.274 243.672 406.778 243.364C407.291 243.056 407.87 242.902 408.514 242.902C409.167 242.902 409.746 243.047 410.25 243.336C410.754 243.616 411.146 244.013 411.426 244.526C411.706 245.03 411.841 245.613 411.832 246.276C411.832 246.388 411.827 246.505 411.818 246.626C411.808 246.738 411.794 246.864 411.776 247.004H406.596C406.624 247.377 406.726 247.709 406.904 247.998C407.09 248.278 407.324 248.497 407.604 248.656C407.893 248.815 408.22 248.894 408.584 248.894C409.05 248.894 409.456 248.805 409.802 248.628C410.147 248.441 410.39 248.194 410.53 247.886L411.678 248.292C411.398 248.861 410.987 249.305 410.446 249.622C409.914 249.939 409.298 250.098 408.598 250.098ZM410.39 245.87C410.39 245.534 410.306 245.231 410.138 244.96C409.97 244.689 409.741 244.479 409.452 244.33C409.172 244.171 408.854 244.092 408.5 244.092C408.182 244.092 407.888 244.171 407.618 244.33C407.356 244.479 407.132 244.689 406.946 244.96C406.768 245.221 406.656 245.525 406.61 245.87H410.39ZM416.444 250.098C415.772 250.098 415.18 249.949 414.666 249.65C414.153 249.342 413.752 248.922 413.462 248.39C413.182 247.858 413.042 247.237 413.042 246.528C413.042 245.809 413.187 245.179 413.476 244.638C413.766 244.097 414.167 243.672 414.68 243.364C415.194 243.056 415.791 242.902 416.472 242.902C417.191 242.902 417.821 243.07 418.362 243.406C418.913 243.742 419.31 244.195 419.552 244.764L418.362 245.184C418.222 244.857 417.984 244.596 417.648 244.4C417.322 244.204 416.948 244.106 416.528 244.106C416.099 244.106 415.73 244.209 415.422 244.414C415.114 244.61 414.876 244.89 414.708 245.254C414.54 245.609 414.456 246.029 414.456 246.514C414.456 247.242 414.643 247.821 415.016 248.25C415.39 248.679 415.894 248.894 416.528 248.894C416.948 248.894 417.322 248.801 417.648 248.614C417.984 248.427 418.236 248.171 418.404 247.844L419.58 248.264C419.319 248.824 418.908 249.272 418.348 249.608C417.788 249.935 417.154 250.098 416.444 250.098ZM424.252 250.098C423.59 250.098 422.992 249.953 422.46 249.664C421.938 249.365 421.527 248.95 421.228 248.418C420.93 247.877 420.78 247.242 420.78 246.514C420.78 245.777 420.934 245.137 421.242 244.596C421.55 244.055 421.97 243.639 422.502 243.35C423.034 243.051 423.632 242.902 424.294 242.902C424.957 242.902 425.554 243.051 426.086 243.35C426.628 243.639 427.052 244.055 427.36 244.596C427.668 245.128 427.822 245.758 427.822 246.486C427.822 247.223 427.664 247.863 427.346 248.404C427.038 248.945 426.614 249.365 426.072 249.664C425.531 249.953 424.924 250.098 424.252 250.098ZM424.238 248.894C424.612 248.894 424.962 248.81 425.288 248.642C425.615 248.465 425.881 248.199 426.086 247.844C426.301 247.489 426.408 247.037 426.408 246.486C426.408 245.945 426.306 245.501 426.1 245.156C425.904 244.801 425.643 244.54 425.316 244.372C424.99 244.195 424.64 244.106 424.266 244.106C423.902 244.106 423.562 244.195 423.244 244.372C422.936 244.54 422.684 244.801 422.488 245.156C422.292 245.511 422.194 245.963 422.194 246.514C422.194 247.055 422.288 247.503 422.474 247.858C422.67 248.203 422.922 248.465 423.23 248.642C423.538 248.81 423.874 248.894 424.238 248.894ZM429.431 243H430.635L430.719 243.812C430.943 243.532 431.223 243.313 431.559 243.154C431.895 242.986 432.273 242.902 432.693 242.902C433.169 242.902 433.598 243.009 433.981 243.224C434.373 243.429 434.681 243.737 434.905 244.148C435.138 243.737 435.469 243.429 435.899 243.224C436.328 243.009 436.799 242.902 437.313 242.902C437.845 242.902 438.311 243.019 438.713 243.252C439.123 243.476 439.441 243.812 439.665 244.26C439.889 244.708 440.001 245.268 440.001 245.94V250H438.671V246.108C438.671 245.455 438.531 244.96 438.251 244.624C437.971 244.279 437.569 244.106 437.047 244.106C436.515 244.106 436.095 244.283 435.787 244.638C435.479 244.993 435.325 245.511 435.325 246.192V250H433.995V246.108C433.995 245.455 433.864 244.96 433.603 244.624C433.341 244.279 432.949 244.106 432.427 244.106C431.895 244.106 431.479 244.283 431.181 244.638C430.891 244.993 430.747 245.511 430.747 246.192V250H429.431V243ZM445.302 250.084C445.05 250.084 444.835 249.995 444.658 249.818C444.48 249.641 444.392 249.426 444.392 249.174C444.392 248.913 444.48 248.693 444.658 248.516C444.835 248.339 445.05 248.25 445.302 248.25C445.554 248.25 445.768 248.339 445.946 248.516C446.123 248.693 446.212 248.913 446.212 249.174C446.212 249.426 446.123 249.641 445.946 249.818C445.768 249.995 445.554 250.084 445.302 250.084ZM448.004 250.084C447.752 250.084 447.537 249.995 447.36 249.818C447.182 249.641 447.094 249.426 447.094 249.174C447.094 248.913 447.182 248.693 447.36 248.516C447.537 248.339 447.752 248.25 448.004 248.25C448.256 248.25 448.47 248.339 448.648 248.516C448.825 248.693 448.914 248.913 448.914 249.174C448.914 249.426 448.825 249.641 448.648 249.818C448.47 249.995 448.256 250.084 448.004 250.084ZM442.614 250.084C442.362 250.084 442.147 249.995 441.97 249.818C441.792 249.641 441.704 249.426 441.704 249.174C441.704 248.913 441.792 248.693 441.97 248.516C442.147 248.339 442.362 248.25 442.614 248.25C442.866 248.25 443.08 248.339 443.258 248.516C443.435 248.693 443.524 248.913 443.524 249.174C443.524 249.426 443.435 249.641 443.258 249.818C443.08 249.995 442.866 250.084 442.614 250.084Z" fill="#2F2F2F"/>
<circle cx="473.333" cy="245" r="4" fill="#238DB8"/>
<path d="M490.051 250H488.497L485.697 240.2H487.195L489.281 248.376L491.521 240.2H493.075L495.301 248.348L497.401 240.2H498.871L496.085 250H494.517L492.291 242.286L490.051 250ZM500.259 239.92H501.575V243.77C501.799 243.499 502.089 243.289 502.443 243.14C502.798 242.981 503.19 242.902 503.619 242.902C504.142 242.902 504.599 243.019 504.991 243.252C505.393 243.476 505.705 243.817 505.929 244.274C506.153 244.722 506.265 245.282 506.265 245.954V250H504.879V246.122C504.879 245.469 504.744 244.969 504.473 244.624C504.203 244.279 503.806 244.106 503.283 244.106C502.742 244.106 502.322 244.283 502.023 244.638C501.725 244.993 501.575 245.511 501.575 246.192V250H500.259V239.92ZM508.385 243H509.715V250H508.385V243ZM509.057 241.768C508.805 241.768 508.595 241.684 508.427 241.516C508.259 241.348 508.175 241.143 508.175 240.9C508.175 240.648 508.259 240.438 508.427 240.27C508.595 240.093 508.805 240.004 509.057 240.004C509.3 240.004 509.505 240.093 509.673 240.27C509.851 240.438 509.939 240.648 509.939 240.9C509.939 241.143 509.851 241.348 509.673 241.516C509.505 241.684 509.3 241.768 509.057 241.768ZM514.917 250.098C514.245 250.098 513.653 249.949 513.139 249.65C512.626 249.342 512.225 248.922 511.935 248.39C511.655 247.858 511.515 247.237 511.515 246.528C511.515 245.809 511.66 245.179 511.949 244.638C512.239 244.097 512.64 243.672 513.153 243.364C513.667 243.056 514.264 242.902 514.945 242.902C515.664 242.902 516.294 243.07 516.835 243.406C517.386 243.742 517.783 244.195 518.025 244.764L516.835 245.184C516.695 244.857 516.457 244.596 516.121 244.4C515.795 244.204 515.421 244.106 515.001 244.106C514.572 244.106 514.203 244.209 513.895 244.414C513.587 244.61 513.349 244.89 513.181 245.254C513.013 245.609 512.929 246.029 512.929 246.514C512.929 247.242 513.116 247.821 513.489 248.25C513.863 248.679 514.367 248.894 515.001 248.894C515.421 248.894 515.795 248.801 516.121 248.614C516.457 248.427 516.709 248.171 516.877 247.844L518.053 248.264C517.792 248.824 517.381 249.272 516.821 249.608C516.261 249.935 515.627 250.098 514.917 250.098ZM519.66 239.92H520.976V243.77C521.2 243.499 521.489 243.289 521.844 243.14C522.198 242.981 522.59 242.902 523.02 242.902C523.542 242.902 524 243.019 524.392 243.252C524.793 243.476 525.106 243.817 525.33 244.274C525.554 244.722 525.666 245.282 525.666 245.954V250H524.28V246.122C524.28 245.469 524.144 244.969 523.874 244.624C523.603 244.279 523.206 244.106 522.684 244.106C522.142 244.106 521.722 244.283 521.424 244.638C521.125 244.993 520.976 245.511 520.976 246.192V250H519.66V239.92ZM534.565 250.098C533.903 250.098 533.305 249.953 532.773 249.664C532.251 249.365 531.84 248.95 531.541 248.418C531.243 247.877 531.093 247.242 531.093 246.514C531.093 245.777 531.247 245.137 531.555 244.596C531.863 244.055 532.283 243.639 532.815 243.35C533.347 243.051 533.945 242.902 534.607 242.902C535.27 242.902 535.867 243.051 536.399 243.35C536.941 243.639 537.365 244.055 537.673 244.596C537.981 245.128 538.135 245.758 538.135 246.486C538.135 247.223 537.977 247.863 537.659 248.404C537.351 248.945 536.927 249.365 536.385 249.664C535.844 249.953 535.237 250.098 534.565 250.098ZM534.551 248.894C534.925 248.894 535.275 248.81 535.601 248.642C535.928 248.465 536.194 248.199 536.399 247.844C536.614 247.489 536.721 247.037 536.721 246.486C536.721 245.945 536.619 245.501 536.413 245.156C536.217 244.801 535.956 244.54 535.629 244.372C535.303 244.195 534.953 244.106 534.579 244.106C534.215 244.106 533.875 244.195 533.557 244.372C533.249 244.54 532.997 244.801 532.801 245.156C532.605 245.511 532.507 245.963 532.507 246.514C532.507 247.055 532.601 247.503 532.787 247.858C532.983 248.203 533.235 248.465 533.543 248.642C533.851 248.81 534.187 248.894 534.551 248.894ZM540.08 242.216C540.08 241.684 540.168 241.236 540.346 240.872C540.532 240.508 540.817 240.247 541.2 240.088C541.582 239.92 542.086 239.864 542.712 239.92V241.082C542.226 241.035 541.886 241.11 541.69 241.306C541.503 241.502 541.41 241.805 541.41 242.216V243H542.796V244.176H541.41V250H540.08V244.176H539.184V243H540.08V242.216ZM548.641 243V241.04H549.971V243H551.721V244.176H549.971V247.62C549.971 248.049 550.055 248.353 550.223 248.53C550.4 248.707 550.619 248.81 550.881 248.838C551.151 248.857 551.431 248.847 551.721 248.81V249.944C551.338 250.028 550.96 250.051 550.587 250.014C550.223 249.986 549.891 249.883 549.593 249.706C549.303 249.529 549.07 249.272 548.893 248.936C548.725 248.591 548.641 248.152 548.641 247.62V244.176H547.633V243H548.641ZM553.197 239.92H554.513V243.77C554.737 243.499 555.026 243.289 555.381 243.14C555.735 242.981 556.127 242.902 556.557 242.902C557.079 242.902 557.537 243.019 557.929 243.252C558.33 243.476 558.643 243.817 558.867 244.274C559.091 244.722 559.203 245.282 559.203 245.954V250H557.817V246.122C557.817 245.469 557.681 244.969 557.411 244.624C557.14 244.279 556.743 244.106 556.221 244.106C555.679 244.106 555.259 244.283 554.961 244.638C554.662 244.993 554.513 245.511 554.513 246.192V250H553.197V239.92ZM564.151 250.098C563.479 250.098 562.881 249.944 562.359 249.636C561.845 249.319 561.439 248.885 561.141 248.334C560.851 247.783 560.707 247.153 560.707 246.444C560.707 245.763 560.851 245.156 561.141 244.624C561.43 244.092 561.827 243.672 562.331 243.364C562.844 243.056 563.423 242.902 564.067 242.902C564.72 242.902 565.299 243.047 565.803 243.336C566.307 243.616 566.699 244.013 566.979 244.526C567.259 245.03 567.394 245.613 567.385 246.276C567.385 246.388 567.38 246.505 567.371 246.626C567.361 246.738 567.347 246.864 567.329 247.004H562.149C562.177 247.377 562.279 247.709 562.457 247.998C562.643 248.278 562.877 248.497 563.157 248.656C563.446 248.815 563.773 248.894 564.137 248.894C564.603 248.894 565.009 248.805 565.355 248.628C565.7 248.441 565.943 248.194 566.083 247.886L567.231 248.292C566.951 248.861 566.54 249.305 565.999 249.622C565.467 249.939 564.851 250.098 564.151 250.098ZM565.943 245.87C565.943 245.534 565.859 245.231 565.691 244.96C565.523 244.689 565.294 244.479 565.005 244.33C564.725 244.171 564.407 244.092 564.053 244.092C563.735 244.092 563.441 244.171 563.171 244.33C562.909 244.479 562.685 244.689 562.499 244.96C562.321 245.221 562.209 245.525 562.163 245.87H565.943ZM573.261 242.216C573.261 241.684 573.35 241.236 573.527 240.872C573.714 240.508 573.999 240.247 574.381 240.088C574.764 239.92 575.268 239.864 575.893 239.92V241.082C575.408 241.035 575.067 241.11 574.871 241.306C574.685 241.502 574.591 241.805 574.591 242.216V243H575.977V244.176H574.591V250H573.261V244.176H572.365V243H573.261V242.216ZM580.38 250.098C579.717 250.098 579.12 249.953 578.588 249.664C578.065 249.365 577.655 248.95 577.356 248.418C577.057 247.877 576.908 247.242 576.908 246.514C576.908 245.777 577.062 245.137 577.37 244.596C577.678 244.055 578.098 243.639 578.63 243.35C579.162 243.051 579.759 242.902 580.422 242.902C581.085 242.902 581.682 243.051 582.214 243.35C582.755 243.639 583.18 244.055 583.488 244.596C583.796 245.128 583.95 245.758 583.95 246.486C583.95 247.223 583.791 247.863 583.474 248.404C583.166 248.945 582.741 249.365 582.2 249.664C581.659 249.953 581.052 250.098 580.38 250.098ZM580.366 248.894C580.739 248.894 581.089 248.81 581.416 248.642C581.743 248.465 582.009 248.199 582.214 247.844C582.429 247.489 582.536 247.037 582.536 246.486C582.536 245.945 582.433 245.501 582.228 245.156C582.032 244.801 581.771 244.54 581.444 244.372C581.117 244.195 580.767 244.106 580.394 244.106C580.03 244.106 579.689 244.195 579.372 244.372C579.064 244.54 578.812 244.801 578.616 245.156C578.42 245.511 578.322 245.963 578.322 246.514C578.322 247.055 578.415 247.503 578.602 247.858C578.798 248.203 579.05 248.465 579.358 248.642C579.666 248.81 580.002 248.894 580.366 248.894ZM585.558 239.92H586.874V250H585.558V239.92ZM588.88 239.92H590.196V250H588.88V239.92ZM595.269 250.098C594.606 250.098 594.009 249.953 593.477 249.664C592.954 249.365 592.543 248.95 592.245 248.418C591.946 247.877 591.797 247.242 591.797 246.514C591.797 245.777 591.951 245.137 592.259 244.596C592.567 244.055 592.987 243.639 593.519 243.35C594.051 243.051 594.648 242.902 595.311 242.902C595.973 242.902 596.571 243.051 597.103 243.35C597.644 243.639 598.069 244.055 598.377 244.596C598.685 245.128 598.839 245.758 598.839 246.486C598.839 247.223 598.68 247.863 598.363 248.404C598.055 248.945 597.63 249.365 597.089 249.664C596.547 249.953 595.941 250.098 595.269 250.098ZM595.255 248.894C595.628 248.894 595.978 248.81 596.305 248.642C596.631 248.465 596.897 248.199 597.103 247.844C597.317 247.489 597.425 247.037 597.425 246.486C597.425 245.945 597.322 245.501 597.117 245.156C596.921 244.801 596.659 244.54 596.333 244.372C596.006 244.195 595.656 244.106 595.283 244.106C594.919 244.106 594.578 244.195 594.261 244.372C593.953 244.54 593.701 244.801 593.505 245.156C593.309 245.511 593.211 245.963 593.211 246.514C593.211 247.055 593.304 247.503 593.491 247.858C593.687 248.203 593.939 248.465 594.247 248.642C594.555 248.81 594.891 248.894 595.255 248.894ZM603.096 250H601.836L599.638 243H600.982L602.452 248.432L604.02 243H605.28L606.792 248.404L608.248 243H609.55L607.38 250H606.106L604.608 244.918L603.096 250ZM611.102 243H612.432V250H611.102V243ZM611.774 241.768C611.522 241.768 611.312 241.684 611.144 241.516C610.976 241.348 610.892 241.143 610.892 240.9C610.892 240.648 610.976 240.438 611.144 240.27C611.312 240.093 611.522 240.004 611.774 240.004C612.017 240.004 612.222 240.093 612.39 240.27C612.567 240.438 612.656 240.648 612.656 240.9C612.656 241.143 612.567 241.348 612.39 241.516C612.222 241.684 612.017 241.768 611.774 241.768ZM614.638 243H615.842L615.926 243.812C616.15 243.523 616.435 243.299 616.78 243.14C617.125 242.981 617.508 242.902 617.928 242.902C618.469 242.902 618.936 243.019 619.328 243.252C619.729 243.476 620.037 243.812 620.252 244.26C620.476 244.708 620.588 245.268 620.588 245.94V250H619.272V246.108C619.272 245.455 619.132 244.96 618.852 244.624C618.581 244.279 618.185 244.106 617.662 244.106C617.121 244.106 616.701 244.283 616.402 244.638C616.103 244.983 615.954 245.497 615.954 246.178V250H614.638V243ZM627.736 243H628.94V248.852C628.94 249.673 628.744 250.378 628.352 250.966C627.96 251.554 627.395 252.007 626.658 252.324C625.93 252.641 625.048 252.8 624.012 252.8L623.802 251.638C625.052 251.61 626 251.358 626.644 250.882C627.288 250.415 627.61 249.739 627.61 248.852V248.782L627.764 248.796C627.54 249.151 627.218 249.459 626.798 249.72C626.387 249.972 625.874 250.098 625.258 250.098C624.632 250.098 624.077 249.949 623.592 249.65C623.116 249.351 622.742 248.931 622.472 248.39C622.21 247.849 622.08 247.219 622.08 246.5C622.08 245.781 622.21 245.151 622.472 244.61C622.742 244.069 623.116 243.649 623.592 243.35C624.077 243.051 624.632 242.902 625.258 242.902C625.64 242.902 625.981 242.953 626.28 243.056C626.588 243.159 626.854 243.299 627.078 243.476C627.302 243.644 627.488 243.835 627.638 244.05L627.736 243ZM623.494 246.5C623.494 247.219 623.68 247.797 624.054 248.236C624.436 248.675 624.945 248.894 625.58 248.894C625.953 248.894 626.294 248.801 626.602 248.614C626.91 248.418 627.152 248.143 627.33 247.788C627.516 247.424 627.61 246.995 627.61 246.5C627.61 245.996 627.516 245.567 627.33 245.212C627.152 244.857 626.905 244.587 626.588 244.4C626.28 244.204 625.944 244.106 625.58 244.106C624.945 244.106 624.436 244.325 624.054 244.764C623.68 245.203 623.494 245.781 623.494 246.5ZM636.035 244.19C636.249 243.826 636.567 243.523 636.987 243.28C637.416 243.028 637.934 242.902 638.541 242.902C639.175 242.902 639.731 243.051 640.207 243.35C640.683 243.649 641.051 244.069 641.313 244.61C641.583 245.151 641.719 245.781 641.719 246.5C641.719 247.219 641.583 247.849 641.313 248.39C641.042 248.931 640.669 249.351 640.193 249.65C639.717 249.949 639.166 250.098 638.541 250.098C637.971 250.098 637.486 249.986 637.085 249.762C636.693 249.538 636.385 249.267 636.161 248.95L636.063 250H634.859V239.92H636.175V244.232L636.035 244.19ZM640.291 246.5C640.291 245.781 640.099 245.203 639.717 244.764C639.343 244.325 638.853 244.106 638.247 244.106C637.855 244.106 637.505 244.204 637.197 244.4C636.889 244.587 636.641 244.857 636.455 245.212C636.268 245.567 636.175 245.996 636.175 246.5C636.175 247.004 636.268 247.438 636.455 247.802C636.641 248.157 636.889 248.427 637.197 248.614C637.505 248.801 637.855 248.894 638.247 248.894C638.853 248.894 639.343 248.675 639.717 248.236C640.099 247.797 640.291 247.219 640.291 246.5ZM646.291 250.098C645.619 250.098 645.022 249.944 644.499 249.636C643.986 249.319 643.58 248.885 643.281 248.334C642.992 247.783 642.847 247.153 642.847 246.444C642.847 245.763 642.992 245.156 643.281 244.624C643.571 244.092 643.967 243.672 644.471 243.364C644.985 243.056 645.563 242.902 646.207 242.902C646.861 242.902 647.439 243.047 647.943 243.336C648.447 243.616 648.839 244.013 649.119 244.526C649.399 245.03 649.535 245.613 649.525 246.276C649.525 246.388 649.521 246.505 649.511 246.626C649.502 246.738 649.488 246.864 649.469 247.004H644.289C644.317 247.377 644.42 247.709 644.597 247.998C644.784 248.278 645.017 248.497 645.297 248.656C645.587 248.815 645.913 248.894 646.277 248.894C646.744 248.894 647.15 248.805 647.495 248.628C647.841 248.441 648.083 248.194 648.223 247.886L649.371 248.292C649.091 248.861 648.681 249.305 648.139 249.622C647.607 249.939 646.991 250.098 646.291 250.098ZM648.083 245.87C648.083 245.534 647.999 245.231 647.831 244.96C647.663 244.689 647.435 244.479 647.145 244.33C646.865 244.171 646.548 244.092 646.193 244.092C645.876 244.092 645.582 244.171 645.311 244.33C645.05 244.479 644.826 244.689 644.639 244.96C644.462 245.221 644.35 245.525 644.303 245.87H648.083ZM651.926 247.788C651.991 248.068 652.103 248.287 652.262 248.446C652.421 248.605 652.607 248.721 652.822 248.796C653.046 248.861 653.279 248.894 653.522 248.894C653.942 248.894 654.269 248.81 654.502 248.642C654.735 248.474 654.852 248.264 654.852 248.012C654.852 247.797 654.777 247.629 654.628 247.508C654.488 247.377 654.297 247.275 654.054 247.2C653.821 247.125 653.569 247.055 653.298 246.99C653.055 246.925 652.789 246.85 652.5 246.766C652.22 246.682 651.954 246.57 651.702 246.43C651.459 246.281 651.259 246.094 651.1 245.87C650.941 245.637 650.862 245.343 650.862 244.988C650.862 244.568 650.974 244.204 651.198 243.896C651.431 243.579 651.749 243.336 652.15 243.168C652.561 242.991 653.023 242.902 653.536 242.902C654.133 242.902 654.656 243.033 655.104 243.294C655.561 243.546 655.893 243.929 656.098 244.442L654.908 244.834C654.843 244.657 654.735 244.512 654.586 244.4C654.437 244.288 654.264 244.213 654.068 244.176C653.881 244.129 653.695 244.106 653.508 244.106C653.153 244.106 652.859 244.176 652.626 244.316C652.393 244.456 652.276 244.661 652.276 244.932C652.276 245.081 652.313 245.207 652.388 245.31C652.463 245.403 652.565 245.483 652.696 245.548C652.836 245.604 652.999 245.655 653.186 245.702C653.373 245.749 653.573 245.8 653.788 245.856C654.068 245.94 654.353 246.033 654.642 246.136C654.931 246.229 655.197 246.351 655.44 246.5C655.683 246.649 655.879 246.845 656.028 247.088C656.177 247.331 656.257 247.629 656.266 247.984C656.266 248.395 656.149 248.759 655.916 249.076C655.692 249.393 655.37 249.645 654.95 249.832C654.539 250.009 654.049 250.098 653.48 250.098C652.789 250.098 652.201 249.944 651.716 249.636C651.231 249.328 650.904 248.852 650.736 248.208L651.926 247.788ZM658.317 243V241.04H659.647V243H661.397V244.176H659.647V247.62C659.647 248.049 659.731 248.353 659.899 248.53C660.076 248.707 660.295 248.81 660.557 248.838C660.827 248.857 661.107 248.847 661.397 248.81V249.944C661.014 250.028 660.636 250.051 660.263 250.014C659.899 249.986 659.567 249.883 659.269 249.706C658.979 249.529 658.746 249.272 658.569 248.936C658.401 248.591 658.317 248.152 658.317 247.62V244.176H657.309V243H658.317ZM666.289 250.084C666.037 250.084 665.822 249.995 665.645 249.818C665.467 249.641 665.379 249.426 665.379 249.174C665.379 248.913 665.467 248.693 665.645 248.516C665.822 248.339 666.037 248.25 666.289 248.25C666.541 248.25 666.755 248.339 666.933 248.516C667.11 248.693 667.199 248.913 667.199 249.174C667.199 249.426 667.11 249.641 666.933 249.818C666.755 249.995 666.541 250.084 666.289 250.084ZM668.991 250.084C668.739 250.084 668.524 249.995 668.347 249.818C668.169 249.641 668.081 249.426 668.081 249.174C668.081 248.913 668.169 248.693 668.347 248.516C668.524 248.339 668.739 248.25 668.991 248.25C669.243 248.25 669.457 248.339 669.635 248.516C669.812 248.693 669.901 248.913 669.901 249.174C669.901 249.426 669.812 249.641 669.635 249.818C669.457 249.995 669.243 250.084 668.991 250.084ZM663.601 250.084C663.349 250.084 663.134 249.995 662.957 249.818C662.779 249.641 662.691 249.426 662.691 249.174C662.691 248.913 662.779 248.693 662.957 248.516C663.134 248.339 663.349 248.25 663.601 248.25C663.853 248.25 664.067 248.339 664.245 248.516C664.422 248.693 664.511 248.913 664.511 249.174C664.511 249.426 664.422 249.641 664.245 249.818C664.067 249.995 663.853 250.084 663.601 250.084Z" fill="#2F2F2F"/>
<g clip-path="url(#clip0_1044_41348)">
<path d="M201 99.4648C201 96.1511 203.686 93.4648 207 93.4648H227C230.314 93.4648 233 96.1511 233 99.4648V212.465H201V99.4648Z" fill="#886DE0"/>
<path d="M354 67.4648C354 64.1511 356.686 61.4648 360 61.4648H380C383.314 61.4648 386 64.1511 386 67.4648V212.465H354V67.4648Z" fill="#FF9696"/>
<path d="M507 131.465C507 128.151 509.686 125.465 513 125.465H533C536.314 125.465 539 128.151 539 131.465V212.465H507V131.465Z" fill="#238DB8"/>
</g>
<defs>
<clipPath id="clip0_1044_41348">
<rect width="378" height="167.028" fill="white" transform="translate(181 45.4648)"/>
</clipPath>
</defs>
</svg>
