<svg width="480" height="480" viewBox="0 0 480 480" fill="none" xmlns="http://www.w3.org/2000/svg">
<g clip-path="url(#clip0_1188_51612)">
<mask id="mask0_1188_51612" style="mask-type:luminance" maskUnits="userSpaceOnUse" x="0" y="0" width="480" height="480">
<path d="M480 0H0V480H480V0Z" fill="white"/>
</mask>
<g mask="url(#mask0_1188_51612)">
<g filter="url(#filter0_dii_1188_51612)">
<path d="M391.664 93.4399H103.788C95.6034 93.4399 88.9688 100.075 88.9688 108.259V313.664C88.9688 321.848 95.6034 328.483 103.788 328.483H391.664C399.848 328.483 406.483 321.848 406.483 313.664V108.259C406.483 100.075 399.848 93.4399 391.664 93.4399Z" fill="white"/>
</g>
<path d="M381.993 105.811H113.461C106.008 105.811 99.9658 111.852 99.9658 119.305V302.617C99.9658 310.07 106.008 316.112 113.461 316.112H381.993C389.446 316.112 395.487 310.07 395.487 302.617V119.305C395.487 111.852 389.446 105.811 381.993 105.811Z" fill="url(#paint0_linear_1188_51612)"/>
<path fill-rule="evenodd" clip-rule="evenodd" d="M237.584 204.159C199.96 204.159 169.387 234.347 168.764 271.823C168.754 272.464 168.235 272.989 167.593 272.989H140.294C139.652 272.989 139.131 272.464 139.139 271.822C139.764 217.986 183.6 174.536 237.584 174.536C291.569 174.536 335.404 217.986 336.031 271.822C336.038 272.464 335.516 272.989 334.876 272.989H307.576C306.934 272.989 306.415 272.464 306.405 271.823C305.782 234.347 275.208 204.159 237.584 204.159Z" fill="#3221FA"/>
<path fill-rule="evenodd" clip-rule="evenodd" d="M306.415 272.989C306.415 245.891 290.758 222.423 267.929 211.188L281.009 184.609C313.576 200.636 336.038 234.176 336.038 272.989H306.415Z" fill="#E8E5FC"/>
<path d="M160.101 118.181H143.606C141.898 118.181 140.514 119.566 140.514 121.274C140.514 122.982 141.898 124.366 143.606 124.366H160.101C161.809 124.366 163.193 122.982 163.193 121.274C163.193 119.566 161.809 118.181 160.101 118.181Z" fill="#AEACF6"/>
<path d="M304.425 118.181H296.179C294.471 118.181 293.086 119.566 293.086 121.274C293.086 122.982 294.471 124.366 296.179 124.366H304.425C306.134 124.366 307.518 122.982 307.518 121.274C307.518 119.566 306.134 118.181 304.425 118.181Z" fill="#AEACF6"/>
<path d="M253.916 282.045L220.63 281.775C218.922 281.761 217.526 283.134 217.512 284.842C217.498 286.55 218.871 287.946 220.579 287.96L253.866 288.23C255.574 288.244 256.97 286.871 256.984 285.163C256.998 283.455 255.624 282.059 253.916 282.045Z" fill="#AEACF6"/>
<path d="M226.61 292.751C226.61 291.995 227.223 291.382 227.979 291.382H246.517C247.273 291.382 247.886 291.995 247.886 292.751C247.886 293.507 247.273 294.12 246.517 294.12H237.248H227.979C227.223 294.12 226.61 293.507 226.61 292.751Z" fill="#D9D9FE"/>
<path d="M175.908 129.865H142.232C141.283 129.865 140.514 130.634 140.514 131.583C140.514 132.532 141.283 133.301 142.232 133.301H175.908C176.856 133.301 177.626 132.532 177.626 131.583C177.626 130.634 176.856 129.865 175.908 129.865Z" fill="#DDDCFE"/>
<path d="M316.109 129.865H294.804C293.855 129.865 293.086 130.634 293.086 131.583C293.086 132.532 293.855 133.301 294.804 133.301H316.109C317.058 133.301 317.827 132.532 317.827 131.583C317.827 130.634 317.058 129.865 316.109 129.865Z" fill="#DDDCFE"/>
<g filter="url(#filter1_dii_1188_51612)">
<path d="M415.019 232.266H342.965C335.154 232.266 328.822 238.598 328.822 246.409V339.413C328.822 347.224 335.154 353.556 342.965 353.556H415.019C422.83 353.556 429.162 347.224 429.162 339.413V246.409C429.162 238.598 422.83 232.266 415.019 232.266Z" fill="white"/>
</g>
<path fill-rule="evenodd" clip-rule="evenodd" d="M347.379 273.078C349.51 273.078 351.238 274.806 351.238 276.938V328.483C351.238 330.615 349.51 332.342 347.379 332.342C345.247 332.342 343.52 330.615 343.52 328.483V276.938C343.52 274.806 345.247 273.078 347.379 273.078Z" fill="#E194CE"/>
<path fill-rule="evenodd" clip-rule="evenodd" d="M411.293 273.078C413.424 273.078 415.152 274.806 415.152 276.938V328.483C415.152 330.615 413.424 332.342 411.293 332.342C409.161 332.342 407.434 330.615 407.434 328.483V276.938C407.434 274.806 409.161 273.078 411.293 273.078Z" fill="#ACB7FE"/>
<path fill-rule="evenodd" clip-rule="evenodd" d="M368.684 301.943C370.816 301.943 372.544 303.671 372.544 305.803V328.483C372.544 330.615 370.816 332.342 368.684 332.342C366.553 332.342 364.825 330.615 364.825 328.483V305.803C364.825 303.671 366.553 301.943 368.684 301.943Z" fill="#ACB7FE"/>
<path fill-rule="evenodd" clip-rule="evenodd" d="M389.99 310.19C392.121 310.19 393.849 311.918 393.849 314.049V328.483C393.849 330.614 392.121 332.342 389.99 332.342C387.859 332.342 386.131 330.614 386.131 328.483V314.049C386.131 311.918 387.859 310.19 389.99 310.19Z" fill="#E194CE"/>
<path fill-rule="evenodd" clip-rule="evenodd" d="M356.39 251.011C356.39 249.793 357.377 248.806 358.595 248.806H399.392C400.61 248.806 401.597 249.793 401.597 251.011C401.597 252.229 400.61 253.216 399.392 253.216H358.595C357.377 253.216 356.39 252.229 356.39 251.011Z" fill="#E8E5FC"/>
<g filter="url(#filter2_dii_1188_51612)">
<path d="M104.519 127.803H35.0941C28.7901 127.803 23.6797 132.913 23.6797 139.217V220.852C23.6797 227.156 28.7901 232.266 35.0941 232.266H104.519C110.823 232.266 115.933 227.156 115.933 220.852V139.217C115.933 132.913 110.823 127.803 104.519 127.803Z" fill="white"/>
</g>
<path d="M59.2916 186.401C58.659 186.401 58.0967 186.311 57.6046 186.13C57.1223 185.949 56.7105 185.663 56.369 185.271C56.0276 184.879 55.7716 184.362 55.6007 183.719C55.4302 183.067 55.3447 182.273 55.3447 181.339C55.3447 180.285 55.4302 179.396 55.6007 178.673C55.7716 177.95 56.0177 177.372 56.339 176.94C56.6705 176.499 57.0772 176.182 57.5591 175.991C58.0414 175.8 58.5988 175.705 59.2314 175.705C59.9946 175.705 60.6276 175.846 61.1297 176.127C61.6417 176.408 62.0183 176.795 62.2596 177.287C62.5105 177.769 62.6362 178.331 62.6362 178.974H60.6023C60.6023 178.622 60.5521 178.326 60.4516 178.085C60.3511 177.834 60.1956 177.643 59.9847 177.513C59.7738 177.382 59.5076 177.317 59.1863 177.317C58.7143 177.317 58.3527 177.443 58.1015 177.693C57.8606 177.935 57.6948 178.291 57.6046 178.763C57.5242 179.235 57.4788 179.808 57.4689 180.481C57.5694 180.38 57.7201 180.26 57.9207 180.119C58.1316 179.978 58.3927 179.858 58.7041 179.757C59.0154 179.647 59.3521 179.592 59.7137 179.592C60.4266 179.592 61.0241 179.737 61.5063 180.028C61.9985 180.31 62.3649 180.701 62.6058 181.204C62.8471 181.706 62.9674 182.288 62.9674 182.951C62.9674 183.664 62.8068 184.282 62.4855 184.804C62.1742 185.316 61.7422 185.713 61.1898 185.994C60.6474 186.265 60.0148 186.401 59.2916 186.401ZM59.2164 184.774C59.5879 184.774 59.8942 184.699 60.1354 184.548C60.3764 184.387 60.5572 184.172 60.6775 183.9C60.7982 183.619 60.8583 183.308 60.8583 182.966C60.8583 182.605 60.7982 182.288 60.6775 182.017C60.5572 181.746 60.3764 181.535 60.1354 181.384C59.8942 181.224 59.5879 181.143 59.2164 181.143C58.8548 181.143 58.5486 181.224 58.2974 181.384C58.0564 181.535 57.8756 181.746 57.755 182.017C57.6346 182.288 57.5745 182.605 57.5745 182.966C57.5745 183.318 57.6346 183.634 57.755 183.915C57.8756 184.187 58.0564 184.397 58.2974 184.548C58.5486 184.699 58.8548 184.774 59.2164 184.774Z" fill="#5F5691"/>
<path d="M68.3715 186.401C67.7488 186.401 67.2016 186.311 66.7296 186.13C66.2573 185.939 65.8608 185.638 65.5392 185.226C65.2282 184.804 64.992 184.252 64.8314 183.569C64.6807 182.886 64.6055 182.047 64.6055 181.053C64.6055 180.049 64.6807 179.21 64.8314 178.537C64.992 177.854 65.2282 177.302 65.5392 176.88C65.8608 176.458 66.2573 176.157 66.7296 175.976C67.2016 175.796 67.7488 175.705 68.3715 175.705C69.0042 175.705 69.5517 175.796 70.0135 175.976C70.4756 176.157 70.8621 176.458 71.1735 176.88C71.4951 177.302 71.7309 177.854 71.8816 178.537C72.0423 179.21 72.1226 180.049 72.1226 181.053C72.1226 182.047 72.0423 182.886 71.8816 183.569C71.7309 184.252 71.4951 184.804 71.1735 185.226C70.8621 185.638 70.4756 185.939 70.0135 186.13C69.5517 186.311 69.0042 186.401 68.3715 186.401ZM68.3715 184.774C68.8135 184.774 69.1498 184.659 69.3808 184.428C69.6119 184.187 69.7725 183.825 69.8631 183.343C69.9533 182.861 69.9984 182.258 69.9984 181.535V180.601C69.9984 179.868 69.9533 179.26 69.8631 178.778C69.7725 178.286 69.6119 177.919 69.3808 177.678C69.1498 177.437 68.8135 177.317 68.3715 177.317C67.9296 177.317 67.5882 177.437 67.3472 177.678C67.1162 177.919 66.9556 178.281 66.865 178.763C66.7748 179.235 66.7296 179.838 66.7296 180.571V181.505C66.7296 182.238 66.7748 182.851 66.865 183.343C66.9556 183.825 67.1162 184.187 67.3472 184.428C67.5882 184.659 67.9296 184.774 68.3715 184.774Z" fill="#5F5691"/>
<path d="M76.1108 186.22L83.402 175.886H84.8935L77.587 186.22H76.1108ZM76.8791 181.128C76.3466 181.128 75.8897 181.038 75.5082 180.857C75.1364 180.676 74.8503 180.39 74.6494 179.998C74.4586 179.607 74.3633 179.079 74.3633 178.417C74.3633 177.754 74.4586 177.227 74.6494 176.835C74.8503 176.433 75.1364 176.147 75.5082 175.976C75.8897 175.796 76.3466 175.705 76.8791 175.705C77.4215 175.705 77.8785 175.796 78.25 175.976C78.6215 176.147 78.9028 176.433 79.0935 176.835C79.2945 177.227 79.395 177.754 79.395 178.417C79.395 179.079 79.2945 179.612 79.0935 180.013C78.9028 180.405 78.6215 180.692 78.25 180.872C77.8785 181.043 77.4215 181.128 76.8791 181.128ZM76.8791 179.998C77.2807 179.998 77.547 179.868 77.6775 179.607C77.8081 179.336 77.8734 178.979 77.8734 178.537V178.281C77.8734 177.99 77.8433 177.739 77.7828 177.528C77.7326 177.307 77.6324 177.136 77.4817 177.016C77.3409 176.885 77.1402 176.82 76.8791 176.82C76.4974 176.82 76.2362 176.956 76.0958 177.227C75.9652 177.498 75.8999 177.849 75.8999 178.281V178.537C75.8999 178.979 75.9652 179.336 76.0958 179.607C76.2362 179.868 76.4974 179.998 76.8791 179.998ZM84.0951 186.401C83.5626 186.401 83.1057 186.311 82.7242 186.13C82.3524 185.949 82.0663 185.663 81.8654 185.271C81.6746 184.879 81.5793 184.352 81.5793 183.689C81.5793 183.027 81.6746 182.499 81.8654 182.108C82.0663 181.706 82.3524 181.42 82.7242 181.249C83.1057 181.068 83.5626 180.978 84.0951 180.978C84.6375 180.978 85.0945 181.068 85.466 181.249C85.8474 181.42 86.1338 181.706 86.3246 182.108C86.5156 182.499 86.611 183.027 86.611 183.689C86.611 184.352 86.5156 184.884 86.3246 185.286C86.1338 185.678 85.8474 185.964 85.466 186.145C85.0945 186.316 84.6375 186.401 84.0951 186.401ZM84.0951 185.286C84.4868 185.286 84.7479 185.151 84.8785 184.879C85.009 184.608 85.0743 184.252 85.0743 183.81V183.554C85.0743 183.262 85.0442 183.012 84.9838 182.801C84.9335 182.58 84.8382 182.409 84.6977 182.288C84.5671 182.158 84.3662 182.092 84.0951 182.092C83.7134 182.092 83.4522 182.228 83.3118 182.499C83.1812 182.77 83.1159 183.122 83.1159 183.554V183.81C83.1159 184.252 83.1812 184.608 83.3118 184.879C83.4522 185.151 83.7134 185.286 84.0951 185.286Z" fill="#5F5691"/>
<path fill-rule="evenodd" clip-rule="evenodd" d="M50.513 160.989C39.9129 171.589 39.9129 188.775 50.513 199.375C61.1131 209.975 78.2992 209.975 88.8993 199.375C99.4994 188.775 99.4994 171.589 88.8993 160.988C78.2992 150.388 61.1131 150.388 50.513 160.989ZM47.4029 202.485C35.0851 190.167 35.0851 170.196 47.4029 157.878C59.7206 145.561 79.6917 145.561 92.0094 157.878C104.327 170.196 104.327 190.167 92.0094 202.485C79.6917 214.803 59.7207 214.803 47.4029 202.485Z" fill="#BB96FD"/>
<path fill-rule="evenodd" clip-rule="evenodd" d="M66.9394 150.707C67.0619 148.351 69.0709 146.541 71.4268 146.663C79.4866 147.082 87.4459 150.384 93.6135 156.551C106.792 169.73 106.883 191.07 93.7386 204.214L93.7386 204.214C80.5943 217.358 59.2553 217.268 46.0763 204.089L46.0762 204.089C38.7947 196.807 35.5119 187.036 36.2423 177.545C36.4233 175.193 38.4767 173.433 40.8288 173.614C43.1808 173.795 44.9408 175.848 44.7598 178.2C44.2134 185.3 46.6657 192.597 52.1169 198.048C61.9939 207.925 77.9239 207.947 87.698 198.173C87.698 198.173 87.6981 198.173 87.6981 198.173M87.6981 198.173C97.4717 188.399 97.45 172.469 87.5729 162.592L87.5728 162.592C82.952 157.971 77.0099 155.508 70.9833 155.195C68.6275 155.072 66.817 153.063 66.9394 150.707" fill="#9F71E3"/>
<g opacity="0.9" filter="url(#filter3_f_1188_51612)">
<path d="M77.9736 133.301H192.059V259.757H77.9736V133.301Z" fill="#5B79FC" fill-opacity="0.28"/>
</g>
<g opacity="0.9" filter="url(#filter4_f_1188_51612)">
<path d="M306.143 294.12H406.483V386.742H306.143V294.12Z" fill="#5B79FC" fill-opacity="0.28"/>
</g>
</g>
</g>
<defs>
<filter id="filter0_dii_1188_51612" x="-56.8813" y="11.7409" width="609.214" height="526.743" filterUnits="userSpaceOnUse" color-interpolation-filters="sRGB">
<feFlood flood-opacity="0" result="BackgroundImageFix"/>
<feColorMatrix in="SourceAlpha" type="matrix" values="0 0 0 0 0 0 0 0 0 0 0 0 0 0 0 0 0 0 127 0" result="hardAlpha"/>
<feOffset dy="64.151"/>
<feGaussianBlur stdDeviation="72.925"/>
<feComposite in2="hardAlpha" operator="out"/>
<feColorMatrix type="matrix" values="0 0 0 0 0.0619602 0 0 0 0 0.0055375 0 0 0 0 0.196963 0 0 0 0.05 0"/>
<feBlend mode="normal" in2="BackgroundImageFix" result="effect1_dropShadow_1188_51612"/>
<feBlend mode="normal" in="SourceGraphic" in2="effect1_dropShadow_1188_51612" result="shape"/>
<feColorMatrix in="SourceAlpha" type="matrix" values="0 0 0 0 0 0 0 0 0 0 0 0 0 0 0 0 0 0 127 0" result="hardAlpha"/>
<feOffset dx="15.012" dy="3.016"/>
<feGaussianBlur stdDeviation="15.012"/>
<feComposite in2="hardAlpha" operator="arithmetic" k2="-1" k3="1"/>
<feColorMatrix type="matrix" values="0 0 0 0 1 0 0 0 0 1 0 0 0 0 1 0 0 0 1 0"/>
<feBlend mode="normal" in2="shape" result="effect2_innerShadow_1188_51612"/>
<feColorMatrix in="SourceAlpha" type="matrix" values="0 0 0 0 0 0 0 0 0 0 0 0 0 0 0 0 0 0 127 0" result="hardAlpha"/>
<feOffset dx="2.142" dy="-7.278"/>
<feGaussianBlur stdDeviation="8.555"/>
<feComposite in2="hardAlpha" operator="arithmetic" k2="-1" k3="1"/>
<feColorMatrix type="matrix" values="0 0 0 0 0.118681 0 0 0 0 0.0447917 0 0 0 0 0.163542 0 0 0 0.08 0"/>
<feBlend mode="normal" in2="effect2_innerShadow_1188_51612" result="effect3_innerShadow_1188_51612"/>
</filter>
<filter id="filter1_dii_1188_51612" x="180.554" y="150.463" width="396.876" height="417.826" filterUnits="userSpaceOnUse" color-interpolation-filters="sRGB">
<feFlood flood-opacity="0" result="BackgroundImageFix"/>
<feColorMatrix in="SourceAlpha" type="matrix" values="0 0 0 0 0 0 0 0 0 0 0 0 0 0 0 0 0 0 127 0" result="hardAlpha"/>
<feOffset dy="66.465"/>
<feGaussianBlur stdDeviation="74.134"/>
<feComposite in2="hardAlpha" operator="out"/>
<feColorMatrix type="matrix" values="0 0 0 0 0.0566155 0 0 0 0 0.0182157 0 0 0 0 0.150412 0 0 0 0.09 0"/>
<feBlend mode="normal" in2="BackgroundImageFix" result="effect1_dropShadow_1188_51612"/>
<feBlend mode="normal" in="SourceGraphic" in2="effect1_dropShadow_1188_51612" result="shape"/>
<feColorMatrix in="SourceAlpha" type="matrix" values="0 0 0 0 0 0 0 0 0 0 0 0 0 0 0 0 0 0 127 0" result="hardAlpha"/>
<feOffset dx="18.544" dy="3.726"/>
<feGaussianBlur stdDeviation="18.544"/>
<feComposite in2="hardAlpha" operator="arithmetic" k2="-1" k3="1"/>
<feColorMatrix type="matrix" values="0 0 0 0 1 0 0 0 0 1 0 0 0 0 1 0 0 0 1 0"/>
<feBlend mode="normal" in2="shape" result="effect2_innerShadow_1188_51612"/>
<feColorMatrix in="SourceAlpha" type="matrix" values="0 0 0 0 0 0 0 0 0 0 0 0 0 0 0 0 0 0 127 0" result="hardAlpha"/>
<feOffset dx="-0.756" dy="-2.712"/>
<feGaussianBlur stdDeviation="2.751"/>
<feComposite in2="hardAlpha" operator="arithmetic" k2="-1" k3="1"/>
<feColorMatrix type="matrix" values="0 0 0 0 0.345319 0 0 0 0 0.318824 0 0 0 0 0.543922 0 0 0 0.2 0"/>
<feBlend mode="normal" in2="effect2_innerShadow_1188_51612" result="effect3_innerShadow_1188_51612"/>
</filter>
<filter id="filter2_dii_1188_51612" x="-95.9823" y="61.7831" width="331.578" height="343.787" filterUnits="userSpaceOnUse" color-interpolation-filters="sRGB">
<feFlood flood-opacity="0" result="BackgroundImageFix"/>
<feColorMatrix in="SourceAlpha" type="matrix" values="0 0 0 0 0 0 0 0 0 0 0 0 0 0 0 0 0 0 127 0" result="hardAlpha"/>
<feOffset dy="53.642"/>
<feGaussianBlur stdDeviation="59.831"/>
<feComposite in2="hardAlpha" operator="out"/>
<feColorMatrix type="matrix" values="0 0 0 0 0.0566155 0 0 0 0 0.0182157 0 0 0 0 0.150412 0 0 0 0.09 0"/>
<feBlend mode="normal" in2="BackgroundImageFix" result="effect1_dropShadow_1188_51612"/>
<feBlend mode="normal" in="SourceGraphic" in2="effect1_dropShadow_1188_51612" result="shape"/>
<feColorMatrix in="SourceAlpha" type="matrix" values="0 0 0 0 0 0 0 0 0 0 0 0 0 0 0 0 0 0 127 0" result="hardAlpha"/>
<feOffset dx="14.966" dy="3.007"/>
<feGaussianBlur stdDeviation="14.966"/>
<feComposite in2="hardAlpha" operator="arithmetic" k2="-1" k3="1"/>
<feColorMatrix type="matrix" values="0 0 0 0 1 0 0 0 0 1 0 0 0 0 1 0 0 0 1 0"/>
<feBlend mode="normal" in2="shape" result="effect2_innerShadow_1188_51612"/>
<feColorMatrix in="SourceAlpha" type="matrix" values="0 0 0 0 0 0 0 0 0 0 0 0 0 0 0 0 0 0 127 0" result="hardAlpha"/>
<feOffset dx="-0.61" dy="-2.189"/>
<feGaussianBlur stdDeviation="2.22"/>
<feComposite in2="hardAlpha" operator="arithmetic" k2="-1" k3="1"/>
<feColorMatrix type="matrix" values="0 0 0 0 0.345319 0 0 0 0 0.318824 0 0 0 0 0.543922 0 0 0 0.2 0"/>
<feBlend mode="normal" in2="effect2_innerShadow_1188_51612" result="effect3_innerShadow_1188_51612"/>
</filter>
<filter id="filter3_f_1188_51612" x="-325.726" y="-270.399" width="921.485" height="933.856" filterUnits="userSpaceOnUse" color-interpolation-filters="sRGB">
<feFlood flood-opacity="0" result="BackgroundImageFix"/>
<feBlend mode="normal" in="SourceGraphic" in2="BackgroundImageFix" result="shape"/>
<feGaussianBlur stdDeviation="201.85" result="effect1_foregroundBlur_1188_51612"/>
</filter>
<filter id="filter4_f_1188_51612" x="-17.7044" y="-29.7271" width="748.034" height="740.316" filterUnits="userSpaceOnUse" color-interpolation-filters="sRGB">
<feFlood flood-opacity="0" result="BackgroundImageFix"/>
<feBlend mode="normal" in="SourceGraphic" in2="BackgroundImageFix" result="shape"/>
<feGaussianBlur stdDeviation="161.923" result="effect1_foregroundBlur_1188_51612"/>
</filter>
<linearGradient id="paint0_linear_1188_51612" x1="141.888" y1="297.899" x2="402.016" y2="215.563" gradientUnits="userSpaceOnUse">
<stop offset="0.236" stop-color="#F9F6FF" stop-opacity="0.7"/>
<stop offset="1" stop-color="#F9F6FF" stop-opacity="0.8"/>
</linearGradient>
<clipPath id="clip0_1188_51612">
<rect width="480" height="480" fill="white"/>
</clipPath>
</defs>
</svg>
