<svg width="418" height="272" viewBox="0 0 418 272" fill="none" xmlns="http://www.w3.org/2000/svg">
<g clip-path="url(#clip0_1431_48912)">
<mask id="mask0_1431_48912" style="mask-type:luminance" maskUnits="userSpaceOnUse" x="-19" y="-88" width="480" height="480">
<path d="M461 -88H-19V392H461V-88Z" fill="white"/>
</mask>
<g mask="url(#mask0_1431_48912)">
<g filter="url(#filter0_ii_1431_48912)">
<path d="M372.664 5.43994H84.7876C76.6034 5.43994 69.9688 12.0746 69.9688 20.2588V225.664C69.9688 233.848 76.6034 240.483 84.7876 240.483H372.664C380.848 240.483 387.483 233.848 387.483 225.664V20.2588C387.483 12.0746 380.848 5.43994 372.664 5.43994Z" fill="white"/>
</g>
<path d="M362.993 17.8105H94.4605C87.0076 17.8105 80.9658 23.8523 80.9658 31.3053V214.617C80.9658 222.07 87.0076 228.112 94.4605 228.112H362.993C370.446 228.112 376.487 222.07 376.487 214.617V31.3053C376.487 23.8523 370.446 17.8105 362.993 17.8105Z" fill="url(#paint0_linear_1431_48912)"/>
<path fill-rule="evenodd" clip-rule="evenodd" d="M218.584 116.159C180.96 116.159 150.387 146.347 149.764 183.823C149.754 184.464 149.235 184.989 148.593 184.989H121.294C120.652 184.989 120.131 184.464 120.139 183.822C120.764 129.986 164.6 86.5363 218.584 86.5363C272.569 86.5363 316.404 129.986 317.031 183.822C317.038 184.464 316.516 184.989 315.876 184.989H288.576C287.934 184.989 287.415 184.464 287.405 183.823C286.782 146.347 256.208 116.159 218.584 116.159Z" fill="#3221FA"/>
<path fill-rule="evenodd" clip-rule="evenodd" d="M287.415 184.989C287.415 157.891 271.758 134.423 248.929 123.188L262.009 96.6093C294.576 112.636 317.038 146.176 317.038 184.989H287.415Z" fill="#E8E5FC"/>
<path d="M141.101 30.181H124.606C122.898 30.181 121.514 31.5656 121.514 33.2737C121.514 34.9817 122.898 36.3663 124.606 36.3663H141.101C142.809 36.3663 144.193 34.9817 144.193 33.2737C144.193 31.5656 142.809 30.181 141.101 30.181Z" fill="#AEACF6"/>
<path d="M285.425 30.181H277.179C275.471 30.181 274.086 31.5656 274.086 33.2737C274.086 34.9817 275.471 36.3663 277.179 36.3663H285.425C287.134 36.3663 288.518 34.9817 288.518 33.2737C288.518 31.5656 287.134 30.181 285.425 30.181Z" fill="#AEACF6"/>
<path d="M234.916 194.045L201.63 193.775C199.922 193.761 198.526 195.134 198.512 196.842C198.498 198.55 199.871 199.946 201.579 199.96L234.866 200.23C236.574 200.244 237.97 198.871 237.984 197.163C237.998 195.455 236.624 194.059 234.916 194.045Z" fill="#AEACF6"/>
<path d="M207.61 204.751C207.61 203.995 208.223 203.382 208.979 203.382H227.517C228.273 203.382 228.886 203.995 228.886 204.751C228.886 205.507 228.273 206.12 227.517 206.12H218.248H208.979C208.223 206.12 207.61 205.507 207.61 204.751Z" fill="#D9D9FE"/>
<path d="M156.908 41.8649H123.232C122.283 41.8649 121.514 42.6341 121.514 43.5829C121.514 44.5318 122.283 45.301 123.232 45.301H156.908C157.856 45.301 158.626 44.5318 158.626 43.5829C158.626 42.6341 157.856 41.8649 156.908 41.8649Z" fill="#DDDCFE"/>
<path d="M297.109 41.8649H275.804C274.855 41.8649 274.086 42.6341 274.086 43.5829C274.086 44.5318 274.855 45.301 275.804 45.301H297.109C298.058 45.301 298.827 44.5318 298.827 43.5829C298.827 42.6341 298.058 41.8649 297.109 41.8649Z" fill="#DDDCFE"/>
<g filter="url(#filter1_ii_1431_48912)">
<path d="M396.019 144.266H323.965C316.154 144.266 309.822 150.598 309.822 158.409V251.413C309.822 259.224 316.154 265.556 323.965 265.556H396.019C403.83 265.556 410.162 259.224 410.162 251.413V158.409C410.162 150.598 403.83 144.266 396.019 144.266Z" fill="white"/>
</g>
<path fill-rule="evenodd" clip-rule="evenodd" d="M328.379 185.078C330.51 185.078 332.238 186.806 332.238 188.938V240.483C332.238 242.615 330.51 244.342 328.379 244.342C326.247 244.342 324.52 242.615 324.52 240.483V188.938C324.52 186.806 326.247 185.078 328.379 185.078Z" fill="#E194CE"/>
<path fill-rule="evenodd" clip-rule="evenodd" d="M392.293 185.078C394.424 185.078 396.152 186.806 396.152 188.938V240.483C396.152 242.615 394.424 244.342 392.293 244.342C390.161 244.342 388.434 242.615 388.434 240.483V188.938C388.434 186.806 390.161 185.078 392.293 185.078Z" fill="#ACB7FE"/>
<path fill-rule="evenodd" clip-rule="evenodd" d="M349.684 213.943C351.816 213.943 353.544 215.671 353.544 217.803V240.483C353.544 242.615 351.816 244.342 349.684 244.342C347.553 244.342 345.825 242.615 345.825 240.483V217.803C345.825 215.671 347.553 213.943 349.684 213.943Z" fill="#ACB7FE"/>
<path fill-rule="evenodd" clip-rule="evenodd" d="M370.99 222.19C373.121 222.19 374.849 223.918 374.849 226.049V240.483C374.849 242.614 373.121 244.342 370.99 244.342C368.859 244.342 367.131 242.614 367.131 240.483V226.049C367.131 223.918 368.859 222.19 370.99 222.19Z" fill="#E194CE"/>
<path fill-rule="evenodd" clip-rule="evenodd" d="M337.39 163.011C337.39 161.793 338.377 160.806 339.595 160.806H380.392C381.61 160.806 382.597 161.793 382.597 163.011C382.597 164.229 381.61 165.216 380.392 165.216H339.595C338.377 165.216 337.39 164.229 337.39 163.011Z" fill="#E8E5FC"/>
<g filter="url(#filter2_ii_1431_48912)">
<path d="M85.5187 39.8031H16.0941C9.79009 39.8031 4.67969 44.9135 4.67969 51.2175V132.852C4.67969 139.156 9.79009 144.266 16.0941 144.266H85.5187C91.8227 144.266 96.9331 139.156 96.9331 132.852V51.2175C96.9331 44.9135 91.8227 39.8031 85.5187 39.8031Z" fill="white"/>
</g>
<path d="M40.2916 98.401C39.659 98.401 39.0967 98.3107 38.6046 98.1299C38.1223 97.9491 37.7105 97.6627 37.369 97.271C37.0276 96.8794 36.7716 96.3622 36.6007 95.7194C36.4302 95.0666 36.3447 94.2733 36.3447 93.3392C36.3447 92.2848 36.4302 91.3958 36.6007 90.6726C36.7716 89.9498 37.0177 89.3722 37.339 88.9402C37.6705 88.4986 38.0772 88.1821 38.5591 87.9914C39.0414 87.8003 39.5988 87.705 40.2314 87.705C40.9946 87.705 41.6276 87.8458 42.1297 88.1267C42.6417 88.408 43.0183 88.7946 43.2596 89.2867C43.5105 89.769 43.6362 90.3312 43.6362 90.9741H41.6023C41.6023 90.6224 41.5521 90.3264 41.4516 90.0851C41.3511 89.8342 41.1956 89.6432 40.9847 89.5126C40.7738 89.3821 40.5076 89.3168 40.1863 89.3168C39.7143 89.3168 39.3527 89.4426 39.1015 89.6934C38.8606 89.9347 38.6948 90.2912 38.6046 90.7632C38.5242 91.2352 38.4788 91.8077 38.4689 92.4806C38.5694 92.3802 38.7201 92.2595 38.9207 92.119C39.1316 91.9782 39.3927 91.8579 39.7041 91.7574C40.0154 91.647 40.3521 91.5917 40.7137 91.5917C41.4266 91.5917 42.0241 91.7373 42.5063 92.0285C42.9985 92.3098 43.3649 92.7014 43.6058 93.2035C43.8471 93.7059 43.9674 94.2883 43.9674 94.951C43.9674 95.6643 43.8068 96.2819 43.4855 96.8042C43.1742 97.3162 42.7422 97.713 42.1898 97.9942C41.6474 98.2653 41.0148 98.401 40.2916 98.401ZM40.2164 96.7741C40.5879 96.7741 40.8942 96.6985 41.1354 96.5478C41.3764 96.3872 41.5572 96.1715 41.6775 95.9002C41.7982 95.6189 41.8583 95.3075 41.8583 94.9661C41.8583 94.6048 41.7982 94.2883 41.6775 94.0169C41.5572 93.7459 41.3764 93.535 41.1354 93.3843C40.8942 93.2237 40.5879 93.1434 40.2164 93.1434C39.8548 93.1434 39.5486 93.2237 39.2974 93.3843C39.0564 93.535 38.8756 93.7459 38.755 94.0169C38.6346 94.2883 38.5745 94.6048 38.5745 94.9661C38.5745 95.3177 38.6346 95.6339 38.755 95.9152C38.8756 96.1866 39.0564 96.3974 39.2974 96.5478C39.5486 96.6985 39.8548 96.7741 40.2164 96.7741Z" fill="#5F5691"/>
<path d="M49.3715 98.401C48.7488 98.401 48.2016 98.3107 47.7296 98.1299C47.2573 97.9389 46.8608 97.6378 46.5392 97.2259C46.2282 96.8042 45.992 96.2518 45.8314 95.5686C45.6807 94.8857 45.6055 94.0474 45.6055 93.0531C45.6055 92.0486 45.6807 91.2099 45.8314 90.5373C45.992 89.8541 46.2282 89.3018 46.5392 88.88C46.8608 88.4582 47.2573 88.1568 47.7296 87.9763C48.2016 87.7955 48.7488 87.705 49.3715 87.705C50.0042 87.705 50.5517 87.7955 51.0135 87.9763C51.4756 88.1568 51.8621 88.4582 52.1735 88.88C52.4951 89.3018 52.7309 89.8541 52.8816 90.5373C53.0423 91.2099 53.1226 92.0486 53.1226 93.0531C53.1226 94.0474 53.0423 94.8857 52.8816 95.5686C52.7309 96.2518 52.4951 96.8042 52.1735 97.2259C51.8621 97.6378 51.4756 97.9389 51.0135 98.1299C50.5517 98.3107 50.0042 98.401 49.3715 98.401ZM49.3715 96.7741C49.8135 96.7741 50.1498 96.6586 50.3808 96.4275C50.6119 96.1866 50.7725 95.8249 50.8631 95.3427C50.9533 94.8608 50.9984 94.2582 50.9984 93.535V92.601C50.9984 91.8678 50.9533 91.2602 50.8631 90.7782C50.7725 90.2861 50.6119 89.9194 50.3808 89.6784C50.1498 89.4374 49.8135 89.3168 49.3715 89.3168C48.9296 89.3168 48.5882 89.4374 48.3472 89.6784C48.1162 89.9194 47.9556 90.281 47.865 90.7632C47.7748 91.2352 47.7296 91.8378 47.7296 92.5709V93.505C47.7296 94.2381 47.7748 94.8505 47.865 95.3427C47.9556 95.8249 48.1162 96.1866 48.3472 96.4275C48.5882 96.6586 48.9296 96.7741 49.3715 96.7741Z" fill="#5F5691"/>
<path d="M57.1108 98.2202L64.402 87.8858H65.8935L58.587 98.2202H57.1108ZM57.8791 93.1283C57.3466 93.1283 56.8897 93.0378 56.5082 92.8573C56.1364 92.6765 55.8503 92.3901 55.6494 91.9984C55.4586 91.6067 55.3633 91.0794 55.3633 90.4166C55.3633 89.7539 55.4586 89.2266 55.6494 88.8349C55.8503 88.4333 56.1364 88.1469 56.5082 87.9763C56.8897 87.7955 57.3466 87.705 57.8791 87.705C58.4215 87.705 58.8785 87.7955 59.25 87.9763C59.6215 88.1469 59.9028 88.4333 60.0935 88.8349C60.2945 89.2266 60.395 89.7539 60.395 90.4166C60.395 91.0794 60.2945 91.6118 60.0935 92.0134C59.9028 92.4051 59.6215 92.6915 59.25 92.8723C58.8785 93.0429 58.4215 93.1283 57.8791 93.1283ZM57.8791 91.9984C58.2807 91.9984 58.547 91.8678 58.6775 91.6067C58.8081 91.3357 58.8734 90.9792 58.8734 90.5373V90.281C58.8734 89.9898 58.8433 89.7389 58.7828 89.5277C58.7326 89.3069 58.6324 89.136 58.4817 89.0157C58.3409 88.8851 58.1402 88.8198 57.8791 88.8198C57.4974 88.8198 57.2362 88.9555 57.0958 89.2266C56.9652 89.4976 56.8999 89.8493 56.8999 90.281V90.5373C56.8999 90.9792 56.9652 91.3357 57.0958 91.6067C57.2362 91.8678 57.4974 91.9984 57.8791 91.9984ZM65.0951 98.401C64.5626 98.401 64.1057 98.3107 63.7242 98.1299C63.3524 97.9491 63.0663 97.6627 62.8654 97.271C62.6746 96.8794 62.5793 96.352 62.5793 95.6893C62.5793 95.0266 62.6746 94.4992 62.8654 94.1075C63.0663 93.7059 63.3524 93.4195 63.7242 93.249C64.1057 93.0682 64.5626 92.9776 65.0951 92.9776C65.6375 92.9776 66.0945 93.0682 66.466 93.249C66.8474 93.4195 67.1338 93.7059 67.3246 94.1075C67.5156 94.4992 67.611 95.0266 67.611 95.6893C67.611 96.352 67.5156 96.8845 67.3246 97.2861C67.1338 97.6777 66.8474 97.9642 66.466 98.145C66.0945 98.3155 65.6375 98.401 65.0951 98.401ZM65.0951 97.2861C65.4868 97.2861 65.7479 97.1507 65.8785 96.8794C66.009 96.6083 66.0743 96.2518 66.0743 95.8099V95.5536C66.0743 95.2624 66.0442 95.0115 65.9838 94.8006C65.9335 94.5795 65.8382 94.409 65.6977 94.2883C65.5671 94.1578 65.3662 94.0925 65.0951 94.0925C64.7134 94.0925 64.4522 94.2282 64.3118 94.4992C64.1812 94.7702 64.1159 95.1219 64.1159 95.5536V95.8099C64.1159 96.2518 64.1812 96.6083 64.3118 96.8794C64.4522 97.1507 64.7134 97.2861 65.0951 97.2861Z" fill="#5F5691"/>
<path fill-rule="evenodd" clip-rule="evenodd" d="M31.513 72.9885C20.9129 83.5886 20.9129 100.775 31.513 111.375C42.1131 121.975 59.2992 121.975 69.8993 111.375C80.4994 100.775 80.4994 83.5886 69.8993 72.9885C59.2992 62.3884 42.1131 62.3884 31.513 72.9885ZM28.4029 114.485C16.0851 102.167 16.0851 82.1961 28.4029 69.8784C40.7206 57.5606 60.6917 57.5606 73.0094 69.8784C85.3272 82.1961 85.3272 102.167 73.0094 114.485C60.6917 126.803 40.7207 126.803 28.4029 114.485Z" fill="#BB96FD"/>
<path fill-rule="evenodd" clip-rule="evenodd" d="M47.9394 62.7072C48.0619 60.3514 50.0709 58.5409 52.4268 58.6633C60.4866 59.0823 68.4459 62.3835 74.6135 68.5515C87.7924 81.7304 87.8827 103.07 74.7386 116.214L74.7386 116.214C61.5943 129.358 40.2553 129.268 27.0763 116.089L27.0762 116.089C19.7947 108.807 16.5119 99.0356 17.2423 89.5446C17.4233 87.1925 19.4767 85.4325 21.8288 85.6135C24.1808 85.7945 25.9408 87.848 25.7598 90.2C25.2134 97.3004 27.6657 104.597 33.1169 110.048C42.9939 119.925 58.9239 119.947 68.698 110.173C68.698 110.173 68.6981 110.173 68.6981 110.173M68.6981 110.173C78.4717 100.399 78.45 84.4692 68.5729 74.5921L68.5728 74.592C63.952 69.9709 58.0099 67.5078 51.9833 67.1945C49.6275 67.0721 47.817 65.0631 47.9394 62.7072" fill="#9F71E3"/>
</g>
</g>
<defs>
<filter id="filter0_ii_1431_48912" x="69.9688" y="-1.83806" width="332.526" height="245.337" filterUnits="userSpaceOnUse" color-interpolation-filters="sRGB">
<feFlood flood-opacity="0" result="BackgroundImageFix"/>
<feBlend mode="normal" in="SourceGraphic" in2="BackgroundImageFix" result="shape"/>
<feColorMatrix in="SourceAlpha" type="matrix" values="0 0 0 0 0 0 0 0 0 0 0 0 0 0 0 0 0 0 127 0" result="hardAlpha"/>
<feOffset dx="15.012" dy="3.016"/>
<feGaussianBlur stdDeviation="15.012"/>
<feComposite in2="hardAlpha" operator="arithmetic" k2="-1" k3="1"/>
<feColorMatrix type="matrix" values="0 0 0 0 1 0 0 0 0 1 0 0 0 0 1 0 0 0 1 0"/>
<feBlend mode="normal" in2="shape" result="effect1_innerShadow_1431_48912"/>
<feColorMatrix in="SourceAlpha" type="matrix" values="0 0 0 0 0 0 0 0 0 0 0 0 0 0 0 0 0 0 127 0" result="hardAlpha"/>
<feOffset dx="2.142" dy="-7.278"/>
<feGaussianBlur stdDeviation="8.555"/>
<feComposite in2="hardAlpha" operator="arithmetic" k2="-1" k3="1"/>
<feColorMatrix type="matrix" values="0 0 0 0 0.118681 0 0 0 0 0.0447917 0 0 0 0 0.163542 0 0 0 0.08 0"/>
<feBlend mode="normal" in2="effect1_innerShadow_1431_48912" result="effect2_innerShadow_1431_48912"/>
</filter>
<filter id="filter1_ii_1431_48912" x="309.066" y="141.554" width="119.64" height="127.728" filterUnits="userSpaceOnUse" color-interpolation-filters="sRGB">
<feFlood flood-opacity="0" result="BackgroundImageFix"/>
<feBlend mode="normal" in="SourceGraphic" in2="BackgroundImageFix" result="shape"/>
<feColorMatrix in="SourceAlpha" type="matrix" values="0 0 0 0 0 0 0 0 0 0 0 0 0 0 0 0 0 0 127 0" result="hardAlpha"/>
<feOffset dx="18.544" dy="3.726"/>
<feGaussianBlur stdDeviation="18.544"/>
<feComposite in2="hardAlpha" operator="arithmetic" k2="-1" k3="1"/>
<feColorMatrix type="matrix" values="0 0 0 0 1 0 0 0 0 1 0 0 0 0 1 0 0 0 1 0"/>
<feBlend mode="normal" in2="shape" result="effect1_innerShadow_1431_48912"/>
<feColorMatrix in="SourceAlpha" type="matrix" values="0 0 0 0 0 0 0 0 0 0 0 0 0 0 0 0 0 0 127 0" result="hardAlpha"/>
<feOffset dx="-0.756" dy="-2.712"/>
<feGaussianBlur stdDeviation="2.751"/>
<feComposite in2="hardAlpha" operator="arithmetic" k2="-1" k3="1"/>
<feColorMatrix type="matrix" values="0 0 0 0 0.345319 0 0 0 0 0.318824 0 0 0 0 0.543922 0 0 0 0.2 0"/>
<feBlend mode="normal" in2="effect1_innerShadow_1431_48912" result="effect2_innerShadow_1431_48912"/>
</filter>
<filter id="filter2_ii_1431_48912" x="4.06969" y="37.6141" width="107.83" height="109.659" filterUnits="userSpaceOnUse" color-interpolation-filters="sRGB">
<feFlood flood-opacity="0" result="BackgroundImageFix"/>
<feBlend mode="normal" in="SourceGraphic" in2="BackgroundImageFix" result="shape"/>
<feColorMatrix in="SourceAlpha" type="matrix" values="0 0 0 0 0 0 0 0 0 0 0 0 0 0 0 0 0 0 127 0" result="hardAlpha"/>
<feOffset dx="14.966" dy="3.007"/>
<feGaussianBlur stdDeviation="14.966"/>
<feComposite in2="hardAlpha" operator="arithmetic" k2="-1" k3="1"/>
<feColorMatrix type="matrix" values="0 0 0 0 1 0 0 0 0 1 0 0 0 0 1 0 0 0 1 0"/>
<feBlend mode="normal" in2="shape" result="effect1_innerShadow_1431_48912"/>
<feColorMatrix in="SourceAlpha" type="matrix" values="0 0 0 0 0 0 0 0 0 0 0 0 0 0 0 0 0 0 127 0" result="hardAlpha"/>
<feOffset dx="-0.61" dy="-2.189"/>
<feGaussianBlur stdDeviation="2.22"/>
<feComposite in2="hardAlpha" operator="arithmetic" k2="-1" k3="1"/>
<feColorMatrix type="matrix" values="0 0 0 0 0.345319 0 0 0 0 0.318824 0 0 0 0 0.543922 0 0 0 0.2 0"/>
<feBlend mode="normal" in2="effect1_innerShadow_1431_48912" result="effect2_innerShadow_1431_48912"/>
</filter>
<linearGradient id="paint0_linear_1431_48912" x1="122.888" y1="209.899" x2="383.016" y2="127.563" gradientUnits="userSpaceOnUse">
<stop offset="0.236" stop-color="#F9F6FF" stop-opacity="0.7"/>
<stop offset="1" stop-color="#F9F6FF" stop-opacity="0.8"/>
</linearGradient>
<clipPath id="clip0_1431_48912">
<rect width="418" height="272" fill="white"/>
</clipPath>
</defs>
</svg>
