<svg width="20" height="20" viewBox="0 0 20 20" fill="none" xmlns="http://www.w3.org/2000/svg">
<g id="more">
<g clip-path="url(#clip0_2514_2193)">
<path id="Vector" d="M5.5 10C5.5 10.2761 5.27614 10.5 5 10.5C4.72386 10.5 4.5 10.2761 4.5 10C4.5 9.72386 4.72386 9.5 5 9.5C5.27614 9.5 5.5 9.72386 5.5 10Z" fill="#111111" stroke="#111111" stroke-width="1.5"/>
<path id="Vector_2" d="M10 11.25C10.6904 11.25 11.25 10.6904 11.25 10C11.25 9.30964 10.6904 8.75 10 8.75C9.30964 8.75 8.75 9.30964 8.75 10C8.75 10.6904 9.30964 11.25 10 11.25Z" fill="#111111"/>
<path id="Vector_3" d="M15 11.25C15.6904 11.25 16.25 10.6904 16.25 10C16.25 9.30964 15.6904 8.75 15 8.75C14.3096 8.75 13.75 9.30964 13.75 10C13.75 10.6904 14.3096 11.25 15 11.25Z" fill="#111111"/>
</g>
</g>
<defs>
<clipPath id="clip0_2514_2193">
<rect width="20" height="20" rx="4" fill="white"/>
</clipPath>
</defs>
</svg>
