<svg width="24" height="24" viewBox="0 0 24 24" fill="none" xmlns="http://www.w3.org/2000/svg">
<g clip-path="url(#clip0_1152_66228)">
<path d="M11.25 2.25067C11.25 2.44958 11.329 2.64035 11.4697 2.781C11.6103 2.92165 11.8011 3.00067 12 3.00067C13.3691 2.99588 14.7209 3.30586 15.9511 3.90666C17.1814 4.50746 18.257 5.38301 19.095 6.46567C19.1911 6.58954 19.3237 6.68018 19.474 6.72482C19.6243 6.76946 19.7848 6.76587 19.933 6.71455C20.0812 6.66323 20.2095 6.56676 20.3 6.43871C20.3905 6.31066 20.4386 6.15746 20.4375 6.00067C20.4387 5.83239 20.3832 5.66861 20.28 5.53567C19.2996 4.27551 18.0436 3.25664 16.6083 2.55721C15.173 1.85777 13.5966 1.49635 12 1.50067C11.8011 1.50067 11.6103 1.57968 11.4697 1.72034C11.329 1.86099 11.25 2.05175 11.25 2.25067Z" fill="#3B37FF"/>
<path d="M20.565 9.23237C21.0014 10.5828 21.1123 12.0172 20.8885 13.4187C20.6648 14.8201 20.1128 16.1488 19.2777 17.2962C18.4425 18.4436 17.3479 19.3772 16.0831 20.0209C14.8183 20.6646 13.4192 21 12 20.9999C9.87194 21.0028 7.81297 20.2447 6.195 18.8624L12.5325 12.5324C12.6737 12.3911 12.7531 12.1996 12.7531 11.9999C12.7531 11.8001 12.6737 11.6086 12.5325 11.4674C12.3913 11.3261 12.1997 11.2468 12 11.2468C11.8003 11.2468 11.6087 11.3261 11.4675 11.4674L5.1375 17.8049C3.75517 16.1869 2.99703 14.1279 3 11.9999C3 11.801 2.92098 11.6102 2.78033 11.4695C2.63968 11.3289 2.44891 11.2499 2.25 11.2499C2.05109 11.2499 1.86032 11.3289 1.71967 11.4695C1.57902 11.6102 1.5 11.801 1.5 11.9999C1.49998 13.5171 1.82879 15.0164 2.46379 16.3944C3.09878 17.7724 4.02488 18.9964 5.17831 19.9821C6.33175 20.9679 7.68511 21.6919 9.14523 22.1045C10.6053 22.517 12.1375 22.6082 13.6362 22.3717C15.135 22.1353 16.5647 21.5768 17.8269 20.7349C19.0891 19.8929 20.1538 18.7873 20.9477 17.4944C21.7417 16.2014 22.246 14.7517 22.4259 13.2452C22.6058 11.7386 22.4571 10.2109 21.99 8.76737C21.9229 8.58527 21.7879 8.43625 21.6133 8.35162C21.4387 8.267 21.238 8.25335 21.0535 8.31355C20.8691 8.37375 20.7151 8.5031 20.624 8.67444C20.5329 8.84578 20.5117 9.04576 20.565 9.23237V9.23237Z" fill="#3B37FF"/>
<path d="M12.75 0.75L12.75 12C12.75 12.1989 12.671 12.3897 12.5303 12.5303C12.3897 12.671 12.1989 12.75 12 12.75L0.75 12.75C0.551088 12.75 0.360322 12.671 0.21967 12.5303C0.0790176 12.3897 -2.40888e-08 12.1989 -3.27835e-08 12C-1.71899e-07 8.8174 1.26428 5.76516 3.51472 3.51472C5.76516 1.26428 8.8174 6.27858e-07 12 4.88742e-07C12.1989 4.80048e-07 12.3897 0.0790175 12.5303 0.21967C12.671 0.360322 12.75 0.551088 12.75 0.75ZM11.25 11.25L11.25 1.5C8.72185 1.67497 6.34227 2.75837 4.55032 4.55032C2.75837 6.34227 1.67497 8.72185 1.5 11.25L11.25 11.25Z" fill="#3B37FF"/>
<path d="M21 19.5L21 23.25C21 23.4489 20.921 23.6397 20.7804 23.7803C20.6397 23.921 20.449 24 20.25 24C20.0511 24 19.8604 23.921 19.7197 23.7803C19.5791 23.6397 19.5 23.4489 19.5 23.25L19.5 19.7775L15.18 14.7375C15.0507 14.5863 14.9868 14.39 15.0023 14.1917C15.0177 13.9933 15.1114 13.8093 15.2625 13.68C15.4137 13.5507 15.6101 13.4868 15.8084 13.5022C16.0067 13.5177 16.1907 13.6113 16.32 13.7625C21.18 19.4325 21 19.1025 21 19.5Z" fill="#3B37FF"/>
<path d="M24 19.5L24 23.25C24 23.4489 23.921 23.6397 23.7803 23.7803C23.6397 23.921 23.4489 24 23.25 24C23.0511 24 22.8603 23.921 22.7197 23.7803C22.579 23.6397 22.5 23.4489 22.5 23.25L22.5 19.5C22.5 19.3011 22.579 19.1103 22.7197 18.9697C22.8603 18.829 23.0511 18.75 23.25 18.75C23.4489 18.75 23.6397 18.829 23.7803 18.9697C23.921 19.1103 24 19.3011 24 19.5Z" fill="#111111"/>
</g>
<defs>
<clipPath id="clip0_1152_66228">
<rect width="24" height="24" fill="white" transform="translate(0 24) rotate(-90)"/>
</clipPath>
</defs>
</svg>
