<svg width="20" height="20" viewBox="0 0 20 20" fill="none" xmlns="http://www.w3.org/2000/svg">
<g id="Sparkle" clip-path="url(#clip0_2667_52678)">
<path id="Vector" d="M13.3333 15C13.7754 15 14.1993 15.1756 14.5118 15.4882C14.8244 15.8008 15 16.2247 15 16.6667C15 16.2247 15.1756 15.8008 15.4882 15.4882C15.8007 15.1756 16.2246 15 16.6667 15C16.2246 15 15.8007 14.8244 15.4882 14.5119C15.1756 14.1993 15 13.7754 15 13.3334C15 13.7754 14.8244 14.1993 14.5118 14.5119C14.1993 14.8244 13.7754 15 13.3333 15ZM13.3333 5.00004C13.7754 5.00004 14.1993 5.17564 14.5118 5.4882C14.8244 5.80076 15 6.22468 15 6.66671C15 6.22468 15.1756 5.80076 15.4882 5.4882C15.8007 5.17564 16.2246 5.00004 16.6667 5.00004C16.2246 5.00004 15.8007 4.82445 15.4882 4.51189C15.1756 4.19932 15 3.7754 15 3.33337C15 3.7754 14.8244 4.19932 14.5118 4.51189C14.1993 4.82445 13.7754 5.00004 13.3333 5.00004ZM7.5 15C7.5 13.674 8.02678 12.4022 8.96447 11.4645C9.90215 10.5268 11.1739 10 12.5 10C11.1739 10 9.90215 9.47326 8.96447 8.53557C8.02678 7.59789 7.5 6.32612 7.5 5.00004C7.5 6.32612 6.97322 7.59789 6.03553 8.53557C5.09785 9.47326 3.82608 10 2.5 10C3.82608 10 5.09785 10.5268 6.03553 11.4645C6.97322 12.4022 7.5 13.674 7.5 15Z" stroke="#3B37FF" stroke-width="1.5" stroke-linecap="round" stroke-linejoin="round"/>
</g>
<defs>
<clipPath id="clip0_2667_52678">
<rect width="20" height="20" fill="white"/>
</clipPath>
</defs>
</svg>
