<svg width="21" height="20" viewBox="0 0 21 20" fill="none" xmlns="http://www.w3.org/2000/svg">
<g clip-path="url(#clip0_3566_14233)">
<path d="M10.0834 16.6673H5.50004C5.05801 16.6673 4.63409 16.4917 4.32153 16.1792C4.00897 15.8666 3.83337 15.4427 3.83337 15.0007V5.00065C3.83337 4.55862 4.00897 4.1347 4.32153 3.82214C4.63409 3.50958 5.05801 3.33398 5.50004 3.33398H15.5C15.9421 3.33398 16.366 3.50958 16.6786 3.82214C16.9911 4.1347 17.1667 4.55862 17.1667 5.00065V11.2507M3.83337 8.33398H17.1667M8.83337 3.33398V16.6673M12.1667 15.834H18M18 15.834L15.5 13.334M18 15.834L15.5 18.334" stroke="#111111" stroke-width="1.5" stroke-linecap="round" stroke-linejoin="round"/>
</g>
<defs>
<clipPath id="clip0_3566_14233">
<rect width="20" height="20" fill="white" transform="translate(0.5)"/>
</clipPath>
</defs>
</svg>
